<?xml version="1.0" encoding="utf-8"?>
<!-- Generator: Adobe Illustrator 21.1.0, SVG Export Plug-In . SVG Version: 6.00 Build 0)  -->
<svg version="1.1" id="图层_1" xmlns="http://www.w3.org/2000/svg" xmlns:xlink="http://www.w3.org/1999/xlink" x="0px" y="0px"
	 viewBox="0 0 18.4 241.9" style="enable-background:new 0 0 18.4 241.9;" xml:space="preserve">
<style type="text/css">
	.st0{fill:#FFFFFF;}
</style>
<title>cdlogo</title>
<path class="st0" d="M13.7,239.5c-0.4,0.8-1.1,1.4-1.8,1.8c-0.8,0.4-1.7,0.7-2.6,0.6c-0.9,0-1.8-0.2-2.6-0.6c-0.8-0.4-1.4-1-1.8-1.8
	c-0.4-0.8-0.7-1.7-0.6-2.6c0-1.4,0.6-2.7,1.6-3.6c0.1-0.1,0.3-0.2,0.5-0.2c0.3,0,0.5,0.2,0.7,0.4c0.1,0.1,0.1,0.3,0.1,0.4
	c0,0.3-0.1,0.5-0.3,0.7c-0.3,0.3-0.6,0.6-0.7,1c-0.2,0.4-0.2,0.8-0.2,1.2c0,0.9,0.3,1.7,0.9,2.3c0.7,0.6,1.6,0.9,2.5,0.9
	c0.6,0,1.2-0.1,1.8-0.4c0.5-0.3,0.9-0.7,1.2-1.1c0.3-0.5,0.4-1.1,0.4-1.7c0-0.7-0.2-1.4-0.6-2c-0.2-0.2-0.2-0.4-0.3-0.7
	c0-0.2,0.1-0.3,0.2-0.5c0.2-0.2,0.4-0.3,0.7-0.3c0.2,0,0.4,0.1,0.5,0.2c0.8,0.9,1.3,2.1,1.2,3.3C14.3,237.8,14.1,238.7,13.7,239.5z"
	/>
<path class="st0" d="M13.7,227.1c-0.4,0.8-1,1.4-1.8,1.8c-0.8,0.4-1.7,0.7-2.6,0.6c-0.9,0-1.8-0.2-2.6-0.6c-0.8-0.4-1.4-1-1.8-1.8
	c-0.4-0.8-0.7-1.7-0.6-2.6c0-0.9,0.2-1.8,0.6-2.6c0.4-0.7,1-1.4,1.8-1.8c0.8-0.4,1.7-0.7,2.6-0.6c0.9,0,1.8,0.2,2.6,0.6
	c0.8,0.4,1.4,1,1.8,1.8C14.5,223.6,14.5,225.5,13.7,227.1z M12.3,222.9c-0.3-0.5-0.7-0.9-1.2-1.1c-0.5-0.3-1.1-0.4-1.8-0.4
	c-0.6,0-1.2,0.1-1.8,0.4c-0.5,0.3-0.9,0.7-1.2,1.1c-0.6,1-0.6,2.3,0,3.3c0.3,0.5,0.7,0.9,1.2,1.2c0.5,0.3,1.2,0.4,1.8,0.4
	c0.6,0,1.2-0.1,1.8-0.4c0.5-0.3,0.9-0.7,1.2-1.2C12.9,225.2,12.9,223.9,12.3,222.9L12.3,222.9z"/>
<path class="st0" d="M5.2,202.3c0.8-0.7,1.8-1,2.9-1h5.2c0.2,0,0.5,0.1,0.7,0.3c0.4,0.3,0.4,0.9,0.1,1.3c-0.2,0.2-0.5,0.3-0.8,0.3
	H8.1c-0.6,0-1.2,0.2-1.7,0.6c-0.4,0.4-0.6,0.9-0.6,1.5c0,0.6,0.3,1.1,0.7,1.5c0.5,0.4,1.1,0.6,1.7,0.6h5.1c0.2,0,0.5,0.1,0.7,0.3
	c0.4,0.3,0.4,0.9,0.1,1.3c-0.2,0.2-0.5,0.3-0.8,0.3H8.1c-0.6,0-1.2,0.2-1.7,0.6c-0.4,0.4-0.6,0.9-0.6,1.5c0,0.6,0.3,1.1,0.7,1.5
	c0.5,0.4,1.1,0.6,1.7,0.6h5.1c0.2,0,0.5,0.1,0.7,0.3c0.4,0.3,0.4,0.9,0.1,1.3c-0.2,0.2-0.5,0.3-0.8,0.3H5.2c-0.3,0-0.5-0.1-0.7-0.3
	c-0.2-0.2-0.3-0.4-0.3-0.7c0-0.2,0.1-0.5,0.2-0.7c0.2-0.2,0.4-0.3,0.6-0.3c-0.3-0.3-0.6-0.7-0.7-1.1c-0.2-0.5-0.3-0.9-0.3-1.4
	c0-0.6,0.1-1.1,0.4-1.6c0.2-0.5,0.6-0.9,1.1-1.2c-0.5-0.4-0.8-0.8-1.1-1.4c-0.3-0.6-0.4-1.2-0.4-1.8C4.1,204,4.5,203,5.2,202.3z"/>
<path class="st0" d="M5.2,183.8c0.8-0.7,1.8-1,2.9-1h5.2c0.2,0,0.5,0.1,0.7,0.3c0.4,0.3,0.4,0.9,0.1,1.3c-0.2,0.2-0.5,0.3-0.8,0.3
	H8.1c-0.6,0-1.2,0.2-1.7,0.6c-0.4,0.4-0.6,0.9-0.6,1.5c0,0.6,0.3,1.1,0.7,1.5c0.5,0.4,1.1,0.6,1.7,0.6h5.1c0.2,0,0.5,0.1,0.7,0.3
	c0.4,0.3,0.4,0.9,0.1,1.3c-0.2,0.2-0.5,0.3-0.8,0.3H8.1c-0.6,0-1.2,0.2-1.7,0.6c-0.4,0.4-0.6,0.9-0.6,1.5c0,0.6,0.2,1.2,0.7,1.6
	c0.5,0.4,1.1,0.6,1.7,0.6h5.1c0.2,0,0.5,0.1,0.7,0.3c0.4,0.3,0.4,0.9,0.1,1.3c-0.2,0.2-0.5,0.3-0.8,0.3H5.2c-0.3,0-0.5-0.1-0.7-0.3
	c-0.2-0.2-0.3-0.4-0.3-0.7c0-0.2,0.1-0.5,0.2-0.7c0.2-0.2,0.4-0.3,0.6-0.3c-0.3-0.3-0.6-0.7-0.7-1.1c-0.2-0.5-0.3-0.9-0.3-1.4
	c0-0.6,0.1-1.1,0.4-1.6c0.2-0.5,0.6-0.9,1.1-1.2c-0.5-0.4-0.8-0.8-1.1-1.4c-0.3-0.6-0.4-1.2-0.4-1.8C4.1,185.5,4.5,184.5,5.2,183.8z
	"/>
<path class="st0" d="M4.5,169.5c0.2-0.2,0.4-0.3,0.7-0.3h8.1c0.2,0,0.5,0.1,0.7,0.3c0.4,0.4,0.4,1,0,1.3c-0.2,0.2-0.4,0.3-0.7,0.3
	h-0.2c0.4,0.4,0.7,0.9,0.9,1.4c0.2,0.5,0.3,1.1,0.3,1.7c0,0.8-0.2,1.6-0.5,2.3c-0.4,0.7-0.9,1.2-1.6,1.6c-0.8,0.4-1.7,0.6-2.5,0.6
	H5.2c-0.5,0-1-0.3-1-0.8c0-0.5,0.3-1,0.8-1c0.1,0,0.1,0,0.2,0h4.5c0.8,0.1,1.6-0.2,2.2-0.8c0.5-0.6,0.8-1.3,0.8-2.1
	c0-0.5-0.1-1-0.3-1.4c-0.2-0.4-0.5-0.7-0.8-1c-0.4-0.2-0.8-0.4-1.2-0.4H5.2c-0.3,0-0.5-0.1-0.7-0.3C4.2,170.4,4.2,169.8,4.5,169.5
	L4.5,169.5z"/>
<path class="st0" d="M4.7,157.4c0.4-0.7,0.9-1.2,1.6-1.6c0.8-0.4,1.7-0.6,2.5-0.6h4.5c0.5,0,1,0.3,1,0.8c0,0.5-0.3,1-0.8,1
	c-0.1,0-0.1,0-0.2,0H8.9c-0.8-0.1-1.6,0.2-2.2,0.8c-0.5,0.6-0.8,1.3-0.8,2.1c0,0.5,0.1,1,0.3,1.4c0.2,0.4,0.5,0.7,0.8,1
	c0.4,0.2,0.8,0.4,1.2,0.4h5.1c0.2,0,0.5,0.1,0.7,0.3c0.4,0.3,0.4,0.9,0.1,1.3c-0.2,0.2-0.5,0.3-0.8,0.3H5.2c-0.3,0-0.5-0.1-0.7-0.3
	c-0.4-0.3-0.5-0.9-0.1-1.3c0.2-0.2,0.5-0.4,0.8-0.3h0.2c-0.4-0.4-0.7-0.9-0.9-1.4c-0.2-0.5-0.3-1.1-0.3-1.7
	C4.2,158.9,4.4,158.1,4.7,157.4z"/>
<path class="st0" d="M2.3,150.5c-0.2,0.2-0.5,0.3-0.8,0.4c-0.3,0-0.6-0.1-0.8-0.4c-0.5-0.5-0.5-1.2,0-1.7c0,0,0,0,0,0
	c0.2-0.2,0.5-0.3,0.8-0.4c0.3,0,0.6,0.1,0.8,0.4C2.8,149.3,2.8,150,2.3,150.5C2.3,150.5,2.3,150.5,2.3,150.5z M14,150.3
	c-0.2,0.2-0.4,0.3-0.7,0.3H5.2c-0.3,0-0.5-0.1-0.7-0.3c-0.4-0.3-0.5-0.9-0.1-1.3c0.2-0.2,0.5-0.4,0.8-0.3h8.1c0.2,0,0.5,0.1,0.7,0.3
	C14.3,149.3,14.3,149.9,14,150.3L14,150.3z"/>
<path class="st0" d="M13.7,142c-0.4,0.8-1.1,1.4-1.8,1.8c-0.8,0.4-1.7,0.7-2.6,0.6c-0.9,0-1.8-0.2-2.6-0.6c-0.8-0.4-1.4-1-1.8-1.8
	c-0.4-0.8-0.7-1.7-0.6-2.6c0-1.4,0.6-2.7,1.6-3.6c0.1-0.1,0.3-0.2,0.5-0.2c0.3,0,0.5,0.2,0.7,0.4c0.1,0.1,0.1,0.3,0.1,0.4
	c0,0.3-0.1,0.5-0.3,0.7c-0.3,0.3-0.6,0.6-0.7,1c-0.2,0.4-0.2,0.8-0.2,1.2c0,0.9,0.3,1.7,0.9,2.3c0.7,0.6,1.6,0.9,2.5,0.9
	c0.6,0,1.2-0.1,1.8-0.4c0.5-0.2,1-0.6,1.3-1.1c0.3-0.5,0.4-1.1,0.4-1.7c0-0.7-0.2-1.4-0.6-2c-0.2-0.2-0.2-0.4-0.3-0.7
	c0-0.2,0.1-0.3,0.2-0.5c0.2-0.2,0.4-0.3,0.7-0.3c0.2,0,0.4,0.1,0.5,0.2c0.8,0.9,1.3,2.1,1.2,3.3C14.4,140.3,14.1,141.2,13.7,142z"/>
<path class="st0" d="M4.9,124.5c0.4-0.8,1.1-1.4,1.8-1.8c0.8-0.4,1.7-0.7,2.6-0.7h4.1c0.5,0,1,0.3,1,0.8c0,0.5-0.3,1-0.8,1
	c-0.1,0-0.1,0-0.2,0h-0.7c1.7,1.4,2.2,4,1,5.9c-0.4,0.7-1.1,1.3-1.8,1.6c-0.8,0.4-1.7,0.6-2.6,0.6c-0.9,0-1.8-0.2-2.6-0.7
	c-0.8-0.4-1.4-1.1-1.8-1.8c-0.4-0.8-0.7-1.7-0.7-2.6C4.2,126.1,4.4,125.3,4.9,124.5z M12.2,125.4c-0.3-0.5-0.7-0.9-1.2-1.2
	c-0.5-0.3-1.1-0.4-1.7-0.4c-0.6,0-1.2,0.1-1.8,0.4c-1.6,0.9-2.1,2.8-1.3,4.4c0,0,0,0.1,0.1,0.1c0.3,0.5,0.7,0.9,1.2,1.2
	c0.5,0.3,1.1,0.4,1.8,0.4c0.6,0,1.2-0.1,1.7-0.4c0.5-0.3,0.9-0.7,1.2-1.2C12.8,127.7,12.8,126.4,12.2,125.4L12.2,125.4z"/>
<path class="st0" d="M12.7,113.1c0.2-0.2,0.4-0.2,0.7-0.2c0.3,0,0.5,0.1,0.7,0.3c0.2,0.2,0.3,0.5,0.3,0.8v0.3c0,0.6-0.2,1.1-0.5,1.6
	c-0.3,0.5-0.7,0.9-1.3,1.2c-0.6,0.3-1.2,0.4-1.8,0.4H6.2v0.8c0,0.2-0.1,0.5-0.2,0.6c-0.1,0.2-0.3,0.2-0.5,0.2
	c-0.2,0-0.4-0.1-0.6-0.2c-0.2-0.2-0.2-0.4-0.2-0.6v-0.8H2c-0.5,0-0.9-0.4-0.9-0.9c0-0.5,0.4-0.9,0.9-0.9h2.6v-1.5
	c0-0.2,0.1-0.5,0.2-0.6c0.1-0.2,0.4-0.2,0.6-0.2c0.2,0,0.4,0.1,0.5,0.2c0.2,0.2,0.2,0.4,0.2,0.6v1.5h4.5c0.4,0,0.9-0.1,1.2-0.4
	c0.3-0.2,0.5-0.6,0.5-1v-0.6C12.4,113.4,12.5,113.2,12.7,113.1z"/>
<path class="st0" d="M2.3,108.9c-0.2,0.2-0.5,0.3-0.8,0.4c-0.3,0-0.6-0.1-0.8-0.4c-0.5-0.5-0.5-1.2,0-1.7c0,0,0,0,0,0
	c0.2-0.2,0.5-0.3,0.8-0.4c0.3,0,0.6,0.1,0.8,0.4C2.8,107.7,2.8,108.4,2.3,108.9C2.3,108.9,2.3,108.9,2.3,108.9z M14,108.7
	c-0.2,0.2-0.4,0.3-0.7,0.3H5.2c-0.3,0-0.5-0.1-0.7-0.3c-0.4-0.3-0.5-0.9-0.1-1.3c0.2-0.2,0.5-0.4,0.8-0.3h8.1c0.2,0,0.5,0.1,0.7,0.3
	C14.3,107.7,14.3,108.3,14,108.7L14,108.7z"/>
<path class="st0" d="M13.7,100.4c-0.4,0.8-1,1.4-1.8,1.8c-0.8,0.4-1.7,0.7-2.6,0.6c-0.9,0-1.8-0.2-2.6-0.6c-0.8-0.4-1.4-1-1.8-1.8
	c-0.4-0.8-0.7-1.7-0.6-2.6c0-0.9,0.2-1.8,0.6-2.6c0.4-0.7,1-1.4,1.8-1.8c0.8-0.4,1.7-0.7,2.6-0.6c0.9,0,1.8,0.2,2.6,0.6
	c0.8,0.4,1.4,1,1.8,1.8C14.5,96.8,14.5,98.8,13.7,100.4z M12.3,96.1c-0.3-0.5-0.7-0.9-1.2-1.1c-0.5-0.3-1.1-0.4-1.8-0.4
	c-0.6,0-1.2,0.1-1.8,0.4c-0.5,0.3-0.9,0.7-1.2,1.1c-0.6,1-0.6,2.3,0,3.3c0.3,0.5,0.7,0.9,1.2,1.2c0.5,0.3,1.2,0.4,1.8,0.4
	c0.6,0,1.2-0.1,1.8-0.4c0.5-0.3,0.9-0.7,1.2-1.2C12.9,98.4,12.9,97.2,12.3,96.1z"/>
<path class="st0" d="M4.7,81.4c0.4-0.7,0.9-1.2,1.6-1.6c0.8-0.4,1.7-0.6,2.5-0.6h4.5c0.5,0,1,0.3,1,0.8c0,0.5-0.3,1-0.8,1
	c-0.1,0-0.1,0-0.2,0H8.9c-0.8-0.1-1.6,0.2-2.2,0.8c-0.5,0.6-0.8,1.3-0.8,2.1c0,0.5,0.1,1,0.3,1.4c0.2,0.4,0.5,0.7,0.8,1
	c0.4,0.2,0.8,0.4,1.2,0.4h5.1c0.2,0,0.5,0.1,0.7,0.3c0.4,0.3,0.4,0.9,0.1,1.3c-0.2,0.2-0.5,0.3-0.8,0.3H5.2c-0.3,0-0.5-0.1-0.7-0.3
	c-0.4-0.3-0.5-0.9-0.1-1.3c0.2-0.2,0.5-0.4,0.8-0.3h0.2c-0.4-0.4-0.7-0.9-0.9-1.4c-0.2-0.5-0.3-1.1-0.3-1.7
	C4.2,82.9,4.4,82.1,4.7,81.4z"/>
<path class="st0" d="M0.3,58.8c0.2-0.2,0.4-0.3,0.7-0.3h8.3c0.9,0,1.8,0.2,2.6,0.7c1.6,0.9,2.5,2.6,2.5,4.4c0,0.9-0.2,1.8-0.7,2.6
	c-0.4,0.8-1,1.4-1.8,1.8c-0.8,0.4-1.7,0.7-2.6,0.7c-0.9,0-1.8-0.2-2.6-0.6c-0.7-0.4-1.4-0.9-1.8-1.6c-0.4-0.7-0.7-1.5-0.7-2.4
	c0-1.4,0.6-2.7,1.6-3.5H0.9c-0.3,0-0.5-0.1-0.7-0.3C-0.1,59.8-0.1,59.2,0.3,58.8L0.3,58.8z M12.2,61.9c-0.3-0.5-0.7-0.9-1.2-1.2
	c-0.5-0.3-1.1-0.4-1.8-0.4c-0.6,0-1.2,0.1-1.7,0.4c-1.6,0.9-2.1,2.8-1.3,4.4c0,0,0,0.1,0,0.1c0.3,0.5,0.7,0.9,1.2,1.2
	c0.5,0.3,1.1,0.4,1.7,0.4c0.6,0,1.2-0.1,1.8-0.4c0.5-0.3,0.9-0.7,1.2-1.2C12.8,64.2,12.8,63,12.2,61.9L12.2,61.9z"/>
<path class="st0" d="M9.7,45.2c0.2,0.2,0.2,0.4,0.2,0.6v6.9c0.8-0.1,1.5-0.5,2.1-1.1c0.8-1,1-2.3,0.6-3.5c-0.1-0.3-0.3-0.7-0.5-1
	c-0.1-0.2-0.2-0.4-0.2-0.6c0-0.2,0.1-0.4,0.2-0.5c0.1-0.2,0.4-0.3,0.6-0.3c0.2,0,0.4,0.1,0.5,0.3c0.4,0.5,0.6,1,0.8,1.5
	c0.5,1.5,0.4,3.1-0.3,4.4c-0.4,0.8-1,1.4-1.8,1.9c-0.8,0.5-1.7,0.7-2.6,0.7c-0.9,0-1.8-0.2-2.6-0.6c-0.8-0.4-1.4-1-1.8-1.8
	c-0.4-0.8-0.7-1.7-0.6-2.5c0-0.9,0.2-1.7,0.6-2.5c0.4-0.7,1-1.2,1.7-1.6c0.8-0.4,1.7-0.6,2.6-0.5C9.3,44.9,9.5,45,9.7,45.2z
	 M6.5,51.6c0.5,0.6,1.2,0.9,1.9,1v-6.1C7.7,46.7,7,47,6.5,47.5c-0.5,0.5-0.8,1.2-0.8,1.9C5.7,50.3,6,51.1,6.5,51.6L6.5,51.6z"/>
<path class="st0" d="M13.9,39.9c-0.2,0.6-0.5,1.2-1,1.7c-0.1,0.2-0.4,0.2-0.6,0.2c-0.3,0-0.6-0.1-0.7-0.4c-0.2-0.2-0.2-0.4-0.3-0.6
	c0-0.3,0.1-0.5,0.3-0.7c0.3-0.3,0.5-0.6,0.7-1c0.2-0.5,0.3-1,0.3-1.5c0-0.6-0.1-1.1-0.3-1.6c-0.2-0.4-0.5-0.6-0.9-0.6
	c-0.4,0-0.8,0.2-0.9,0.6c-0.3,0.6-0.5,1.2-0.6,1.9c-0.4,2.3-1.4,3.5-2.9,3.5c-0.5,0-1.1-0.2-1.5-0.5c-0.4-0.4-0.7-0.8-0.9-1.4
	c-0.2-0.6-0.3-1.2-0.3-1.9c0-0.7,0.1-1.5,0.4-2.1C4.8,35,5.2,34.4,5.6,34c0.2-0.1,0.4-0.2,0.6-0.2c0.2,0,0.4,0.1,0.6,0.3
	c0.1,0.1,0.2,0.3,0.1,0.5c0,0.3-0.1,0.6-0.3,0.8c-0.3,0.3-0.5,0.6-0.6,1c-0.1,0.4-0.2,0.8-0.2,1.2c0,0.5,0.1,0.9,0.3,1.4
	c0.1,0.3,0.5,0.5,0.8,0.5c0.2,0,0.4-0.1,0.6-0.2C7.8,39.2,7.9,39,8,38.7c0.2-0.5,0.3-1,0.4-1.5c0.1-1,0.5-2,1.1-2.8
	c0.5-0.5,1.1-0.8,1.8-0.8c0.5,0,1.1,0.2,1.5,0.5c0.5,0.4,0.8,0.8,1,1.4c0.3,0.7,0.4,1.4,0.4,2.1C14.3,38.4,14.2,39.2,13.9,39.9z"/>
<path class="st0" d="M2.3,29.7C2.1,29.9,1.8,30,1.5,30c-0.3,0-0.6-0.1-0.8-0.4c-0.5-0.5-0.5-1.2,0-1.7c0,0,0,0,0,0
	c0.2-0.2,0.5-0.3,0.8-0.4c0.3,0,0.6,0.1,0.8,0.4C2.8,28.4,2.8,29.2,2.3,29.7C2.3,29.7,2.3,29.7,2.3,29.7z M14,29.5
	c-0.2,0.2-0.4,0.3-0.7,0.3H5.2c-0.3,0-0.5-0.1-0.7-0.3c-0.4-0.3-0.5-0.9-0.1-1.3c0.2-0.2,0.5-0.4,0.8-0.3h8.1c0.2,0,0.5,0.1,0.7,0.3
	C14.3,28.5,14.3,29.1,14,29.5L14,29.5z"/>
<path class="st0" d="M4.8,15.9c0.4-0.7,1-1.4,1.8-1.8c0.8-0.4,1.7-0.7,2.6-0.6h3.9c0.9,0,1.8,0.2,2.6,0.6c0.8,0.4,1.4,1,1.9,1.8
	c0.5,0.8,0.7,1.7,0.7,2.6c0,0.8-0.2,1.7-0.5,2.5c-0.3,0.7-0.9,1.4-1.5,1.9c-0.1,0.1-0.3,0.2-0.5,0.2c-0.3,0-0.5-0.2-0.7-0.4
	c-0.1-0.1-0.2-0.3-0.2-0.5c0-0.3,0.1-0.6,0.4-0.7c0.4-0.3,0.7-0.8,0.9-1.3c0.2-0.5,0.3-1.1,0.3-1.7c0-0.6-0.1-1.1-0.4-1.6
	C16,16.4,15.5,16,15,15.7c-0.6-0.3-1.3-0.4-1.9-0.4h-0.9c0.6,0.4,1.2,0.9,1.6,1.5c0.4,0.6,0.6,1.4,0.6,2.1c0,0.9-0.2,1.7-0.6,2.5
	c-0.4,0.7-1.1,1.3-1.8,1.6c-0.8,0.4-1.7,0.6-2.6,0.6c-0.9,0-1.8-0.2-2.6-0.6c-0.8-0.4-1.4-1-1.8-1.8c-0.4-0.8-0.7-1.7-0.6-2.6
	C4.2,17.6,4.4,16.7,4.8,15.9z M12.2,16.9c-0.3-0.5-0.7-0.9-1.2-1.1c-0.5-0.3-1.1-0.4-1.8-0.4c-0.6,0-1.2,0.1-1.8,0.4
	C7,16,6.5,16.4,6.3,16.9c-0.6,1-0.6,2.3,0,3.3c0.3,0.5,0.7,0.9,1.2,1.2c0.5,0.3,1.2,0.4,1.8,0.4c0.6,0,1.2-0.1,1.8-0.4
	c0.5-0.3,1-0.7,1.3-1.2C12.9,19.2,12.9,17.9,12.2,16.9L12.2,16.9z"/>
<path class="st0" d="M4.7,2.1c0.4-0.7,0.9-1.2,1.6-1.6C7.1,0.2,8,0,8.9,0h4.5c0.5,0,0.9,0.4,0.9,0.9c0,0,0,0,0,0.1
	c0,0.5-0.4,0.9-0.9,0.9c0,0,0,0-0.1,0H8.9C8,1.8,7.2,2.1,6.6,2.7C6.1,3.3,5.8,4,5.9,4.8c0,0.5,0.1,1,0.3,1.4c0.2,0.4,0.5,0.7,0.8,1
	c0.4,0.2,0.8,0.3,1.2,0.3h5.1c0.2,0,0.5,0.1,0.7,0.3c0.4,0.3,0.4,0.9,0.1,1.3c-0.2,0.2-0.5,0.3-0.8,0.3H5.2C5,9.4,4.7,9.3,4.5,9.1
	C4.1,8.8,4.1,8.2,4.4,7.8c0.2-0.2,0.5-0.4,0.8-0.3h0.2C5,7.1,4.7,6.6,4.5,6.1C4.3,5.6,4.2,5,4.2,4.4C4.2,3.6,4.4,2.8,4.7,2.1z"/>
</svg>
