<?xml version="1.0" encoding="utf-8"?>
<!-- Generator: Adobe Illustrator 21.1.0, SVG Export Plug-In . SVG Version: 6.00 Build 0)  -->
<svg version="1.1" id="图层_1" xmlns="http://www.w3.org/2000/svg" xmlns:xlink="http://www.w3.org/1999/xlink" x="0px" y="0px"
	 viewBox="0 0 18.4 241.4" style="enable-background:new 0 0 18.4 241.4;" xml:space="preserve">
<style type="text/css">
	.st0{fill:#FFFFFF;}
</style>
<title>communicationicon</title>
<path class="st0" d="M13.7,238.9c-0.4,0.8-1.1,1.4-1.8,1.8c-0.8,0.4-1.7,0.7-2.6,0.6c-0.9,0-1.8-0.2-2.6-0.6c-0.8-0.4-1.4-1-1.8-1.8
	c-0.4-0.8-0.7-1.7-0.6-2.5c0-1.4,0.6-2.7,1.6-3.6c0.1-0.1,0.3-0.2,0.5-0.2c0.3,0,0.6,0.1,0.7,0.4c0.1,0.1,0.1,0.3,0.1,0.4
	c0,0.3-0.1,0.5-0.3,0.7c-0.3,0.3-0.5,0.6-0.7,1c-0.2,0.4-0.2,0.8-0.2,1.2c0,0.9,0.3,1.7,0.9,2.3c0.7,0.6,1.6,0.9,2.5,0.9
	c0.6,0,1.2-0.1,1.8-0.4c0.5-0.3,0.9-0.7,1.2-1.2c0.3-0.5,0.4-1.1,0.4-1.7c0-0.7-0.2-1.4-0.6-2c-0.2-0.2-0.3-0.4-0.3-0.7
	c0-0.2,0.1-0.3,0.2-0.5c0.2-0.2,0.4-0.3,0.7-0.3c0.2,0,0.4,0.1,0.5,0.2c0.8,0.9,1.3,2.1,1.2,3.3C14.4,237.2,14.1,238.1,13.7,238.9z"
	/>
<path class="st0" d="M13.7,226.6c-0.4,0.8-1,1.4-1.8,1.8c-1.6,0.9-3.6,0.9-5.2,0c-0.8-0.4-1.4-1-1.8-1.8c-0.4-0.8-0.7-1.7-0.6-2.6
	c0-0.9,0.2-1.8,0.6-2.6c0.4-0.7,1-1.4,1.8-1.8c1.6-0.9,3.6-0.9,5.2,0c0.8,0.4,1.4,1,1.8,1.8C14.5,223,14.5,225,13.7,226.6z
	 M12.3,222.4c-0.3-0.5-0.7-0.9-1.2-1.2c-0.5-0.3-1.1-0.4-1.8-0.4c-0.6,0-1.2,0.1-1.8,0.4c-0.5,0.3-0.9,0.7-1.2,1.2
	c-0.6,1-0.6,2.3,0,3.3c0.3,0.5,0.7,0.9,1.2,1.2c0.5,0.3,1.2,0.4,1.8,0.4c0.6,0,1.2-0.1,1.8-0.4c0.5-0.3,0.9-0.7,1.2-1.2
	C12.8,224.7,12.8,223.4,12.3,222.4z"/>
<path class="st0" d="M5.3,201.8c0.8-0.7,1.8-1,2.9-1h5.2c0.2,0,0.5,0.1,0.7,0.3c0.4,0.4,0.4,0.9,0,1.3c-0.2,0.2-0.4,0.3-0.7,0.3H8.2
	c-0.6,0-1.2,0.2-1.7,0.6c-0.4,0.4-0.6,0.9-0.6,1.5c0,0.6,0.2,1.2,0.7,1.6c0.5,0.4,1.1,0.6,1.7,0.6h5.1c0.2,0,0.5,0.1,0.7,0.3
	c0.4,0.4,0.4,0.9,0,1.3c-0.2,0.2-0.4,0.3-0.7,0.3H8.2c-0.6,0-1.2,0.2-1.7,0.6c-0.4,0.4-0.6,0.9-0.6,1.5c0,0.6,0.2,1.2,0.7,1.6
	c0.5,0.4,1.1,0.6,1.7,0.6h5.1c0.2,0,0.5,0.1,0.7,0.3c0.4,0.4,0.4,0.9,0,1.3c-0.2,0.2-0.4,0.3-0.7,0.3H5.3c-0.3,0-0.5-0.1-0.7-0.3
	c-0.2-0.2-0.3-0.4-0.3-0.7c0-0.2,0.1-0.5,0.2-0.7c0.2-0.2,0.4-0.3,0.6-0.3c-0.3-0.3-0.5-0.7-0.7-1.1c-0.2-0.4-0.3-0.9-0.3-1.4
	c0-0.6,0.1-1.1,0.4-1.7c0.2-0.5,0.6-0.9,1.1-1.2c-0.5-0.4-0.8-0.8-1.1-1.4c-0.3-0.6-0.4-1.2-0.4-1.8C4.2,203.4,4.6,202.5,5.3,201.8z
	"/>
<path class="st0" d="M5.3,183.4c0.8-0.7,1.8-1,2.9-1h5.2c0.2,0,0.5,0.1,0.7,0.3c0.4,0.4,0.4,0.9,0,1.3c-0.2,0.2-0.4,0.3-0.7,0.3H8.2
	c-0.6,0-1.2,0.2-1.7,0.6c-0.4,0.4-0.6,0.9-0.6,1.5c0,0.6,0.2,1.2,0.7,1.6c0.5,0.4,1.1,0.6,1.7,0.6h5.1c0.2,0,0.5,0.1,0.7,0.3
	c0.4,0.4,0.4,0.9,0,1.3c-0.2,0.2-0.4,0.3-0.7,0.3H8.2c-0.6,0-1.2,0.2-1.7,0.6c-0.4,0.4-0.6,0.9-0.6,1.5c0,0.6,0.2,1.2,0.7,1.6
	c0.5,0.4,1.1,0.6,1.7,0.6h5.1c0.2,0,0.5,0.1,0.7,0.3c0.4,0.4,0.4,0.9,0,1.3c-0.2,0.2-0.4,0.3-0.7,0.3H5.3c-0.3,0-0.5-0.1-0.7-0.3
	c-0.2-0.2-0.3-0.4-0.3-0.7c0-0.2,0.1-0.5,0.2-0.7c0.2-0.2,0.4-0.3,0.6-0.3c-0.3-0.3-0.5-0.7-0.7-1.1c-0.2-0.4-0.3-0.9-0.3-1.4
	c0-0.6,0.1-1.1,0.4-1.7c0.2-0.5,0.6-0.9,1.1-1.2c-0.5-0.4-0.8-0.8-1.1-1.4c-0.3-0.6-0.4-1.2-0.4-1.8C4.2,185,4.6,184.1,5.3,183.4z"
	/>
<path class="st0" d="M4.6,169.1c0.2-0.2,0.4-0.3,0.7-0.3h8.1c0.2,0,0.5,0.1,0.7,0.3c0.4,0.4,0.4,1,0,1.3c-0.2,0.2-0.4,0.3-0.7,0.3
	h-0.2c0.4,0.4,0.7,0.9,0.9,1.4c0.2,0.5,0.3,1.1,0.3,1.7c0,0.8-0.2,1.6-0.5,2.3c-0.4,0.7-0.9,1.2-1.6,1.6c-0.8,0.4-1.6,0.6-2.5,0.6
	H5.3c-0.5,0-1-0.3-1-0.8c0-0.5,0.3-1,0.8-1c0.1,0,0.1,0,0.2,0h4.5c1.5,0.2,2.8-0.9,3-2.4c0-0.2,0-0.4,0-0.5c0-0.5-0.1-1-0.3-1.4
	c-0.2-0.4-0.5-0.7-0.8-1c-0.3-0.2-0.8-0.4-1.2-0.4H5.3c-0.3,0-0.5-0.1-0.7-0.3C4.2,170.1,4.2,169.5,4.6,169.1L4.6,169.1z"/>
<path class="st0" d="M4.7,157c0.4-0.7,0.9-1.2,1.6-1.6c0.8-0.4,1.6-0.6,2.5-0.6h4.5c0.5,0,1,0.3,1,0.8c0,0.5-0.3,1-0.8,1
	c-0.1,0-0.1,0-0.2,0H8.9c-1.5-0.2-2.8,0.9-3,2.4c0,0.2,0,0.4,0,0.5c0,0.5,0.1,1,0.3,1.4c0.2,0.4,0.5,0.7,0.8,1
	c0.3,0.2,0.8,0.4,1.2,0.4h5.1c0.2,0,0.5,0.1,0.7,0.3c0.4,0.4,0.4,0.9,0,1.3c-0.2,0.2-0.4,0.3-0.7,0.3H5.2c-0.3,0-0.5-0.1-0.7-0.3
	c-0.4-0.3-0.4-0.9,0-1.3c0.2-0.2,0.5-0.3,0.7-0.3h0.2c-0.4-0.4-0.7-0.9-0.9-1.4c-0.2-0.5-0.3-1.1-0.3-1.7
	C4.2,158.5,4.4,157.7,4.7,157z"/>
<path class="st0" d="M2.3,150.2c-0.5,0.5-1.2,0.5-1.7,0c-0.5-0.5-0.5-1.2,0-1.7s1.2-0.5,1.7,0c0.2,0.2,0.3,0.5,0.3,0.8
	C2.7,149.6,2.5,149.9,2.3,150.2z M14,150c-0.2,0.2-0.4,0.3-0.7,0.3H5.2c-0.3,0-0.5-0.1-0.7-0.3c-0.4-0.3-0.4-0.9,0-1.3
	c0.2-0.2,0.5-0.3,0.7-0.3h8.1c0.2,0,0.5,0.1,0.7,0.3C14.3,149,14.3,149.6,14,150L14,150z"/>
<path class="st0" d="M13.7,141.6c-0.4,0.8-1.1,1.4-1.8,1.8c-0.8,0.4-1.7,0.7-2.6,0.6c-0.9,0-1.8-0.2-2.6-0.6c-0.8-0.4-1.4-1-1.8-1.8
	c-0.4-0.8-0.7-1.7-0.6-2.5c0-1.4,0.6-2.7,1.6-3.6c0.1-0.1,0.3-0.2,0.5-0.2c0.3,0,0.6,0.1,0.7,0.4c0.1,0.1,0.1,0.3,0.1,0.4
	c0,0.3-0.1,0.5-0.3,0.7c-0.3,0.3-0.5,0.6-0.7,1c-0.2,0.4-0.2,0.8-0.2,1.2c0,0.9,0.3,1.7,0.9,2.3c0.7,0.6,1.6,0.9,2.5,0.9
	c0.6,0,1.2-0.1,1.8-0.4c0.5-0.3,0.9-0.7,1.2-1.2c0.3-0.5,0.4-1.1,0.4-1.7c0-0.7-0.2-1.4-0.6-2c-0.2-0.2-0.3-0.4-0.3-0.7
	c0-0.2,0.1-0.3,0.2-0.5c0.2-0.2,0.4-0.3,0.7-0.3c0.2,0,0.4,0.1,0.5,0.2c0.8,0.9,1.3,2.1,1.2,3.3C14.4,139.9,14.1,140.8,13.7,141.6z"
	/>
<path class="st0" d="M4.9,124.2c0.4-0.8,1.1-1.4,1.8-1.8c0.8-0.4,1.7-0.7,2.6-0.7h4.1c0.5,0,1,0.3,1,0.8c0,0.5-0.3,1-0.8,1
	c-0.1,0-0.1,0-0.2,0h-0.7c1.7,1.4,2.2,3.9,1,5.9c-0.4,0.7-1.1,1.3-1.8,1.7c-0.8,0.4-1.7,0.6-2.6,0.6c-0.9,0-1.8-0.2-2.6-0.7
	c-0.8-0.4-1.4-1.1-1.8-1.8c-0.4-0.8-0.7-1.7-0.7-2.6C4.2,125.8,4.4,125,4.9,124.2z M12.2,125.1c-0.3-0.5-0.7-0.9-1.2-1.2
	c-0.5-0.3-1.1-0.4-1.7-0.4c-0.6,0-1.2,0.1-1.8,0.4c-1.6,0.8-2.1,2.8-1.3,4.3c0,0,0,0.1,0.1,0.1c0.3,0.5,0.7,0.9,1.2,1.2
	c0.5,0.3,1.1,0.4,1.8,0.4c0.6,0,1.2-0.1,1.7-0.4c0.5-0.3,0.9-0.7,1.2-1.2C12.8,127.4,12.8,126.1,12.2,125.1z"/>
<path class="st0" d="M12.7,112.8c0.2-0.2,0.4-0.2,0.7-0.2c0.3,0,0.5,0.1,0.7,0.3c0.2,0.2,0.3,0.5,0.3,0.8v0.4c0,0.6-0.2,1.1-0.5,1.6
	c-0.3,0.5-0.7,0.9-1.3,1.2c-0.6,0.3-1.2,0.4-1.8,0.4H6.2v0.8c0,0.2-0.1,0.5-0.2,0.6c-0.1,0.2-0.3,0.2-0.5,0.2
	c-0.2,0-0.4-0.1-0.6-0.2c-0.2-0.2-0.2-0.4-0.2-0.6v-0.9H2c-0.5,0-0.9-0.4-0.9-0.9c0-0.5,0.4-0.9,0.9-0.9h2.6v-1.5
	c0-0.2,0.1-0.5,0.2-0.6c0.2-0.2,0.4-0.2,0.6-0.2c0.2,0,0.4,0.1,0.5,0.2c0.2,0.2,0.2,0.4,0.2,0.6v1.5h4.5c0.4,0,0.9-0.1,1.2-0.4
	c0.3-0.2,0.5-0.6,0.5-1v-0.6C12.4,113.1,12.5,112.9,12.7,112.8z"/>
<path class="st0" d="M2.3,108.7c-0.5,0.5-1.2,0.5-1.7,0c-0.5-0.5-0.5-1.2,0-1.7s1.2-0.5,1.7,0c0.2,0.2,0.3,0.5,0.3,0.8
	C2.7,108.1,2.5,108.4,2.3,108.7z M14,108.5c-0.2,0.2-0.4,0.3-0.7,0.3H5.2c-0.3,0-0.5-0.1-0.7-0.3c-0.4-0.3-0.4-0.9,0-1.3
	c0.2-0.2,0.5-0.3,0.7-0.3h8.1c0.2,0,0.5,0.1,0.7,0.3C14.3,107.5,14.3,108.1,14,108.5L14,108.5z"/>
<path class="st0" d="M13.7,100.2c-0.4,0.8-1,1.4-1.8,1.8c-1.6,0.9-3.6,0.9-5.2,0c-0.8-0.4-1.4-1-1.8-1.8c-0.4-0.8-0.7-1.7-0.6-2.6
	c0-0.9,0.2-1.8,0.6-2.6c0.4-0.7,1.1-1.4,1.8-1.8c1.6-0.9,3.6-0.9,5.2,0c0.7,0.4,1.4,1,1.8,1.8C14.5,96.6,14.5,98.5,13.7,100.2
	L13.7,100.2z M12.3,95.9C12,95.4,11.6,95,11,94.8c-0.5-0.3-1.1-0.4-1.8-0.4c-0.6,0-1.2,0.1-1.8,0.4C7,95,6.6,95.4,6.3,95.9
	c-0.6,1-0.6,2.3,0,3.3c0.3,0.5,0.7,0.9,1.2,1.2c0.5,0.3,1.2,0.4,1.8,0.4c0.6,0,1.2-0.1,1.8-0.4c0.5-0.3,0.9-0.7,1.2-1.2
	C12.8,98.2,12.8,97,12.3,95.9z"/>
<path class="st0" d="M4.7,81.2c0.4-0.7,0.9-1.2,1.6-1.6c0.8-0.4,1.6-0.6,2.5-0.6h4.5c0.5,0,1,0.3,1,0.8c0,0.5-0.3,1-0.8,1
	c-0.1,0-0.1,0-0.2,0H8.9c-1.5-0.2-2.8,0.9-3,2.4c0,0.2,0,0.4,0,0.5c0,0.5,0.1,1,0.3,1.4c0.2,0.4,0.5,0.7,0.8,1
	c0.3,0.2,0.8,0.4,1.2,0.4h5.1c0.2,0,0.5,0.1,0.7,0.3c0.4,0.4,0.4,0.9,0,1.3c-0.2,0.2-0.4,0.3-0.7,0.3H5.2c-0.3,0-0.5-0.1-0.7-0.3
	c-0.4-0.3-0.4-0.9,0-1.3c0.2-0.2,0.5-0.3,0.7-0.3h0.2c-0.4-0.4-0.7-0.9-0.9-1.4c-0.2-0.5-0.3-1.1-0.3-1.7
	C4.2,82.7,4.4,81.9,4.7,81.2z"/>
<path class="st0" d="M0.3,58.7c0.2-0.2,0.4-0.3,0.7-0.3h8.3c0.9,0,1.8,0.2,2.6,0.7c1.6,0.9,2.5,2.6,2.5,4.3c0,0.9-0.2,1.8-0.7,2.6
	c-0.4,0.8-1.1,1.4-1.8,1.8c-0.8,0.4-1.7,0.7-2.6,0.7c-0.9,0-1.8-0.2-2.6-0.6c-0.7-0.4-1.4-1-1.8-1.7c-0.4-0.7-0.7-1.5-0.7-2.4
	c0-1.4,0.6-2.7,1.7-3.5H1c-0.3,0-0.5-0.1-0.7-0.3C-0.1,59.6-0.1,59,0.3,58.7L0.3,58.7z M12.2,61.8c-0.3-0.5-0.7-0.9-1.2-1.2
	c-0.5-0.3-1.1-0.4-1.8-0.4c-0.6,0-1.2,0.1-1.7,0.4C6,61.5,5.4,63.4,6.2,65c0,0,0,0.1,0.1,0.1C6.6,65.6,7,66,7.5,66.2
	c0.5,0.3,1.1,0.4,1.7,0.4c0.6,0,1.2-0.1,1.8-0.4c0.5-0.3,0.9-0.7,1.2-1.2C12.8,64.1,12.8,62.8,12.2,61.8z"/>
<path class="st0" d="M9.7,45.1c0.2,0.2,0.2,0.4,0.2,0.6v6.9c0.8-0.1,1.5-0.5,2.1-1.2c0.5-0.7,0.8-1.5,0.8-2.4c0-0.4-0.1-0.8-0.2-1.1
	c-0.1-0.3-0.3-0.7-0.5-1c-0.1-0.2-0.2-0.4-0.2-0.6c0-0.2,0.1-0.4,0.2-0.5c0.1-0.2,0.4-0.3,0.6-0.3c0.2,0,0.4,0.1,0.5,0.3
	c0.4,0.5,0.6,1,0.8,1.5c0.5,1.5,0.4,3.1-0.3,4.4c-0.4,0.8-1,1.4-1.8,1.8c-0.8,0.5-1.7,0.7-2.6,0.7c-0.9,0-1.8-0.2-2.6-0.6
	c-0.8-0.4-1.4-1-1.8-1.7c-0.4-0.8-0.7-1.7-0.6-2.5c0-0.8,0.2-1.7,0.6-2.4c0.4-0.7,1-1.2,1.7-1.6c0.8-0.4,1.7-0.6,2.5-0.6
	C9.3,44.8,9.5,44.9,9.7,45.1z M6.5,51.5c0.5,0.6,1.2,1,1.9,1.1v-6.1c-0.7,0.1-1.4,0.4-1.9,0.9c-0.5,0.5-0.7,1.2-0.7,1.9
	C5.8,50.2,6,50.9,6.5,51.5L6.5,51.5z"/>
<path class="st0" d="M13.9,39.8c-0.2,0.6-0.5,1.2-1,1.7c-0.1,0.2-0.4,0.2-0.6,0.2c-0.3,0-0.5-0.1-0.7-0.4c-0.1-0.2-0.2-0.4-0.3-0.6
	c0-0.3,0.1-0.5,0.3-0.7c0.3-0.3,0.5-0.6,0.7-1c0.2-0.5,0.3-1,0.3-1.5c0-0.6-0.1-1.1-0.4-1.6c-0.2-0.3-0.5-0.6-0.9-0.6
	c-0.4,0-0.7,0.2-0.9,0.6c-0.3,0.6-0.5,1.2-0.6,1.9c-0.5,2.4-1.4,3.5-2.9,3.5c-0.6,0-1.1-0.2-1.5-0.5C5,40.5,4.7,40,4.5,39.4
	c-0.2-0.6-0.3-1.2-0.3-1.8c0-0.7,0.1-1.4,0.4-2.1c0.2-0.6,0.6-1.1,1.1-1.5c0.2-0.1,0.4-0.2,0.6-0.2c0.2,0,0.4,0.1,0.6,0.3
	c0.1,0.1,0.2,0.3,0.1,0.5c0,0.3-0.1,0.6-0.3,0.9c-0.3,0.3-0.5,0.6-0.6,1c-0.1,0.4-0.2,0.8-0.2,1.2c0,0.5,0.1,0.9,0.3,1.4
	c0.1,0.3,0.4,0.5,0.8,0.5c0.2,0,0.4-0.1,0.6-0.2c0.2-0.2,0.4-0.4,0.5-0.7c0.2-0.5,0.3-1,0.4-1.5c0.1-1,0.5-2,1.1-2.8
	c0.5-0.6,1.1-0.9,1.9-0.8c0.5,0,1.1,0.2,1.5,0.5c0.5,0.3,0.9,0.8,1.1,1.3c0.3,0.7,0.4,1.4,0.4,2.1C14.3,38.3,14.2,39.1,13.9,39.8z"
	/>
<path class="st0" d="M2.3,29.6c-0.2,0.2-0.5,0.4-0.8,0.4c-0.3,0-0.6-0.1-0.8-0.4c-0.2-0.2-0.4-0.5-0.4-0.8c0-0.3,0.1-0.6,0.4-0.8
	c0.2-0.2,0.5-0.4,0.8-0.4c0.3,0,0.6,0.1,0.8,0.4c0.2,0.2,0.4,0.5,0.4,0.8C2.7,29.1,2.5,29.4,2.3,29.6z M14,29.4
	c-0.2,0.2-0.4,0.3-0.7,0.3H5.2c-0.3,0-0.5-0.1-0.7-0.3c-0.2-0.2-0.3-0.4-0.3-0.7c0-0.3,0.1-0.5,0.3-0.7c0.2-0.2,0.4-0.3,0.7-0.3h8.1
	c0.2,0,0.5,0.1,0.7,0.3c0.2,0.2,0.3,0.4,0.3,0.7C14.3,29,14.2,29.2,14,29.4L14,29.4z"/>
<path class="st0" d="M4.9,15.9c0.4-0.8,1.1-1.4,1.8-1.8c0.8-0.4,1.7-0.7,2.6-0.6h3.9c0.9,0,1.8,0.2,2.6,0.6c0.8,0.4,1.4,1,1.8,1.8
	c0.5,0.8,0.7,1.7,0.7,2.6c0,0.8-0.2,1.7-0.5,2.4c-0.3,0.7-0.8,1.4-1.5,1.9C16.3,23,16.1,23,15.9,23c-0.3,0-0.5-0.2-0.7-0.4
	c-0.1-0.1-0.2-0.3-0.2-0.5c0-0.3,0.1-0.6,0.4-0.7c0.4-0.3,0.7-0.8,1-1.3c0.2-0.5,0.3-1.1,0.3-1.7c0-0.6-0.1-1.1-0.4-1.6
	c-0.3-0.5-0.7-0.9-1.3-1.2c-0.6-0.3-1.3-0.5-2-0.4h-0.9c0.6,0.4,1.2,0.9,1.5,1.5c0.4,0.6,0.6,1.4,0.6,2.1c0,0.8-0.2,1.7-0.6,2.4
	c-0.4,0.7-1.1,1.3-1.8,1.7c-0.8,0.4-1.7,0.6-2.6,0.6c-0.9,0-1.8-0.2-2.6-0.6c-0.8-0.4-1.4-1-1.8-1.8c-0.4-0.8-0.7-1.7-0.6-2.6
	C4.2,17.6,4.4,16.7,4.9,15.9z M12.2,16.8c-0.3-0.5-0.7-0.9-1.2-1.2c-0.5-0.3-1.1-0.4-1.8-0.4c-0.6,0-1.2,0.1-1.8,0.4
	c-0.5,0.3-0.9,0.7-1.2,1.2c-0.3,0.5-0.4,1.1-0.4,1.7c0,0.6,0.1,1.2,0.4,1.7C6.6,20.6,7,21,7.5,21.3c0.5,0.3,1.2,0.4,1.8,0.4
	c0.6,0,1.2-0.1,1.8-0.4c0.5-0.3,0.9-0.7,1.2-1.2c0.3-0.5,0.4-1.1,0.4-1.7C12.7,17.9,12.5,17.3,12.2,16.8z"/>
<path class="st0" d="M4.7,2.1c0.4-0.7,0.9-1.2,1.6-1.6C7.1,0.2,8,0,8.9,0h4.5c0.2,0,0.5,0.1,0.7,0.3c0.2,0.2,0.3,0.4,0.3,0.7
	c0,0.2-0.1,0.5-0.3,0.7c-0.2,0.2-0.4,0.3-0.7,0.3H8.9C8,1.8,7.2,2.1,6.6,2.6C6.1,3.2,5.8,4,5.9,4.8c0,0.5,0.1,1,0.3,1.4
	c0.2,0.4,0.5,0.7,0.8,1c0.3,0.2,0.8,0.4,1.2,0.4h5.1c0.2,0,0.5,0.1,0.7,0.3c0.2,0.2,0.3,0.4,0.3,0.7c0,0.2-0.1,0.5-0.3,0.7
	c-0.2,0.2-0.4,0.3-0.7,0.3H5.2C5,9.4,4.7,9.3,4.5,9.1C4.3,8.9,4.3,8.7,4.3,8.5c0-0.3,0.1-0.5,0.3-0.7C4.7,7.6,5,7.5,5.2,7.5h0.2
	C5,7.1,4.7,6.6,4.5,6.1C4.3,5.5,4.2,5,4.2,4.4C4.2,3.6,4.4,2.8,4.7,2.1z"/>
</svg>
