<svg id="图层_1" data-name="图层 1" xmlns="http://www.w3.org/2000/svg" viewBox="0 0 26 341.94"><defs><style>.cls-1{fill:#fff;}</style></defs><title>communicationicon</title><path class="cls-1" d="M700.9,278a6.63,6.63,0,0,1-2.57,2.54,7.35,7.35,0,0,1-3.65.92,7.64,7.64,0,0,1-3.7-.89,6.41,6.41,0,0,1-2.55-2.49,7.14,7.14,0,0,1-.92-3.61,6.41,6.41,0,0,1,2.32-5.06,1,1,0,0,1,.67-.26,1.13,1.13,0,0,1,1,.57,1,1,0,0,1,.18.59,1.3,1.3,0,0,1-.46,1,4.11,4.11,0,0,0-1,1.41,4.44,4.44,0,0,0-.32,1.74,4.2,4.2,0,0,0,1.33,3.22,5,5,0,0,0,3.52,1.24,5.24,5.24,0,0,0,2.49-.58,4.3,4.3,0,0,0,1.72-1.63,4.6,4.6,0,0,0,.62-2.39,4.28,4.28,0,0,0-.9-2.84,1.62,1.62,0,0,1-.36-1,1.1,1.1,0,0,1,.23-.67,1.2,1.2,0,0,1,.93-.49,1,1,0,0,1,.7.31,6.55,6.55,0,0,1,1.73,4.64A7.25,7.25,0,0,1,700.9,278Z" transform="translate(-681.58 60.53)"/><path class="cls-1" d="M700.91,260.54a6.46,6.46,0,0,1-2.54,2.53,8,8,0,0,1-7.4,0,6.47,6.47,0,0,1-2.54-2.53,7.38,7.38,0,0,1-.92-3.69,7.26,7.26,0,0,1,.92-3.65,6.6,6.6,0,0,1,2.54-2.53,8,8,0,0,1,7.4,0,6.5,6.5,0,0,1,2.54,2.51,7.85,7.85,0,0,1,0,7.36Zm-2-6a4.3,4.3,0,0,0-1.72-1.63,5.24,5.24,0,0,0-2.49-.58,5.32,5.32,0,0,0-2.5.58,4.28,4.28,0,0,0-1.73,1.63,4.81,4.81,0,0,0,0,4.72,4.36,4.36,0,0,0,1.73,1.64,5.2,5.2,0,0,0,2.5.59,5.13,5.13,0,0,0,2.49-.59,4.38,4.38,0,0,0,1.72-1.64,4.82,4.82,0,0,0,0-4.72Z" transform="translate(-681.58 60.53)"/><path class="cls-1" d="M689,225.45a5.76,5.76,0,0,1,4.1-1.38h7.38a1.3,1.3,0,0,1,.94.36,1.32,1.32,0,0,1-.94,2.27h-7.38a3.3,3.3,0,0,0-2.39.79,2.79,2.79,0,0,0-.81,2.1,2.88,2.88,0,0,0,.93,2.2,3.34,3.34,0,0,0,2.37.86h7.27a1.3,1.3,0,0,1,.94.36,1.32,1.32,0,0,1-.94,2.27h-7.38a3.3,3.3,0,0,0-2.39.79,2.79,2.79,0,0,0-.81,2.1,2.91,2.91,0,0,0,.93,2.23,3.34,3.34,0,0,0,2.37.86h7.27a1.3,1.3,0,0,1,.94.36,1.32,1.32,0,0,1-.94,2.27H689a1.26,1.26,0,0,1-1-.37,1.3,1.3,0,0,1-.36-.94,1.29,1.29,0,0,1,.35-.93,1.3,1.3,0,0,1,.92-.39,4.75,4.75,0,0,1-1-1.6,5.35,5.35,0,0,1-.37-2,5.16,5.16,0,0,1,.53-2.36,4.52,4.52,0,0,1,1.51-1.71,5.4,5.4,0,0,1-1.5-1.93,6,6,0,0,1-.54-2.58A4.74,4.74,0,0,1,689,225.45Z" transform="translate(-681.58 60.53)"/><path class="cls-1" d="M689,199.32a5.76,5.76,0,0,1,4.1-1.38h7.38a1.3,1.3,0,0,1,.94.36,1.32,1.32,0,0,1-.94,2.27h-7.38a3.3,3.3,0,0,0-2.39.79,2.79,2.79,0,0,0-.81,2.1,2.88,2.88,0,0,0,.93,2.2,3.34,3.34,0,0,0,2.37.86h7.27a1.3,1.3,0,0,1,.94.36,1.32,1.32,0,0,1-.94,2.27h-7.38a3.3,3.3,0,0,0-2.39.79,2.79,2.79,0,0,0-.81,2.1,2.91,2.91,0,0,0,.93,2.23,3.34,3.34,0,0,0,2.37.86h7.27a1.3,1.3,0,0,1,.94.36,1.32,1.32,0,0,1-.94,2.27H689a1.26,1.26,0,0,1-1-.37,1.3,1.3,0,0,1-.36-.94,1.29,1.29,0,0,1,.35-.93,1.3,1.3,0,0,1,.92-.39,4.75,4.75,0,0,1-1-1.6,5.35,5.35,0,0,1-.37-2,5.16,5.16,0,0,1,.53-2.36,4.52,4.52,0,0,1,1.51-1.71,5.4,5.4,0,0,1-1.5-1.93,6,6,0,0,1-.54-2.58A4.74,4.74,0,0,1,689,199.32Z" transform="translate(-681.58 60.53)"/><path class="cls-1" d="M688,179.06a1.29,1.29,0,0,1,1-.36h11.5a1.3,1.3,0,0,1,.94.36,1.39,1.39,0,0,1,0,1.9,1.28,1.28,0,0,1-.94.37h-.28a5.73,5.73,0,0,1,1.28,2,6.49,6.49,0,0,1,.45,2.43,6.58,6.58,0,0,1-.77,3.2,5.44,5.44,0,0,1-2.26,2.22,7.42,7.42,0,0,1-3.57.8h-6.35a1.32,1.32,0,1,1,0-2.63h6.35a3.81,3.81,0,0,0,4.23-4.1,4.38,4.38,0,0,0-.44-2,3.48,3.48,0,0,0-1.19-1.39,2.93,2.93,0,0,0-1.68-.5h-7.27a1.27,1.27,0,0,1-1-.37,1.43,1.43,0,0,1,0-1.9Z" transform="translate(-681.58 60.53)"/><path class="cls-1" d="M688.26,161.91a5.45,5.45,0,0,1,2.26-2.22,7.44,7.44,0,0,1,3.57-.8h6.35a1.32,1.32,0,1,1,0,2.63h-6.35a3.81,3.81,0,0,0-4.23,4.1,4.4,4.4,0,0,0,.44,2,3.51,3.51,0,0,0,1.19,1.39,2.93,2.93,0,0,0,1.68.5h7.27a1.3,1.3,0,0,1,.94.36,1.32,1.32,0,0,1-.94,2.27h-11.5a1.27,1.27,0,0,1-1-.37,1.31,1.31,0,0,1,1-2.26h.28a5.76,5.76,0,0,1-1.28-2,6.5,6.5,0,0,1-.45-2.42A6.57,6.57,0,0,1,688.26,161.91Z" transform="translate(-681.58 60.53)"/><path class="cls-1" d="M684.82,152.23a1.68,1.68,0,1,1,.5-1.2A1.64,1.64,0,0,1,684.82,152.23Zm16.53-.26a1.28,1.28,0,0,1-.94.37H688.93a1.27,1.27,0,0,1-1-.37,1.31,1.31,0,0,1,1-2.26h11.48a1.3,1.3,0,0,1,.94.36,1.39,1.39,0,0,1,0,1.9Z" transform="translate(-681.58 60.53)"/><path class="cls-1" d="M700.9,140.14a6.63,6.63,0,0,1-2.57,2.54,7.35,7.35,0,0,1-3.65.92,7.64,7.64,0,0,1-3.7-.89,6.41,6.41,0,0,1-2.55-2.49,7.14,7.14,0,0,1-.92-3.61,6.41,6.41,0,0,1,2.32-5.06,1,1,0,0,1,.67-.26,1.13,1.13,0,0,1,1,.57,1,1,0,0,1,.18.59,1.3,1.3,0,0,1-.46,1,4.11,4.11,0,0,0-1,1.41,4.44,4.44,0,0,0-.32,1.74,4.2,4.2,0,0,0,1.33,3.22,5,5,0,0,0,3.52,1.24,5.24,5.24,0,0,0,2.49-.58,4.3,4.3,0,0,0,1.72-1.63,4.6,4.6,0,0,0,.62-2.39,4.28,4.28,0,0,0-.9-2.84,1.62,1.62,0,0,1-.36-1,1.1,1.1,0,0,1,.23-.67,1.2,1.2,0,0,1,.93-.49,1,1,0,0,1,.7.31,6.55,6.55,0,0,1,1.73,4.64A7.25,7.25,0,0,1,700.9,140.14Z" transform="translate(-681.58 60.53)"/><path class="cls-1" d="M688.45,115.44a6.94,6.94,0,0,1,2.58-2.55,7.19,7.19,0,0,1,3.65-.94h5.75a1.32,1.32,0,1,1,0,2.63h-1a6.49,6.49,0,0,1,1.42,8.34,6.51,6.51,0,0,1-2.57,2.37,7.69,7.69,0,0,1-3.65.86,7.26,7.26,0,0,1-3.65-.93,6.77,6.77,0,0,1-2.58-2.57,7.13,7.13,0,0,1-.94-3.62A7,7,0,0,1,688.45,115.44Zm10.42,1.26a4.45,4.45,0,0,0-1.73-1.64,5.09,5.09,0,0,0-2.46-.59,5.17,5.17,0,0,0-2.48.59,4.54,4.54,0,0,0-1.74,6.31,4.52,4.52,0,0,0,1.74,1.65,5.07,5.07,0,0,0,2.48.61,5,5,0,0,0,2.46-.61,4.55,4.55,0,0,0,1.73-1.65,4.63,4.63,0,0,0,0-4.67Z" transform="translate(-681.58 60.53)"/><path class="cls-1" d="M699.51,99.3a1.34,1.34,0,0,1,.93-.32,1.16,1.16,0,0,1,.93.42,1.63,1.63,0,0,1,.36,1.1V101a4.25,4.25,0,0,1-.66,2.31,4.58,4.58,0,0,1-1.79,1.64,5.43,5.43,0,0,1-2.55.59h-6.37v1.19a1.24,1.24,0,0,1-.31.88,1,1,0,0,1-.77.34,1.07,1.07,0,0,1-.83-.34,1.25,1.25,0,0,1-.31-.88V105.5h-3.71a1.29,1.29,0,1,1,0-2.58h3.71v-2.19a1.24,1.24,0,0,1,.31-.88,1.07,1.07,0,0,1,.83-.34,1,1,0,0,1,.77.34,1.24,1.24,0,0,1,.31.88v2.19h6.37a2.66,2.66,0,0,0,1.73-.57,1.74,1.74,0,0,0,.7-1.39v-.88A1,1,0,0,1,699.51,99.3Z" transform="translate(-681.58 60.53)"/><path class="cls-1" d="M684.82,93.44a1.68,1.68,0,1,1,.5-1.2A1.64,1.64,0,0,1,684.82,93.44Zm16.53-.26a1.28,1.28,0,0,1-.94.37H688.93a1.27,1.27,0,0,1-1-.37,1.31,1.31,0,0,1,1-2.26h11.48a1.3,1.3,0,0,1,.94.36,1.39,1.39,0,0,1,0,1.9Z" transform="translate(-681.58 60.53)"/><path class="cls-1" d="M700.91,81.38a6.46,6.46,0,0,1-2.54,2.53,8,8,0,0,1-7.4,0,6.47,6.47,0,0,1-2.54-2.53,7.38,7.38,0,0,1-.92-3.69,7.26,7.26,0,0,1,.92-3.65A6.6,6.6,0,0,1,691,71.52a8,8,0,0,1,7.4,0A6.5,6.5,0,0,1,700.91,74a7.85,7.85,0,0,1,0,7.36Zm-2-6a4.3,4.3,0,0,0-1.72-1.63,5.24,5.24,0,0,0-2.49-.58,5.32,5.32,0,0,0-2.5.58,4.28,4.28,0,0,0-1.73,1.63,4.81,4.81,0,0,0,0,4.72,4.36,4.36,0,0,0,1.73,1.64,5.2,5.2,0,0,0,2.5.59,5.13,5.13,0,0,0,2.49-.59,4.38,4.38,0,0,0,1.72-1.64,4.82,4.82,0,0,0,0-4.72Z" transform="translate(-681.58 60.53)"/><path class="cls-1" d="M688.26,54.53a5.45,5.45,0,0,1,2.26-2.22,7.44,7.44,0,0,1,3.57-.8h6.35a1.32,1.32,0,1,1,0,2.63h-6.35a3.81,3.81,0,0,0-4.23,4.1,4.4,4.4,0,0,0,.44,2,3.51,3.51,0,0,0,1.19,1.39,2.93,2.93,0,0,0,1.68.5h7.27a1.3,1.3,0,0,1,.94.36,1.32,1.32,0,0,1-.94,2.27h-11.5a1.27,1.27,0,0,1-1-.37,1.31,1.31,0,0,1,1-2.26h.28a5.76,5.76,0,0,1-1.28-2,6.5,6.5,0,0,1-.45-2.42A6.57,6.57,0,0,1,688.26,54.53Z" transform="translate(-681.58 60.53)"/><path class="cls-1" d="M681.94,22.6a1.29,1.29,0,0,1,1-.36h11.76a7.2,7.2,0,0,1,3.65.94,7,7,0,0,1,3.52,6.15,7.13,7.13,0,0,1-.94,3.62,6.77,6.77,0,0,1-2.58,2.57,7.27,7.27,0,0,1-3.65.93,7.7,7.7,0,0,1-3.65-.86,6.51,6.51,0,0,1-2.57-2.37,6.29,6.29,0,0,1-.93-3.37,6.34,6.34,0,0,1,2.35-5h-7a1.27,1.27,0,0,1-1-.37,1.43,1.43,0,0,1,0-1.9ZM698.87,27a4.43,4.43,0,0,0-1.74-1.64,5.17,5.17,0,0,0-2.48-.59,5.09,5.09,0,0,0-2.46.59,4.55,4.55,0,0,0-1.73,6.31,4.55,4.55,0,0,0,1.73,1.65,5,5,0,0,0,2.46.61,5.07,5.07,0,0,0,2.48-.61,4.52,4.52,0,0,0,1.74-1.65,4.63,4.63,0,0,0,0-4.67Z" transform="translate(-681.58 60.53)"/><path class="cls-1" d="M695.26,3.33a1.18,1.18,0,0,1,.32.85V14a4.54,4.54,0,0,0,2.91-1.64A5.06,5.06,0,0,0,699.61,9a5,5,0,0,0-.28-1.61,4.81,4.81,0,0,0-.7-1.38,1.34,1.34,0,0,1-.28-.85,1.11,1.11,0,0,1,.26-.77,1.13,1.13,0,0,1,.88-.46.94.94,0,0,1,.77.41,7.18,7.18,0,0,1,1.14,2.18,7.87,7.87,0,0,1-.48,6.28,6.63,6.63,0,0,1-2.54,2.62,7.22,7.22,0,0,1-3.69.94,7.64,7.64,0,0,1-3.7-.89A6.44,6.44,0,0,1,688.43,13a7.06,7.06,0,0,1-.92-3.6A6.49,6.49,0,0,1,688.39,6a5.79,5.79,0,0,1,2.45-2.22A8.09,8.09,0,0,1,694.45,3,1.08,1.08,0,0,1,695.26,3.33Zm-4.5,9.14A4.63,4.63,0,0,0,693.52,14V5.37a4.57,4.57,0,0,0-2.76,1.29,3.79,3.79,0,0,0-1,2.76A4.46,4.46,0,0,0,690.76,12.48Z" transform="translate(-681.58 60.53)"/><path class="cls-1" d="M701.29-4.12a6.33,6.33,0,0,1-1.42,2.43,1.09,1.09,0,0,1-.8.34,1.2,1.2,0,0,1-1-.52,1.56,1.56,0,0,1-.36-.9,1.38,1.38,0,0,1,.46-1,4,4,0,0,0,.94-1.47,5.47,5.47,0,0,0,.4-2.09A4.44,4.44,0,0,0,699-9.6a1.49,1.49,0,0,0-1.32-.81,1.56,1.56,0,0,0-1.33.8,7.88,7.88,0,0,0-.89,2.71q-1,5-4.08,5a3.19,3.19,0,0,1-2.14-.75,4.55,4.55,0,0,1-1.32-2,7.54,7.54,0,0,1-.44-2.58,7.89,7.89,0,0,1,.54-3,5.11,5.11,0,0,1,1.5-2.1,1.31,1.31,0,0,1,.83-.34,1,1,0,0,1,.8.44,1.2,1.2,0,0,1,.21.72,1.76,1.76,0,0,1-.49,1.21,3.86,3.86,0,0,0-.84,1.37,5.52,5.52,0,0,0-.24,1.75,4.17,4.17,0,0,0,.4,1.95,1.23,1.23,0,0,0,1.12.76,1.41,1.41,0,0,0,.86-.26,2.3,2.3,0,0,0,.65-1,12.52,12.52,0,0,0,.58-2.09,9,9,0,0,1,1.57-4A3.27,3.27,0,0,1,697.6-13a3.79,3.79,0,0,1,2.15.65,4.28,4.28,0,0,1,1.52,1.9,7.37,7.37,0,0,1,.56,3A9.91,9.91,0,0,1,701.29-4.12Z" transform="translate(-681.58 60.53)"/><path class="cls-1" d="M684.82-18.6a1.64,1.64,0,0,1-1.2.5,1.64,1.64,0,0,1-1.2-.5,1.64,1.64,0,0,1-.5-1.2,1.64,1.64,0,0,1,.5-1.2,1.64,1.64,0,0,1,1.2-.5,1.64,1.64,0,0,1,1.2.5,1.64,1.64,0,0,1,.5,1.2A1.64,1.64,0,0,1,684.82-18.6Zm16.53-.26a1.28,1.28,0,0,1-.94.37H688.93a1.27,1.27,0,0,1-1-.37,1.3,1.3,0,0,1-.36-.94,1.29,1.29,0,0,1,.36-1,1.29,1.29,0,0,1,1-.36h11.48a1.3,1.3,0,0,1,.94.36,1.27,1.27,0,0,1,.37,1A1.27,1.27,0,0,1,701.35-18.86Z" transform="translate(-681.58 60.53)"/><path class="cls-1" d="M688.43-38A6.6,6.6,0,0,1,691-40.53a7.45,7.45,0,0,1,3.71-.92h5.57a7.72,7.72,0,0,1,3.71.9A6.72,6.72,0,0,1,706.61-38a7.14,7.14,0,0,1,1,3.7,8.17,8.17,0,0,1-.74,3.46,7.22,7.22,0,0,1-2.1,2.68,1.16,1.16,0,0,1-.72.28,1.12,1.12,0,0,1-.93-.54,1.32,1.32,0,0,1-.23-.72,1.28,1.28,0,0,1,.54-1.06A4.53,4.53,0,0,0,704.78-32a5.76,5.76,0,0,0,.48-2.4,4.45,4.45,0,0,0-.61-2.3,4.36,4.36,0,0,0-1.78-1.65,5.93,5.93,0,0,0-2.8-.62h-1.26A6,6,0,0,1,701-36.8a5.6,5.6,0,0,1,.8,3,6.45,6.45,0,0,1-.92,3.42,6.26,6.26,0,0,1-2.54,2.35,7.92,7.92,0,0,1-3.69.84,7.52,7.52,0,0,1-3.71-.9,6.47,6.47,0,0,1-2.54-2.53,7.38,7.38,0,0,1-.92-3.69A7.26,7.26,0,0,1,688.43-38Zm10.46,1.29a4.3,4.3,0,0,0-1.72-1.63,5.24,5.24,0,0,0-2.49-.58,5.32,5.32,0,0,0-2.5.58,4.28,4.28,0,0,0-1.73,1.63,4.55,4.55,0,0,0-.62,2.36,4.54,4.54,0,0,0,.62,2.36,4.36,4.36,0,0,0,1.73,1.64,5.2,5.2,0,0,0,2.5.59,5.13,5.13,0,0,0,2.49-.59A4.38,4.38,0,0,0,698.89-32a4.55,4.55,0,0,0,.62-2.36A4.56,4.56,0,0,0,698.89-36.71Z" transform="translate(-681.58 60.53)"/><path class="cls-1" d="M688.26-57.51a5.45,5.45,0,0,1,2.26-2.22,7.44,7.44,0,0,1,3.57-.8h6.35a1.28,1.28,0,0,1,.94.37,1.28,1.28,0,0,1,.37.94,1.28,1.28,0,0,1-.37.94,1.28,1.28,0,0,1-.94.37h-6.35a4.17,4.17,0,0,0-3.16,1.12,4.14,4.14,0,0,0-1.07,3,4.4,4.4,0,0,0,.44,2,3.51,3.51,0,0,0,1.19,1.39,2.93,2.93,0,0,0,1.68.5h7.27a1.3,1.3,0,0,1,.94.36,1.27,1.27,0,0,1,.37,1,1.28,1.28,0,0,1-.37.94,1.27,1.27,0,0,1-.94.37h-11.5a1.27,1.27,0,0,1-1-.37,1.3,1.3,0,0,1-.36-.94,1.29,1.29,0,0,1,.36-1,1.3,1.3,0,0,1,1-.36h.28a5.76,5.76,0,0,1-1.28-2,6.5,6.5,0,0,1-.45-2.42A6.57,6.57,0,0,1,688.26-57.51Z" transform="translate(-681.58 60.53)"/></svg>