<svg id="图层_1" data-name="图层 1" xmlns="http://www.w3.org/2000/svg" viewBox="0 0 23.95 23.93"><defs><style>.cls-1{fill:#fff;}</style></defs><title>facebook</title><path class="cls-1" d="M0,13.49a12,12,0,1,1,12,12A12,12,0,0,1,0,13.49Zm.72,0A11.26,11.26,0,1,0,12,2.26,11.26,11.26,0,0,0,.75,13.49ZM13.06,25.08a10.64,10.64,0,0,1-4.2-.38V17H6.78V13.44H8.86V11.31c0-2.21.74-3.6,2.18-4.15a5.35,5.35,0,0,1,2-.36h3.19v3.46H14.41a1.41,1.41,0,0,0-1.2.48,2.73,2.73,0,0,0-.14,1.08v1.63H16.4L16,17h-2.9Z" transform="translate(-0.03 -1.54)"/></svg>