<svg id="图层_1" data-name="图层 1" xmlns="http://www.w3.org/2000/svg" viewBox="0 0 24 24"><defs><style>.cls-1{fill:#fff;}</style></defs><title>github</title><path class="cls-1" d="M14.11,17.23a3.92,3.92,0,0,1,.52,2.39c0,1,0,2,0,3,0,.33,0,.33-.32.33h-4c-.3,0-.32,0-.32-.33,0-.65,0-1.29,0-2l-.69.07a3.14,3.14,0,0,1-2.86-1.06,3.38,3.38,0,0,1-.28-.4c-.39-.61-.76-1.22-1.16-1.82A3.59,3.59,0,0,0,4.54,17l-.27-.27a1,1,0,0,1,.79-.09,2,2,0,0,1,1.39,1,4.48,4.48,0,0,0,.55.73,2.51,2.51,0,0,0,2.47.7c.61-.14.49-.07.58-.63a2.76,2.76,0,0,1,.37-1l.1-.19-.76-.15a5.07,5.07,0,0,1-2.59-1.34A4,4,0,0,1,6,12.91a10.82,10.82,0,0,1,.19-2.73A3.1,3.1,0,0,1,7,8.65.37.37,0,0,0,7,8.34a3.88,3.88,0,0,1,0-2.56c0-.15.1-.18.25-.14a3,3,0,0,1,1.38.82c.26.27.5.56.76.86a4,4,0,0,1,2.23-.54,9.43,9.43,0,0,1,2.56.15,7.92,7.92,0,0,1,.93.32l1-1a2.46,2.46,0,0,1,1.11-.61c.16,0,.24,0,.3.15a3.5,3.5,0,0,1,0,2.5c0,.12-.08.24,0,.34a3,3,0,0,1,.91,2,19.17,19.17,0,0,1,.1,2.43,4,4,0,0,1-2.11,3.38,6.15,6.15,0,0,1-2.24.74l-.14,0Z" transform="translate(0 0.49)"/><path class="cls-1" d="M12,.26A11.25,11.25,0,1,1,.75,11.51,11.26,11.26,0,0,1,12,.26m0-.75a12,12,0,1,0,12,12,12,12,0,0,0-12-12Z" transform="translate(0 0.49)"/></svg>