<?xml version="1.0" encoding="utf-8"?>
<!-- Generator: Adobe Illustrator 21.1.0, SVG Export Plug-In . SVG Version: 6.00 Build 0)  -->
<svg version="1.1" id="图层_1" xmlns="http://www.w3.org/2000/svg" xmlns:xlink="http://www.w3.org/1999/xlink" x="0px" y="0px"
	 viewBox="0 0 10.2 143.2" style="enable-background:new 0 0 10.2 143.2;" xml:space="preserve">
<style type="text/css">
     svg { cursor: pointer; }
	.st0{fill:#E6E6E6;cursor: pointer;}
	.st1{fill:#0176E8;cursor: pointer;}
</style>
<g>
	<path class="st0" d="M2.4,140c0.1-0.2,0.2-0.2,0.3-0.2c0,0,0.1,0,0.1,0c0.1,0,0.2,0.1,0.2,0.1c0,0.1,0.1,0.1,0.1,0.2
		c0,0.1,0,0.2,0,0.3c0,0.1,0,0.1,0,0.2c0,0.5,0.1,0.9,0.4,1.2c0.3,0.3,0.6,0.5,1,0.5h3c0.1,0,0.2,0,0.3,0.1c0.1,0.1,0.1,0.2,0.1,0.3
		c0,0.1,0,0.2-0.1,0.3s-0.2,0.1-0.3,0.1H2.7c-0.1,0-0.2,0-0.3-0.1c-0.1-0.1-0.1-0.2-0.1-0.3c0-0.1,0-0.2,0.1-0.3
		c0.1-0.1,0.2-0.1,0.3-0.1h0.4c-0.3-0.2-0.5-0.4-0.7-0.7c-0.2-0.3-0.2-0.6-0.2-1C2.3,140.4,2.3,140.2,2.4,140z"/>
	<path class="st0" d="M2.7,134.5c0.2-0.4,0.5-0.7,1-0.9c0.4-0.2,0.9-0.3,1.4-0.3c0.1,0,0.2,0,0.3,0.1c0.1,0.1,0.1,0.2,0.1,0.3v4
		c0.5-0.1,1-0.3,1.3-0.6c0.3-0.4,0.5-0.8,0.5-1.4c0-0.2,0-0.5-0.1-0.7s-0.2-0.4-0.3-0.6c-0.1-0.1-0.1-0.2-0.1-0.3
		c0-0.1,0-0.1,0.1-0.2c0.1-0.1,0.2-0.1,0.3-0.1c0.1,0,0.2,0,0.2,0.1c0.2,0.2,0.3,0.5,0.5,0.8s0.2,0.7,0.2,1c0,0.5-0.1,1-0.4,1.4
		s-0.6,0.7-1,1c-0.4,0.2-0.9,0.4-1.4,0.4c-0.5,0-1-0.1-1.4-0.3c-0.4-0.2-0.8-0.5-1-0.9c-0.2-0.4-0.4-0.8-0.4-1.4
		C2.3,135.3,2.4,134.9,2.7,134.5z M3.5,137c0.3,0.3,0.7,0.5,1.2,0.6V134c-0.5,0.1-0.9,0.2-1.2,0.6c-0.3,0.3-0.5,0.7-0.5,1.2
		C3,136.3,3.2,136.7,3.5,137z"/>
	<path class="st0" d="M2.6,127.1c0.2-0.4,0.5-0.7,0.9-0.9c0.4-0.2,0.8-0.3,1.4-0.3h2.6c0.1,0,0.2,0,0.3,0.1c0.1,0.1,0.1,0.2,0.1,0.3
		c0,0.1,0,0.2-0.1,0.3c-0.1,0.1-0.2,0.1-0.3,0.1H4.9c-0.6,0-1,0.2-1.4,0.5c-0.3,0.3-0.5,0.8-0.5,1.3c0,0.3,0.1,0.6,0.2,0.9
		c0.1,0.3,0.3,0.5,0.5,0.6c0.2,0.2,0.5,0.2,0.7,0.2h3c0.1,0,0.2,0,0.3,0.1c0.1,0.1,0.1,0.2,0.1,0.3s0,0.2-0.1,0.3
		c-0.1,0.1-0.2,0.1-0.3,0.1H2.8c-0.1,0-0.2,0-0.3-0.1s-0.1-0.2-0.1-0.3s0-0.2,0.1-0.3c0.1-0.1,0.2-0.1,0.3-0.1h0.3
		c-0.2-0.2-0.4-0.5-0.6-0.8c-0.1-0.3-0.2-0.7-0.2-1C2.3,127.9,2.4,127.5,2.6,127.1z"/>
	<path class="st0" d="M2.7,117.9h2.3c0.5,0,1,0.1,1.4,0.4c0.4,0.2,0.8,0.6,1,1c0.2,0.4,0.4,0.9,0.4,1.4c0,0.5-0.1,1-0.4,1.4
		c-0.2,0.4-0.6,0.8-1,1c-0.4,0.2-0.9,0.4-1.4,0.4c-0.5,0-1-0.1-1.4-0.4c-0.4-0.2-0.8-0.6-1-1c-0.2-0.4-0.4-0.9-0.4-1.4
		c0-0.4,0.1-0.8,0.3-1.2c0.2-0.4,0.4-0.7,0.8-0.9H0.4c-0.1,0-0.2,0-0.3-0.1c-0.1-0.1-0.1-0.2-0.1-0.3s0-0.2,0.1-0.3
		c0.1-0.1,0.2-0.1,0.3-0.1L2.7,117.9C2.7,117.9,2.7,117.9,2.7,117.9z M6.9,119.7c-0.2-0.3-0.4-0.5-0.8-0.7c-0.3-0.2-0.7-0.3-1.1-0.3
		c-0.1,0-0.2,0-0.3,0c0,0,0,0,0,0c-0.5,0.1-0.9,0.3-1.3,0.7c-0.3,0.4-0.5,0.8-0.5,1.3c0,0.4,0.1,0.7,0.3,1c0.2,0.3,0.4,0.6,0.7,0.7
		s0.7,0.3,1.1,0.3c0.4,0,0.7-0.1,1.1-0.3s0.6-0.4,0.8-0.7c0.2-0.3,0.3-0.7,0.3-1C7.2,120.3,7.1,120,6.9,119.7z"/>
	<path class="st0" d="M2.5,110.3c0.1-0.1,0.2-0.1,0.3-0.1h4.7c0.1,0,0.2,0,0.3,0.1c0.1,0.1,0.1,0.2,0.1,0.3s0,0.2-0.1,0.3
		s-0.2,0.1-0.3,0.1H7.1c0.2,0.2,0.4,0.5,0.6,0.8c0.1,0.3,0.2,0.7,0.2,1c0,0.5-0.1,0.9-0.3,1.3c-0.2,0.4-0.5,0.7-0.9,0.9
		c-0.4,0.2-0.8,0.3-1.4,0.3H2.7c-0.1,0-0.2,0-0.3-0.1c-0.1-0.1-0.1-0.2-0.1-0.3c0-0.1,0-0.2,0.1-0.3c0.1-0.1,0.2-0.1,0.3-0.1h2.6
		c0.6,0,1-0.2,1.4-0.5s0.5-0.8,0.5-1.3c0-0.3-0.1-0.6-0.2-0.9c-0.1-0.3-0.3-0.5-0.5-0.6c-0.2-0.2-0.5-0.2-0.7-0.2h-3
		c-0.1,0-0.2,0-0.3-0.1c-0.1-0.1-0.1-0.2-0.1-0.3S2.4,110.4,2.5,110.3z"/>
	<path class="st0" d="M7.7,107.4c-0.1,0.1-0.2,0.1-0.3,0.1s-0.2,0-0.3-0.1l-3.6-3c-0.2-0.2-0.4-0.3-0.6-0.4s-0.4-0.1-0.6-0.1
		c-0.5,0-0.8,0.1-1.2,0.4c-0.3,0.3-0.4,0.6-0.4,1.1c0,0.3,0.1,0.5,0.2,0.8s0.3,0.4,0.6,0.5s0.5,0.2,0.8,0.2c0.1,0,0.2,0,0.3,0.1
		c0.1,0.1,0.1,0.2,0.1,0.3c0,0.1,0,0.2-0.1,0.3c-0.1,0.1-0.2,0.1-0.3,0.1c-0.4,0-0.8-0.1-1.2-0.3c-0.4-0.2-0.6-0.5-0.8-0.8
		c-0.2-0.3-0.3-0.7-0.3-1.2c0-0.4,0.1-0.8,0.3-1.2c0.2-0.3,0.5-0.6,0.8-0.8s0.8-0.3,1.2-0.3c0.5,0,1.1,0.3,1.7,0.8l3,2.6v-3.1
		c0-0.1,0-0.2,0.1-0.3c0.1-0.1,0.2-0.1,0.3-0.1s0.2,0,0.3,0.1c0.1,0.1,0.1,0.2,0.1,0.3v3.8C7.8,107.3,7.8,107.4,7.7,107.4z"/>
	<path class="st0" d="M7.4,99.9c-0.3,0.4-0.8,0.6-1.3,0.8c-0.6,0.2-1.3,0.3-2.1,0.3c-0.8,0-1.5-0.1-2.1-0.3s-1-0.5-1.3-0.8
		S0,99.1,0,98.6c0-0.5,0.2-0.9,0.5-1.3s0.8-0.6,1.4-0.8c0.6-0.2,1.3-0.3,2.1-0.3c1.2,0,2.2,0.2,2.9,0.6c0.7,0.4,1,1,1,1.7
		C7.8,99.1,7.7,99.5,7.4,99.9z M6.2,97.4C5.6,97.2,4.9,97,3.9,97c-0.9,0-1.7,0.1-2.3,0.4s-0.9,0.7-0.9,1.2c0,0.5,0.3,0.9,0.9,1.2
		s1.3,0.4,2.3,0.4c1,0,1.7-0.1,2.3-0.4s0.9-0.7,0.9-1.2C7.1,98.1,6.8,97.7,6.2,97.4z"/>
	<path class="st0" d="M7.4,93.2C7,93.5,6.6,93.8,6,94c-0.6,0.2-1.3,0.3-2.1,0.3c-0.8,0-1.5-0.1-2.1-0.3c-0.6-0.2-1-0.5-1.3-0.8
		C0.2,92.8,0,92.4,0,91.9c0-0.5,0.2-0.9,0.5-1.3s0.8-0.6,1.4-0.8c0.6-0.2,1.3-0.3,2.1-0.3c1.2,0,2.2,0.2,2.9,0.6c0.7,0.4,1,1,1,1.7
		C7.8,92.4,7.7,92.8,7.4,93.2z M6.2,90.7c-0.6-0.3-1.3-0.4-2.3-0.4c-0.9,0-1.7,0.1-2.3,0.4s-0.9,0.7-0.9,1.2s0.3,0.9,0.9,1.2
		c0.6,0.3,1.3,0.4,2.3,0.4c1,0,1.7-0.1,2.3-0.4c0.6-0.3,0.9-0.7,0.9-1.2C7.1,91.4,6.8,91,6.2,90.7z"/>
	<path class="st0" d="M4.3,83.1c0.3-0.2,0.7-0.3,1.2-0.3c0.5,0,0.9,0.1,1.2,0.3c0.4,0.2,0.7,0.5,0.9,0.8c0.2,0.4,0.3,0.8,0.3,1.2
		c0,0.4-0.1,0.8-0.3,1.2s-0.5,0.6-0.9,0.8s-0.8,0.3-1.2,0.3s-0.8-0.1-1.2-0.3s-0.6-0.5-0.8-0.9c-0.2,0.2-0.4,0.4-0.7,0.6
		C2.5,86.9,2.2,87,1.9,87c-0.4,0-0.7-0.1-1-0.3c-0.3-0.2-0.5-0.4-0.7-0.7C0.1,85.7,0,85.4,0,85c0-0.4,0.1-0.7,0.2-1
		c0.2-0.3,0.4-0.5,0.7-0.7c0.3-0.2,0.6-0.2,1-0.2c0.3,0,0.6,0.1,0.9,0.2s0.5,0.3,0.7,0.6C3.6,83.6,3.9,83.3,4.3,83.1z M2.8,85.9
		c0.2-0.2,0.4-0.5,0.4-0.8S3,84.4,2.8,84.2s-0.5-0.3-0.9-0.3c-0.3,0-0.6,0.1-0.8,0.3c-0.2,0.2-0.3,0.5-0.3,0.8
		c0,0.3,0.1,0.6,0.3,0.8c0.2,0.2,0.5,0.3,0.8,0.3C2.2,86.3,2.5,86.1,2.8,85.9z M4.7,83.7c-0.2,0.1-0.4,0.3-0.6,0.6
		c-0.1,0.2-0.2,0.5-0.2,0.8c0,0.3,0.1,0.6,0.2,0.8c0.1,0.2,0.3,0.4,0.6,0.6c0.2,0.1,0.5,0.2,0.8,0.2s0.6-0.1,0.8-0.2
		c0.3-0.1,0.5-0.3,0.6-0.6s0.2-0.5,0.2-0.8s-0.1-0.6-0.2-0.8s-0.4-0.4-0.6-0.6c-0.3-0.1-0.6-0.2-0.9-0.2C5.2,83.5,4.9,83.6,4.7,83.7
		z"/>
	<path class="st1" d="M10.1,80.3c-0.1,0.1-0.2,0.1-0.3,0.1H0.4c-0.1,0-0.2,0-0.3-0.1S0,80.2,0,80.1v-1.6c0-0.1,0-0.2,0.1-0.3
		c0.1-0.1,0.2-0.1,0.3-0.1s0.2,0,0.3,0.1s0.1,0.2,0.1,0.3v1.2h8.6v-1.2c0-0.1,0-0.2,0.1-0.3s0.2-0.1,0.3-0.1s0.2,0,0.3,0.1
		c0.1,0.1,0.1,0.2,0.1,0.3v1.6C10.2,80.2,10.1,80.3,10.1,80.3z"/>
	<path class="st1" d="M2.7,72.3c0.2-0.4,0.6-0.8,1-1c0.4-0.2,0.9-0.4,1.4-0.4h2.3c0.1,0,0.2,0,0.3,0.1c0.1,0.1,0.1,0.2,0.1,0.3
		s0,0.2-0.1,0.3c-0.1,0.1-0.2,0.1-0.3,0.1H6.9c0.3,0.2,0.6,0.5,0.8,0.9s0.3,0.8,0.3,1.2c0,0.5-0.1,1-0.4,1.4s-0.6,0.7-1,1
		c-0.4,0.2-0.9,0.4-1.4,0.4c-0.5,0-1-0.1-1.4-0.4c-0.4-0.2-0.8-0.6-1-1c-0.2-0.4-0.4-0.9-0.4-1.4C2.3,73.2,2.4,72.7,2.7,72.3z
		 M6.9,72.7c-0.2-0.3-0.4-0.5-0.7-0.7c-0.3-0.2-0.7-0.3-1.1-0.3S4.4,71.8,4,71.9c-0.3,0.2-0.6,0.4-0.8,0.7S3,73.3,3,73.7
		c0,0.4,0.1,0.7,0.3,1C3.5,75,3.7,75.3,4,75.5s0.7,0.3,1.1,0.3s0.7-0.1,1.1-0.3c0.3-0.2,0.6-0.4,0.7-0.7c0.2-0.3,0.3-0.7,0.3-1
		C7.2,73.3,7.1,73,6.9,72.7z"/>
	<path class="st1" d="M7.2,65.7c0.1-0.1,0.2-0.1,0.3-0.1c0.1,0,0.2,0,0.3,0.1c0.1,0.1,0.1,0.2,0.1,0.3v0.2c0,0.4-0.1,0.7-0.3,1
		c-0.2,0.3-0.4,0.5-0.7,0.7s-0.6,0.2-1,0.2H3.2v0.7c0,0.1,0,0.2-0.1,0.3S3,69.1,2.9,69.1c-0.1,0-0.2,0-0.2-0.1s-0.1-0.1-0.1-0.3
		v-0.7H1c-0.1,0-0.2,0-0.3-0.1c-0.1-0.1-0.1-0.2-0.1-0.3s0-0.2,0.1-0.3s0.2-0.1,0.3-0.1h1.5v-1.1c0-0.1,0-0.2,0.1-0.3
		s0.1-0.1,0.2-0.1c0.1,0,0.2,0,0.2,0.1s0.1,0.1,0.1,0.3v1.1h2.7c0.3,0,0.6-0.1,0.8-0.3s0.3-0.5,0.3-0.8V66
		C7.1,65.9,7.1,65.8,7.2,65.7z"/>
	<path class="st1" d="M10.2,63.9c0,0.1,0,0.2-0.1,0.3c-0.1,0.1-0.2,0.1-0.3,0.1s-0.2,0-0.3-0.1S9.4,64,9.4,63.9v-1.2H0.8v1.2
		c0,0.1,0,0.2-0.1,0.3s-0.2,0.1-0.3,0.1s-0.2,0-0.3-0.1C0,64.1,0,64,0,63.9v-1.6c0-0.1,0-0.2,0.1-0.3c0.1-0.1,0.2-0.1,0.3-0.1h9.4
		c0.1,0,0.2,0,0.3,0.1c0.1,0.1,0.1,0.2,0.1,0.3V63.9z"/>
	<path class="st0" d="M2.7,55.5c0.2-0.4,0.6-0.8,1-1c0.4-0.2,0.9-0.4,1.4-0.4h2c0.5,0,1,0.1,1.4,0.4c0.4,0.2,0.8,0.6,1,1
		s0.4,0.9,0.4,1.4c0,0.5-0.1,1-0.3,1.4s-0.5,0.7-0.8,1c-0.1,0.1-0.1,0.1-0.2,0.1c-0.1,0-0.2,0-0.3-0.1c0-0.1-0.1-0.1-0.1-0.2
		c0-0.1,0-0.1,0-0.2c0-0.1,0.1-0.1,0.1-0.1c0.3-0.2,0.5-0.5,0.6-0.8c0.1-0.3,0.2-0.7,0.2-1c0-0.4-0.1-0.7-0.3-1
		c-0.2-0.3-0.4-0.5-0.8-0.7s-0.7-0.3-1.1-0.3H6.7c0.4,0.2,0.7,0.5,0.9,0.9s0.3,0.8,0.3,1.3c0,0.5-0.1,1-0.4,1.4s-0.6,0.7-1,1
		c-0.4,0.2-0.9,0.3-1.4,0.3c-0.5,0-1-0.1-1.4-0.4c-0.4-0.2-0.8-0.6-1-1c-0.2-0.4-0.4-0.9-0.4-1.4C2.3,56.4,2.4,55.9,2.7,55.5z
		 M6.9,55.8c-0.2-0.3-0.4-0.5-0.7-0.7c-0.3-0.2-0.7-0.3-1.1-0.3c-0.4,0-0.8,0.1-1.1,0.3s-0.6,0.4-0.7,0.7c-0.2,0.3-0.3,0.7-0.3,1
		c0,0.4,0.1,0.7,0.3,1.1s0.4,0.5,0.7,0.7s0.7,0.3,1.1,0.3c0.4,0,0.8-0.1,1.1-0.3c0.3-0.2,0.6-0.4,0.7-0.7s0.3-0.7,0.3-1.1
		C7.2,56.5,7.1,56.2,6.9,55.8z"/>
	<path class="st0" d="M2.6,44.8c0.2-0.3,0.5-0.5,0.8-0.7c0.3-0.2,0.7-0.3,1.2-0.3h2.9c0.1,0,0.2,0,0.3,0.1c0.1,0.1,0.1,0.2,0.1,0.3
		s0,0.2-0.1,0.3c-0.1,0.1-0.2,0.1-0.3,0.1H4.6c-0.5,0-0.8,0.1-1.1,0.4c-0.3,0.2-0.4,0.6-0.4,1c0,0.4,0.1,0.8,0.4,1
		c0.3,0.3,0.6,0.4,1.1,0.4h0h2.9c0.1,0,0.2,0,0.3,0.1c0.1,0.1,0.1,0.2,0.1,0.3s0,0.2-0.1,0.3c-0.1,0.1-0.2,0.1-0.3,0.1H4.6
		c-0.5,0-0.8,0.1-1.1,0.4S3,49,3,49.4c0,0.4,0.1,0.8,0.4,1s0.6,0.4,1,0.4h3c0.1,0,0.2,0,0.3,0.1c0.1,0.1,0.1,0.2,0.1,0.3
		s0,0.2-0.1,0.3c-0.1,0.1-0.2,0.1-0.3,0.1H2.8c-0.1,0-0.2,0-0.3-0.1c-0.1-0.1-0.1-0.2-0.1-0.3s0-0.2,0.1-0.3s0.2-0.1,0.3-0.1H3
		c-0.2-0.2-0.4-0.4-0.5-0.7c-0.1-0.3-0.2-0.5-0.2-0.8c0-0.4,0.1-0.7,0.3-1c0.2-0.3,0.4-0.5,0.7-0.7c-0.3-0.2-0.5-0.4-0.7-0.8
		c-0.2-0.3-0.3-0.7-0.3-1C2.3,45.5,2.4,45.1,2.6,44.8z"/>
	<path class="st0" d="M2.7,37.2c0.2-0.4,0.6-0.8,1-1c0.4-0.2,0.9-0.4,1.4-0.4h2.3c0.1,0,0.2,0,0.3,0.1c0.1,0.1,0.1,0.2,0.1,0.3
		s0,0.2-0.1,0.3c-0.1,0.1-0.2,0.1-0.3,0.1H6.9c0.3,0.2,0.6,0.5,0.8,0.9s0.3,0.8,0.3,1.2c0,0.5-0.1,1-0.4,1.4s-0.6,0.7-1,1
		c-0.4,0.2-0.9,0.4-1.4,0.4c-0.5,0-1-0.1-1.4-0.4c-0.4-0.2-0.8-0.6-1-1c-0.2-0.4-0.4-0.9-0.4-1.4S2.4,37.7,2.7,37.2z M6.9,37.6
		c-0.2-0.3-0.4-0.5-0.7-0.7c-0.3-0.2-0.7-0.3-1.1-0.3S4.4,36.7,4,36.9s-0.6,0.4-0.8,0.7S3,38.3,3,38.6c0,0.4,0.1,0.7,0.3,1
		s0.4,0.6,0.8,0.7s0.7,0.3,1.1,0.3s0.7-0.1,1.1-0.3c0.3-0.2,0.6-0.4,0.7-0.7s0.3-0.7,0.3-1C7.2,38.3,7.1,37.9,6.9,37.6z"/>
	<path class="st0" d="M1.2,33.2c-0.1,0.1-0.2,0.2-0.4,0.2c-0.2,0-0.3-0.1-0.4-0.2c-0.1-0.1-0.1-0.2-0.1-0.4c0-0.1,0-0.3,0.1-0.4
		c0.1-0.1,0.2-0.2,0.4-0.2c0.2,0,0.3,0.1,0.4,0.2c0.1,0.1,0.2,0.2,0.2,0.4S1.3,33.1,1.2,33.2z M7.7,33.1c-0.1,0.1-0.2,0.1-0.3,0.1
		H2.8c-0.1,0-0.2,0-0.3-0.1s-0.1-0.2-0.1-0.3c0-0.1,0-0.2,0.1-0.3c0.1-0.1,0.2-0.1,0.3-0.1h4.7c0.1,0,0.2,0,0.3,0.1
		c0.1,0.1,0.1,0.2,0.1,0.3C7.8,32.9,7.8,33,7.7,33.1z"/>
	<path class="st0" d="M7.3,29.3c-0.3,0.3-0.7,0.4-1.2,0.4H0.4c-0.1,0-0.2,0-0.3-0.1C0.1,29.5,0,29.4,0,29.3c0-0.1,0-0.2,0.1-0.3
		c0.1-0.1,0.2-0.1,0.3-0.1h5.7c0.3,0,0.5-0.1,0.7-0.2c0.2-0.1,0.3-0.3,0.3-0.4V28c0-0.1,0-0.2,0.1-0.2c0.1-0.1,0.2-0.1,0.3-0.1
		s0.2,0,0.3,0.1c0.1,0.1,0.1,0.2,0.1,0.3v0.1C7.8,28.7,7.7,29,7.3,29.3z"/>
	<path class="st0" d="M7.8,25.9c-0.1,0.1-0.3,0.2-0.4,0.2c-0.2,0-0.3-0.1-0.4-0.2s-0.2-0.3-0.2-0.4c0-0.2,0.1-0.3,0.2-0.4
		c0.1-0.1,0.3-0.2,0.4-0.2s0.3,0.1,0.4,0.2C7.9,25.2,8,25.3,8,25.5S7.9,25.8,7.8,25.9z"/>
	<path class="st0" d="M7.5,21.5c-0.2,0.4-0.6,0.7-1,1c-0.4,0.2-0.9,0.4-1.4,0.4c-0.5,0-1-0.1-1.4-0.3c-0.4-0.2-0.8-0.5-1-0.9
		c-0.2-0.4-0.4-0.9-0.4-1.4c0-0.8,0.3-1.5,1-2C3.3,18.1,3.4,18,3.5,18c0.1,0,0.2,0.1,0.3,0.2c0,0.1,0.1,0.1,0.1,0.2
		c0,0.1,0,0.2-0.2,0.3c-0.2,0.2-0.4,0.4-0.5,0.7C3.1,19.6,3,19.9,3,20.2c0,0.4,0.1,0.7,0.3,1s0.4,0.5,0.7,0.7C4.3,22,4.7,22,5.1,22
		c0.4,0,0.7-0.1,1.1-0.3c0.3-0.2,0.6-0.4,0.7-0.7c0.2-0.3,0.3-0.6,0.3-1c0-0.5-0.1-1-0.4-1.3c-0.1-0.1-0.1-0.2-0.1-0.3
		c0-0.1,0-0.2,0.1-0.2c0.1-0.1,0.2-0.1,0.3-0.1c0.1,0,0.2,0,0.2,0.1c0.4,0.5,0.7,1.1,0.7,1.8C7.9,20.6,7.8,21,7.5,21.5z"/>
	<path class="st0" d="M7.5,14.5c-0.2,0.4-0.6,0.8-1,1c-0.4,0.2-0.9,0.4-1.4,0.4s-1-0.1-1.4-0.4c-0.4-0.2-0.8-0.6-1-1
		c-0.2-0.4-0.4-0.9-0.4-1.4c0-0.5,0.1-1,0.4-1.4c0.2-0.4,0.6-0.8,1-1c0.4-0.2,0.9-0.4,1.4-0.4s1,0.1,1.4,0.4c0.4,0.2,0.8,0.6,1,1
		s0.4,0.9,0.4,1.4C7.9,13.6,7.8,14.1,7.5,14.5z M6.9,12c-0.2-0.3-0.4-0.5-0.7-0.7C5.8,11.1,5.5,11,5.1,11c-0.4,0-0.8,0.1-1.1,0.3
		S3.5,11.7,3.3,12C3.1,12.3,3,12.7,3,13c0,0.4,0.1,0.7,0.3,1s0.4,0.6,0.7,0.7s0.7,0.3,1.1,0.3c0.4,0,0.7-0.1,1.1-0.3
		c0.3-0.2,0.6-0.4,0.7-0.7s0.3-0.7,0.3-1C7.2,12.7,7.1,12.3,6.9,12z"/>
	<path class="st0" d="M2.6,1C2.8,0.7,3,0.4,3.4,0.3C3.7,0.1,4.1,0,4.6,0h2.9c0.1,0,0.2,0,0.3,0.1c0.1,0.1,0.1,0.2,0.1,0.3
		s0,0.2-0.1,0.3C7.7,0.7,7.6,0.8,7.5,0.8H4.6c-0.5,0-0.8,0.1-1.1,0.4C3.2,1.4,3,1.7,3,2.1c0,0.4,0.1,0.8,0.4,1
		c0.3,0.3,0.6,0.4,1.1,0.4h0h2.9c0.1,0,0.2,0,0.3,0.1c0.1,0.1,0.1,0.2,0.1,0.3s0,0.2-0.1,0.3C7.7,4.2,7.6,4.3,7.5,4.3H4.6
		c-0.5,0-0.8,0.1-1.1,0.4S3,5.2,3,5.6c0,0.4,0.1,0.8,0.4,1S4.1,7,4.5,7h3c0.1,0,0.2,0,0.3,0.1c0.1,0.1,0.1,0.2,0.1,0.3
		s0,0.2-0.1,0.3C7.7,7.7,7.6,7.8,7.5,7.8H2.8c-0.1,0-0.2,0-0.3-0.1C2.4,7.6,2.4,7.5,2.4,7.4s0-0.2,0.1-0.3S2.6,7,2.8,7H3
		C2.8,6.8,2.6,6.6,2.5,6.3C2.4,6.1,2.3,5.8,2.3,5.5c0-0.4,0.1-0.7,0.3-1C2.7,4.2,3,4,3.3,3.8C3,3.6,2.7,3.4,2.6,3.1
		C2.4,2.7,2.3,2.4,2.3,2C2.3,1.6,2.4,1.3,2.6,1z"/>
</g>
</svg>
