<svg id="图层_1" data-name="图层 1" xmlns="http://www.w3.org/2000/svg" viewBox="0 0 14.85 129.57"><defs><style>.cls-1{fill:#e6e6e6;}.cls-2{fill:#0176e8;}</style></defs><title>gmailadd</title><path class="cls-1" d="M4.1,66.88a.45.45,0,0,1,.3-.1.62.62,0,0,1,.23,0l7.27,2.41a.38.38,0,0,1,.21.16.48.48,0,0,1,.08.28.5.5,0,0,1-.08.27.32.32,0,0,1-.21.15l-6.34,2,6.34,2a.41.41,0,0,1,.29.42.46.46,0,0,1-.08.26.38.38,0,0,1-.21.16L4.62,77.38l-.24,0Q4,77.41,4,77A.47.47,0,0,1,4,76.79a.43.43,0,0,1,.2-.17l6.39-2.12-6.3-2a.49.49,0,0,1-.26-.16A.44.44,0,0,1,4,72.1a.45.45,0,0,1,.36-.45l6.18-2L4.25,67.6A.43.43,0,0,1,4,67.18.38.38,0,0,1,4.1,66.88Z" transform="translate(-0.47 52.16)"/><path class="cls-1" d="M4.1,54.15A.44.44,0,0,1,4.4,54a.66.66,0,0,1,.23,0L11.9,56.5a.39.39,0,0,1,.21.16.49.49,0,0,1,.08.28.5.5,0,0,1-.08.27.32.32,0,0,1-.21.15l-6.34,2,6.34,2a.41.41,0,0,1,.29.42.46.46,0,0,1-.08.26.4.4,0,0,1-.21.16L4.62,64.65l-.24,0Q4,64.68,4,64.3A.48.48,0,0,1,4,64.05a.44.44,0,0,1,.2-.17l6.39-2.12-6.3-1.95a.5.5,0,0,1-.26-.17.44.44,0,0,1-.1-.29.45.45,0,0,1,.36-.45l6.18-2L4.25,54.87A.42.42,0,0,1,4,54.45.38.38,0,0,1,4.1,54.15Z" transform="translate(-0.47 52.16)"/><path class="cls-1" d="M4.1,41.41a.44.44,0,0,1,.3-.11.66.66,0,0,1,.23,0l7.27,2.42a.39.39,0,0,1,.21.16.49.49,0,0,1,.08.28.5.5,0,0,1-.08.27.32.32,0,0,1-.21.15l-6.34,2,6.34,2a.41.41,0,0,1,.29.42.46.46,0,0,1-.08.26.4.4,0,0,1-.21.16L4.62,51.91l-.24,0q-.41,0-.41-.37A.48.48,0,0,1,4,51.32a.44.44,0,0,1,.2-.17L10.64,49l-6.3-1.95a.5.5,0,0,1-.26-.17.44.44,0,0,1-.1-.29.45.45,0,0,1,.36-.45l6.18-2L4.25,42.13A.42.42,0,0,1,4,41.71.38.38,0,0,1,4.1,41.41Z" transform="translate(-0.47 52.16)"/><path class="cls-1" d="M12.2,40a.74.74,0,0,1-.55.22.71.71,0,0,1-.53-.22.75.75,0,0,1-.22-.54.74.74,0,0,1,.75-.75.75.75,0,0,1,.54.22.71.71,0,0,1,.23.53A.74.74,0,0,1,12.2,40Z" transform="translate(-0.47 52.16)"/><path class="cls-2" d="M4.38,30.52l.12,0a.4.4,0,0,1,.23.14.45.45,0,0,1,.07.26,2.65,2.65,0,0,1,0,.35,2.83,2.83,0,0,0,0,.37A2.76,2.76,0,0,0,5.06,33a2.33,2.33,0,0,0,.87.92,2.4,2.4,0,0,0,1.25.33h4.56a.45.45,0,0,1,.32.12.46.46,0,0,1-.32.78H4.43A.43.43,0,0,1,4.1,35a.45.45,0,0,1,.33-.77h.93a3.19,3.19,0,0,1-1.08-1.11,2.88,2.88,0,0,1-.39-1.47Q3.89,30.52,4.38,30.52Z" transform="translate(-0.47 52.16)"/><path class="cls-2" d="M4.42,24.11a3.58,3.58,0,0,1,1.43-1.34,4.42,4.42,0,0,1,2.08-.48.4.4,0,0,1,.31.12.44.44,0,0,1,.11.32V29a3.32,3.32,0,0,0,1.58-.46A3,3,0,0,0,11,27.42a3.19,3.19,0,0,0,.39-1.57,3.63,3.63,0,0,0-.2-1.18,2.52,2.52,0,0,0-.53-.94.5.5,0,0,1-.12-.31.39.39,0,0,1,.69-.3A3.8,3.8,0,0,1,12,24.37a4.25,4.25,0,0,1,.29,1.48A4.14,4.14,0,0,1,11.72,28a3.79,3.79,0,0,1-1.48,1.45,4.39,4.39,0,0,1-2.15.53,4.68,4.68,0,0,1-2.17-.49,3.62,3.62,0,0,1-1.48-1.37,3.78,3.78,0,0,1-.53-2A3.73,3.73,0,0,1,4.42,24.11ZM5.52,28a3.3,3.3,0,0,0,2.06,1V23.16a3.13,3.13,0,0,0-2.06.9,2.75,2.75,0,0,0-.78,2A2.72,2.72,0,0,0,5.52,28Z" transform="translate(-0.47 52.16)"/><path class="cls-2" d="M4.32,14.63a3.26,3.26,0,0,1,1.31-1.35,4.13,4.13,0,0,1,2.06-.49h4a.45.45,0,1,1,0,.9h-4a2.83,2.83,0,0,0-2.18.8,2.94,2.94,0,0,0-.75,2.09A3.36,3.36,0,0,0,5.08,18a2.52,2.52,0,0,0,.85,1,2.09,2.09,0,0,0,1.21.38h4.59a.45.45,0,0,1,.32.12.46.46,0,0,1-.32.78H4.43a.43.43,0,0,1-.33-.13.45.45,0,0,1,.33-.77h.78a3.56,3.56,0,0,1-1-1.25,3.65,3.65,0,0,1-.35-1.6A4.17,4.17,0,0,1,4.32,14.63Z" transform="translate(-0.47 52.16)"/><path class="cls-2" d="M.58,2.43a.45.45,0,0,1,.33-.12H8.16a4.18,4.18,0,0,1,2.1.57,4,4,0,0,1,1.48,1.51,4.24,4.24,0,0,1,.53,2.11,4.25,4.25,0,0,1-.55,2.14,4,4,0,0,1-1.51,1.51,4.25,4.25,0,0,1-2.15.55,4.22,4.22,0,0,1-2.13-.55A4,4,0,0,1,4.43,8.64a4.25,4.25,0,0,1-.55-2.14,4,4,0,0,1,.46-1.93A3.49,3.49,0,0,1,5.6,3.21H.92a.43.43,0,0,1-.33-.13.45.45,0,0,1-.12-.32A.45.45,0,0,1,.58,2.43ZM11,4.81A3.17,3.17,0,0,0,9.78,3.64a3.44,3.44,0,0,0-1.71-.43,3.44,3.44,0,0,0-1.71.43,3.11,3.11,0,0,0-1.2,1.18,3.29,3.29,0,0,0-.44,1.68,3.29,3.29,0,0,0,.44,1.68,3.17,3.17,0,0,0,1.2,1.18,3.4,3.4,0,0,0,1.71.44,3.4,3.4,0,0,0,1.71-.44,3.23,3.23,0,0,0,1.65-2.86A3.25,3.25,0,0,0,11,4.81Z" transform="translate(-0.47 52.16)"/><path class="cls-2" d="M4.1-7.67a.45.45,0,0,1,.33-.12h7.3a.45.45,0,0,1,.32.12.43.43,0,0,1,.13.33.44.44,0,0,1-.13.32.44.44,0,0,1-.32.13H11a3.56,3.56,0,0,1,1,1.25A3.65,3.65,0,0,1,12.29-4a4.17,4.17,0,0,1-.45,2A3.25,3.25,0,0,1,10.52-.73a4.12,4.12,0,0,1-2.06.49h-4A.44.44,0,0,1,4.1-.37.44.44,0,0,1,4-.69.44.44,0,0,1,4.1-1a.44.44,0,0,1,.32-.13h4a2.83,2.83,0,0,0,2.18-.8A2.94,2.94,0,0,0,11.39-4a3.35,3.35,0,0,0-.31-1.45,2.5,2.5,0,0,0-.85-1A2.09,2.09,0,0,0,9-6.89H4.43A.43.43,0,0,1,4.1-7,.45.45,0,0,1,4-7.34.45.45,0,0,1,4.1-7.67Z" transform="translate(-0.47 52.16)"/><path class="cls-1" d="M12.2-10.1a.74.74,0,0,1-.55.22.71.71,0,0,1-.53-.22.75.75,0,0,1-.22-.54.73.73,0,0,1,.22-.53.73.73,0,0,1,.53-.22.75.75,0,0,1,.54.22.71.71,0,0,1,.23.53A.74.74,0,0,1,12.2-10.1Z" transform="translate(-0.47 52.16)"/><path class="cls-1" d="M4.43-21.33a4,4,0,0,1,1.51-1.51,4.22,4.22,0,0,1,2.13-.55,4.25,4.25,0,0,1,2.15.55,4,4,0,0,1,1.51,1.51,4.25,4.25,0,0,1,.55,2.14,4.24,4.24,0,0,1-.53,2.11,4,4,0,0,1-1.48,1.51,4.18,4.18,0,0,1-2.1.57H.92a.43.43,0,0,1-.33-.13.45.45,0,0,1-.12-.32.45.45,0,0,1,.12-.33.45.45,0,0,1,.33-.12H5.6a3.49,3.49,0,0,1-1.25-1.36,4,4,0,0,1-.46-1.93A4.25,4.25,0,0,1,4.43-21.33Zm6.56.46a3.24,3.24,0,0,0-1.21-1.19,3.41,3.41,0,0,0-1.71-.43,3.41,3.41,0,0,0-1.71.43,3.18,3.18,0,0,0-1.2,1.19,3.29,3.29,0,0,0-.44,1.68,3.28,3.28,0,0,0,.44,1.68,3.12,3.12,0,0,0,1.2,1.18,3.44,3.44,0,0,0,1.71.43,3.44,3.44,0,0,0,1.71-.43A3.17,3.17,0,0,0,11-17.51a3.24,3.24,0,0,0,.44-1.68A3.24,3.24,0,0,0,11-20.87Z" transform="translate(-0.47 52.16)"/><path class="cls-1" d="M11.49-27.38a2.78,2.78,0,0,1-1.79.55H.92A.43.43,0,0,1,.58-27a.45.45,0,0,1-.12-.32.45.45,0,0,1,.12-.33.45.45,0,0,1,.33-.12H9.71A2,2,0,0,0,10.84-28a.88.88,0,0,0,.44-.76v-.37a.34.34,0,0,1,.12-.27.48.48,0,0,1,.33-.11.45.45,0,0,1,.32.12.43.43,0,0,1,.13.33v.3A1.71,1.71,0,0,1,11.49-27.38Z" transform="translate(-0.47 52.16)"/><path class="cls-1" d="M11.72-34.14a4,4,0,0,1-1.51,1.51,4.22,4.22,0,0,1-2.13.55,4.25,4.25,0,0,1-2.15-.55,4,4,0,0,1-1.51-1.51,4.25,4.25,0,0,1-.55-2.14,4.23,4.23,0,0,1,.55-2.13,4,4,0,0,1,1.51-1.51,4.25,4.25,0,0,1,2.15-.55,4.22,4.22,0,0,1,2.13.55,4,4,0,0,1,1.51,1.51,4.22,4.22,0,0,1,.55,2.13A4.25,4.25,0,0,1,11.72-34.14ZM11-38a3.11,3.11,0,0,0-1.2-1.18,3.44,3.44,0,0,0-1.71-.43,3.44,3.44,0,0,0-1.71.43A3.17,3.17,0,0,0,5.17-38a3.25,3.25,0,0,0-.44,1.68,3.25,3.25,0,0,0,.44,1.68,3.24,3.24,0,0,0,1.21,1.18A3.4,3.4,0,0,0,8.08-33a3.4,3.4,0,0,0,1.71-.44A3.18,3.18,0,0,0,11-34.6a3.29,3.29,0,0,0,.44-1.68A3.29,3.29,0,0,0,11-38Z" transform="translate(-0.47 52.16)"/><path class="cls-1" d="M4.43-50.14a3.84,3.84,0,0,1,1.49-1.49,4.37,4.37,0,0,1,2.17-.53H11a4.45,4.45,0,0,1,2.18.54,4,4,0,0,1,1.54,1.49,4,4,0,0,1,.56,2.1A4.63,4.63,0,0,1,14.87-46a4.29,4.29,0,0,1-1.21,1.49.48.48,0,0,1-.3.12.33.33,0,0,1-.29-.15.43.43,0,0,1-.09-.27.47.47,0,0,1,.2-.39,3.52,3.52,0,0,0,.95-1.22A3.84,3.84,0,0,0,14.47-48,3.1,3.1,0,0,0,14-49.68a3.18,3.18,0,0,0-1.24-1.16A3.68,3.68,0,0,0,11-51.26h-.66a3.26,3.26,0,0,1,1.4,1.3,3.84,3.84,0,0,1,.51,2,4.36,4.36,0,0,1-.53,2.17,3.83,3.83,0,0,1-1.49,1.49,4.31,4.31,0,0,1-2.17.54,4.23,4.23,0,0,1-2.16-.55,4,4,0,0,1-1.5-1.51A4.27,4.27,0,0,1,3.89-48,4.31,4.31,0,0,1,4.43-50.14Zm6.58.47a3,3,0,0,0-1.18-1.17,3.51,3.51,0,0,0-1.73-.42,3.55,3.55,0,0,0-1.74.42,3,3,0,0,0-1.19,1.17A3.36,3.36,0,0,0,4.73-48a3.39,3.39,0,0,0,.43,1.71,3,3,0,0,0,1.19,1.17,3.55,3.55,0,0,0,1.74.42,3.51,3.51,0,0,0,1.73-.42A3,3,0,0,0,11-46.26,3.39,3.39,0,0,0,11.43-48,3.36,3.36,0,0,0,11-49.67Z" transform="translate(-0.47 52.16)"/></svg>