<?xml version="1.0" encoding="utf-8"?>
<!-- Generator: Adobe Illustrator 21.1.0, SVG Export Plug-In . SVG Version: 6.00 Build 0)  -->
<svg version="1.1" id="图层_1" xmlns="http://www.w3.org/2000/svg" xmlns:xlink="http://www.w3.org/1999/xlink" x="0px" y="0px"
	 viewBox="0 0 18.4 108.1" style="enable-background:new 0 0 18.4 108.1;" xml:space="preserve">
<style type="text/css">
	.st0{fill:#FFFFFF;}
</style>
<g>
	<path class="st0" d="M4.8,100.5c0.4-0.7,0.9-1.2,1.6-1.5c0.7-0.3,1.5-0.6,2.5-0.6h4.4c0.3,0,0.5,0.1,0.7,0.3
		c0.2,0.2,0.3,0.4,0.3,0.7c0,0.3-0.1,0.5-0.3,0.7c-0.2,0.2-0.4,0.3-0.7,0.3H8.9c-1,0-1.7,0.3-2.2,0.8S6,102.4,6,103.3
		c0,0.5,0.1,1,0.3,1.4s0.5,0.7,0.8,1c0.3,0.2,0.7,0.4,1.2,0.4h5.1c0.3,0,0.5,0.1,0.7,0.3c0.2,0.2,0.3,0.4,0.3,0.7
		c0,0.3-0.1,0.5-0.3,0.7c-0.2,0.2-0.4,0.3-0.7,0.3H1c-0.3,0-0.5-0.1-0.7-0.3c-0.2-0.2-0.3-0.4-0.3-0.7c0-0.3,0.1-0.5,0.3-0.7
		s0.4-0.3,0.7-0.3h4.4c-0.4-0.4-0.7-0.8-0.9-1.4c-0.2-0.5-0.3-1.1-0.3-1.7C4.2,101.9,4.4,101.2,4.8,100.5z"/>
	<path class="st0" d="M13.6,92.1c-0.4,0.8-1,1.3-1.8,1.8c-0.8,0.5-1.6,0.6-2.6,0.6s-1.8-0.2-2.6-0.6s-1.3-1-1.8-1.8
		c-0.5-0.8-0.6-1.6-0.6-2.6c0-0.9,0.2-1.8,0.6-2.5c0.4-0.7,1-1.3,1.8-1.8c0.8-0.4,1.6-0.6,2.6-0.6s1.8,0.2,2.6,0.6
		c0.8,0.4,1.3,1,1.8,1.8c0.4,0.8,0.6,1.6,0.6,2.6S14,91.4,13.6,92.1z M12.2,87.9c-0.3-0.5-0.7-0.9-1.2-1.1c-0.5-0.3-1.1-0.4-1.7-0.4
		c-0.6,0-1.2,0.1-1.7,0.4s-0.9,0.6-1.2,1.1S6,88.9,6,89.5s0.1,1.2,0.4,1.6c0.3,0.5,0.7,0.9,1.2,1.1c0.5,0.3,1.1,0.4,1.7,0.4
		c0.6,0,1.2-0.1,1.7-0.4c0.5-0.3,0.9-0.7,1.2-1.1c0.3-0.5,0.4-1,0.4-1.6S12.5,88.4,12.2,87.9z"/>
	<path class="st0" d="M5.2,67.6c0.7-0.6,1.6-1,2.9-1h5.1c0.3,0,0.5,0.1,0.7,0.3s0.3,0.4,0.3,0.7c0,0.3-0.1,0.5-0.3,0.7
		c-0.2,0.2-0.4,0.3-0.7,0.3H8.1c-0.7-0.1-1.3,0.1-1.7,0.4c-0.4,0.3-0.6,0.9-0.6,1.5S6,71.6,6.4,72c0.4,0.4,1,0.6,1.7,0.6h5.1
		c0.3,0,0.5,0.1,0.7,0.3c0.2,0.2,0.3,0.4,0.3,0.7c0,0.3-0.1,0.5-0.3,0.7c-0.2,0.2-0.4,0.3-0.7,0.3H8.1c-0.7-0.1-1.3,0.1-1.7,0.4
		c-0.4,0.3-0.6,0.9-0.6,1.5s0.2,1.2,0.6,1.6c0.4,0.4,1,0.6,1.7,0.6h5.1c0.3,0,0.5,0.1,0.7,0.3c0.2,0.2,0.3,0.4,0.3,0.7
		c0,0.3-0.1,0.5-0.3,0.7c-0.2,0.2-0.4,0.3-0.7,0.3h-8c-0.3,0-0.5-0.1-0.7-0.3c-0.2-0.2-0.3-0.4-0.3-0.7c0-0.3,0.1-0.5,0.2-0.6
		s0.5-0.4,0.8-0.4c-0.3-0.3-0.6-0.7-0.7-1.1c-0.2-0.4-0.3-0.9-0.3-1.4c0-0.6,0.1-1.2,0.4-1.6c0.3-0.4,0.6-0.9,1.1-1.2
		c-0.4-0.4-0.8-0.8-1-1.3S4.3,71,4.3,70.3C4.2,69.1,4.6,68.3,5.2,67.6z"/>
	<path class="st0" d="M9.6,53.7c0.1,0.2,0.2,0.4,0.2,0.6v6.8c0.8-0.1,1.5-0.5,2-1.1c0.5-0.6,0.8-1.4,0.8-2.3c0-0.4-0.1-0.7-0.2-1.1
		c-0.1-0.4-0.3-0.7-0.5-1c-0.1-0.2-0.2-0.4-0.2-0.6s0.1-0.4,0.2-0.5c0.2-0.2,0.4-0.3,0.6-0.3s0.4,0.1,0.5,0.3
		c0.3,0.4,0.6,0.9,0.8,1.5c0.2,0.6,0.3,1.2,0.3,1.7c0,1-0.2,1.9-0.6,2.6s-1,1.4-1.8,1.8c-0.8,0.4-1.6,0.7-2.6,0.7s-1.8-0.2-2.6-0.6
		c-0.8-0.4-1.4-1-1.8-1.7S4.1,58.9,4.1,58c0-0.9,0.2-1.7,0.6-2.4s1-1.2,1.7-1.5c0.7-0.4,1.6-0.5,2.5-0.5C9.3,53.4,9.5,53.5,9.6,53.7
		z M6.5,60c0.5,0.5,1.1,0.9,1.9,1v-6c-0.8,0.1-1.4,0.4-1.9,0.9S5.8,57,5.8,57.8C5.8,58.8,6,59.5,6.5,60z"/>
	<path class="st0" d="M4.9,42.3c0.4-0.8,1-1.4,1.8-1.8c0.8-0.4,1.6-0.6,2.5-0.6s1.8,0.2,2.5,0.6c0.8,0.4,1.4,1,1.8,1.7
		s0.6,1.5,0.6,2.3c0,0.7-0.1,1.3-0.4,1.9s-0.7,1.1-1.2,1.5h4.9c0.3,0,0.5,0.1,0.7,0.3s0.3,0.4,0.3,0.7s-0.1,0.5-0.3,0.7
		c-0.2,0.2-0.4,0.1-0.7,0.1H9.2c-0.9,0-1.8-0.2-2.5-0.7c-0.8-0.4-1.4-1-1.8-1.8c-0.4-0.7-0.7-1.5-0.7-2.4C4.2,43.9,4.5,43,4.9,42.3z
		 M12.2,43.2c-0.3-0.5-0.7-0.9-1.2-1.2c-0.6-0.3-1.1-0.4-1.8-0.4c-0.6,0-1.2,0.1-1.7,0.4c-0.5,0.3-0.9,0.7-1.2,1.2s-0.4,1-0.4,1.6
		c0,0.6,0.1,1.1,0.4,1.6c0.3,0.5,0.7,0.9,1.2,1.1c0.5,0.3,1.1,0.4,1.7,0.4c0.6,0,1.2-0.1,1.7-0.4c0.5-0.3,0.9-0.7,1.2-1.1
		c0.3-0.5,0.4-1,0.4-1.6C12.6,44.2,12.5,43.6,12.2,43.2z"/>
	<path class="st0" d="M4.9,28.8c0.4-0.8,1-1.3,1.8-1.8c0.8-0.4,1.6-0.7,2.5-0.7h4c0.3,0,0.5,0.1,0.7,0.3c0.2,0.2,0.3,0.4,0.3,0.7
		c0,0.3-0.1,0.5-0.3,0.7c-0.2,0.2-0.4,0.3-0.7,0.3h-0.7c0.5,0.4,0.9,0.9,1.2,1.5c0.3,0.6,0.4,1.2,0.4,1.9c0,0.9-0.2,1.6-0.6,2.3
		c-0.4,0.7-1,1.3-1.8,1.7c-0.8,0.4-1.6,0.6-2.5,0.6s-1.8-0.2-2.5-0.6c-0.8-0.4-1.4-1-1.8-1.8c-0.4-0.9-0.7-1.7-0.7-2.6
		S4.5,29.5,4.9,28.8z M12.2,29.6c-0.3-0.5-0.7-0.9-1.2-1.1c-0.5-0.3-1.1-0.4-1.7-0.4c-0.6,0-1.2,0.1-1.7,0.4c-0.6,0.3-1,0.7-1.3,1.1
		C6,30,5.9,30.7,5.9,31.3s0.1,1.1,0.4,1.6s0.7,0.9,1.2,1.2s1.1,0.4,1.7,0.4c0.6,0,1.2-0.1,1.7-0.4s0.9-0.7,1.2-1.2
		c0.3-0.5,0.4-1,0.4-1.6C12.6,30.7,12.5,30.1,12.2,29.6z"/>
	<path class="st0" d="M4.9,15.2c0.4-0.8,1-1.3,1.8-1.8c0.8-0.4,1.6-0.6,2.6-0.6h3.9c0.9,0,1.8,0.2,2.6,0.6c0.8,0.4,1.4,1,1.8,1.8
		c0.4,0.8,0.7,1.6,0.7,2.6c0,0.9-0.2,1.7-0.5,2.4c-0.3,0.7-0.8,1.4-1.5,1.9c-0.2,0.1-0.3,0.2-0.5,0.2c-0.3,0-0.5-0.1-0.6-0.4
		c-0.1-0.2-0.2-0.3-0.2-0.5c0-0.3,0.1-0.5,0.4-0.7c0.4-0.3,0.7-0.7,1-1.2s0.3-1,0.3-1.7c0-0.6-0.1-1.1-0.4-1.6
		c-0.3-0.5-0.7-0.9-1.2-1.2s-1.2-0.4-2-0.4h-0.9c0.7,0.4,1.2,0.9,1.5,1.5c0.4,0.6,0.6,1.3,0.6,2.1c0,0.9-0.2,1.7-0.6,2.4
		s-1,1.2-1.8,1.6c-0.8,0.4-1.6,0.6-2.6,0.6s-1.8-0.2-2.6-0.6c-0.8-0.4-1.3-1-1.8-1.8s-0.7-1.7-0.7-2.6C4.2,16.8,4.4,16,4.9,15.2z
		 M12.2,16.1c-0.3-0.5-0.7-0.9-1.2-1.1c-0.5-0.3-1.1-0.4-1.7-0.4c-0.6,0-1.2,0.1-1.7,0.4s-0.9,0.6-1.2,1.1c-0.3,0.5-0.4,1-0.4,1.6
		s0.1,1.2,0.4,1.6c0.3,0.5,0.7,0.9,1.2,1.1c0.5,0.3,1.1,0.4,1.7,0.4c0.6,0,1.2-0.1,1.7-0.4s0.9-0.7,1.2-1.1c0.3-0.5,0.4-1,0.4-1.6
		S12.5,16.6,12.2,16.1z"/>
	<path class="st0" d="M9.6,0.1c0.1,0.2,0.2,0.4,0.2,0.6v6.8c0.8-0.1,1.5-0.5,2-1.1s0.8-1.4,0.8-2.3c0-0.4-0.1-0.7-0.2-1.1
		c-0.1-0.4-0.3-0.7-0.5-1c-0.1-0.2-0.2-0.4-0.2-0.6c0-0.2,0.1-0.4,0.2-0.5c0.2-0.2,0.4-0.3,0.6-0.3s0.4,0.1,0.5,0.3
		c0.3,0.4,0.6,0.9,0.8,1.5C14,3,14.1,3.6,14.1,4.1c0,1-0.2,1.9-0.6,2.6s-1,1.4-1.8,1.8c-0.8,0.4-1.6,0.7-2.6,0.7S7.3,9,6.5,8.6
		s-1.4-1-1.8-1.7S4.1,5.3,4.1,4.4c0-0.9,0.2-1.7,0.6-2.4s1-1.2,1.7-1.5C7.1,0.1,8,0,8.9,0C9.3-0.1,9.5,0,9.6,0.1z M6.5,6.5
		C7,7,7.6,7.4,8.4,7.5v-6C7.6,1.6,7,1.9,6.5,2.4S5.8,3.5,5.8,4.3C5.8,5.3,6,6,6.5,6.5z"/>
</g>
</svg>
