<?xml version="1.0" encoding="utf-8"?>
<!-- Generator: Adobe Illustrator 21.1.0, SVG Export Plug-In . SVG Version: 6.00 Build 0)  -->
<svg version="1.1" id="图层_1" xmlns="http://www.w3.org/2000/svg" xmlns:xlink="http://www.w3.org/1999/xlink" x="0px" y="0px"
	 viewBox="0 0 24 24" style="enable-background:new 0 0 24 24;" xml:space="preserve">
<style type="text/css">
	.st0{fill:#FFFFFF;}
</style>
<g>
	<path class="st0" d="M7.4,63.8c0.4-0.7,0.9-1.2,1.6-1.5s1.5-0.6,2.5-0.6h4.4c0.3,0,0.5,0.1,0.7,0.3c0.2,0.2,0.3,0.4,0.3,0.7
		c0,0.3-0.1,0.5-0.3,0.7c-0.2,0.2-0.4,0.3-0.7,0.3h-4.4c-1,0-1.7,0.3-2.2,0.8c-0.5,0.5-0.7,1.2-0.7,2.1c0,0.5,0.1,1,0.3,1.4
		c0.2,0.4,0.5,0.7,0.8,1c0.3,0.2,0.7,0.4,1.2,0.4h5.1c0.3,0,0.5,0.1,0.7,0.3c0.2,0.2,0.3,0.4,0.3,0.7c0,0.3-0.1,0.5-0.3,0.7
		c-0.2,0.2-0.4,0.3-0.7,0.3H3.6c-0.3,0-0.5-0.1-0.7-0.3c-0.2-0.2-0.3-0.4-0.3-0.7c0-0.3,0.1-0.5,0.3-0.7c0.2-0.2,0.4-0.3,0.7-0.3H8
		c-0.4-0.4-0.7-0.8-0.9-1.4c-0.2-0.5-0.3-1.1-0.3-1.7C6.8,65.2,7,64.5,7.4,63.8z"/>
	<path class="st0" d="M16.2,55.4c-0.4,0.8-1,1.3-1.8,1.8s-1.6,0.6-2.6,0.6c-1,0-1.8-0.2-2.6-0.6c-0.8-0.4-1.3-1-1.8-1.8
		s-0.6-1.6-0.6-2.6c0-0.9,0.2-1.8,0.6-2.5s1-1.3,1.8-1.8c0.8-0.4,1.6-0.6,2.6-0.6c1,0,1.8,0.2,2.6,0.6c0.8,0.4,1.3,1,1.8,1.8
		c0.4,0.8,0.6,1.6,0.6,2.6S16.6,54.7,16.2,55.4z M14.8,51.2c-0.3-0.5-0.7-0.9-1.2-1.1c-0.5-0.3-1.1-0.4-1.7-0.4s-1.2,0.1-1.7,0.4
		c-0.5,0.3-0.9,0.6-1.2,1.1c-0.3,0.5-0.4,1-0.4,1.6s0.1,1.2,0.4,1.6c0.3,0.5,0.7,0.9,1.2,1.1c0.5,0.3,1.1,0.4,1.7,0.4
		s1.2-0.1,1.7-0.4c0.5-0.3,0.9-0.7,1.2-1.1c0.3-0.5,0.4-1,0.4-1.6S15.1,51.7,14.8,51.2z"/>
	<path class="st0" d="M7.8,30.9c0.7-0.6,1.6-1,2.9-1h5.1c0.3,0,0.5,0.1,0.7,0.3c0.2,0.2,0.3,0.4,0.3,0.7c0,0.3-0.1,0.5-0.3,0.7
		c-0.2,0.2-0.4,0.3-0.7,0.3h-5.1C10,31.8,9.4,32,9,32.3s-0.6,0.9-0.6,1.5c0,0.6,0.2,1.1,0.6,1.5c0.4,0.4,1,0.6,1.7,0.6h5.1
		c0.3,0,0.5,0.1,0.7,0.3c0.2,0.2,0.3,0.4,0.3,0.7c0,0.3-0.1,0.5-0.3,0.7c-0.2,0.2-0.4,0.3-0.7,0.3h-5.1C10,37.8,9.4,38,9,38.3
		s-0.6,0.9-0.6,1.5c0,0.6,0.2,1.2,0.6,1.6c0.4,0.4,1,0.6,1.7,0.6h5.1c0.3,0,0.5,0.1,0.7,0.3c0.2,0.2,0.3,0.4,0.3,0.7
		c0,0.3-0.1,0.5-0.3,0.7c-0.2,0.2-0.4,0.3-0.7,0.3h-8c-0.3,0-0.5-0.1-0.7-0.3c-0.2-0.2-0.3-0.4-0.3-0.7c0-0.3,0.1-0.5,0.2-0.6
		S7.5,42,7.8,42c-0.3-0.3-0.6-0.7-0.7-1.1c-0.2-0.4-0.3-0.9-0.3-1.4c0-0.6,0.1-1.2,0.4-1.6s0.6-0.9,1.1-1.2c-0.4-0.4-0.8-0.8-1-1.3
		s-0.4-1.1-0.4-1.8C6.8,32.4,7.2,31.6,7.8,30.9z"/>
	<path class="st0" d="M12.2,17c0.1,0.2,0.2,0.4,0.2,0.6v6.8c0.8-0.1,1.5-0.5,2-1.1c0.5-0.6,0.8-1.4,0.8-2.3c0-0.4-0.1-0.7-0.2-1.1
		c-0.1-0.4-0.3-0.7-0.5-1c-0.1-0.2-0.2-0.4-0.2-0.6c0-0.2,0.1-0.4,0.2-0.5c0.2-0.2,0.4-0.3,0.6-0.3c0.2,0,0.4,0.1,0.5,0.3
		c0.3,0.4,0.6,0.9,0.8,1.5c0.2,0.6,0.3,1.2,0.3,1.7c0,1-0.2,1.9-0.6,2.6s-1,1.4-1.8,1.8c-0.8,0.4-1.6,0.7-2.6,0.7
		c-1,0-1.8-0.2-2.6-0.6c-0.8-0.4-1.4-1-1.8-1.7s-0.6-1.6-0.6-2.5c0-0.9,0.2-1.7,0.6-2.4c0.4-0.7,1-1.2,1.7-1.5
		c0.7-0.4,1.6-0.5,2.5-0.5C11.9,16.7,12.1,16.8,12.2,17z M9.1,23.3c0.5,0.5,1.1,0.9,1.9,1v-6c-0.8,0.1-1.4,0.4-1.9,0.9
		c-0.5,0.5-0.7,1.1-0.7,1.9C8.4,22.1,8.6,22.8,9.1,23.3z"/>
	<path class="st0" d="M7.5,5.6c0.4-0.8,1-1.4,1.8-1.8c0.8-0.4,1.6-0.6,2.5-0.6s1.8,0.2,2.5,0.6c0.8,0.4,1.4,1,1.8,1.7
		s0.6,1.5,0.6,2.3c0,0.7-0.1,1.3-0.4,1.9c-0.3,0.6-0.7,1.1-1.2,1.5H20c0.3,0,0.5,0.1,0.7,0.3s0.3,0.4,0.3,0.7c0,0.3-0.1,0.5-0.3,0.7
		S20.3,13,20,13h-8.2c-0.9,0-1.8-0.2-2.5-0.7c-0.8-0.4-1.4-1-1.8-1.8C7.1,9.8,6.8,9,6.8,8.1C6.8,7.2,7.1,6.3,7.5,5.6z M14.8,6.5
		c-0.3-0.5-0.7-0.9-1.2-1.2C13,5,12.5,4.9,11.8,4.9c-0.6,0-1.2,0.1-1.7,0.4C9.6,5.6,9.2,6,8.9,6.5c-0.3,0.5-0.4,1-0.4,1.6
		c0,0.6,0.1,1.1,0.4,1.6c0.3,0.5,0.7,0.9,1.2,1.1c0.5,0.3,1.1,0.4,1.7,0.4c0.6,0,1.2-0.1,1.7-0.4c0.5-0.3,0.9-0.7,1.2-1.1
		c0.3-0.5,0.4-1,0.4-1.6C15.2,7.5,15.1,6.9,14.8,6.5z"/>
	<path class="st0" d="M7.5-7.9c0.4-0.8,1-1.3,1.8-1.8c0.8-0.4,1.6-0.7,2.5-0.7h4c0.3,0,0.5,0.1,0.7,0.3c0.2,0.2,0.3,0.4,0.3,0.7
		c0,0.3-0.1,0.5-0.3,0.7c-0.2,0.2-0.4,0.3-0.7,0.3h-0.7c0.5,0.4,0.9,0.9,1.2,1.5c0.3,0.6,0.4,1.2,0.4,1.9c0,0.9-0.2,1.6-0.6,2.3
		s-1,1.3-1.8,1.7s-1.6,0.6-2.5,0.6s-1.8-0.2-2.5-0.6c-0.8-0.4-1.4-1-1.8-1.8C7.1-3.7,6.8-4.5,6.8-5.4S7.1-7.2,7.5-7.9z M14.8-7.1
		c-0.3-0.5-0.7-0.9-1.2-1.1c-0.5-0.3-1.1-0.4-1.7-0.4c-0.6,0-1.2,0.1-1.7,0.4C9.6-7.9,9.2-7.5,8.9-7.1S8.5-6,8.5-5.4
		c0,0.6,0.1,1.1,0.4,1.6s0.7,0.9,1.2,1.2c0.5,0.3,1.1,0.4,1.7,0.4c0.6,0,1.2-0.1,1.7-0.4c0.5-0.3,0.9-0.7,1.2-1.2
		c0.3-0.5,0.4-1,0.4-1.6C15.2-6,15.1-6.6,14.8-7.1z"/>
	<path class="st0" d="M7.5-21.5c0.4-0.8,1-1.3,1.8-1.8c0.8-0.4,1.6-0.6,2.6-0.6h3.9c0.9,0,1.8,0.2,2.6,0.6c0.8,0.4,1.4,1,1.8,1.8
		s0.7,1.6,0.7,2.6c0,0.9-0.2,1.7-0.5,2.4c-0.3,0.7-0.8,1.4-1.5,1.9c-0.2,0.1-0.3,0.2-0.5,0.2c-0.3,0-0.5-0.1-0.6-0.4
		c-0.1-0.2-0.2-0.3-0.2-0.5c0-0.3,0.1-0.5,0.4-0.7c0.4-0.3,0.7-0.7,1-1.2s0.3-1,0.3-1.7c0-0.6-0.1-1.1-0.4-1.6
		c-0.3-0.5-0.7-0.9-1.2-1.2s-1.2-0.4-2-0.4h-0.9c0.7,0.4,1.2,0.9,1.5,1.5c0.4,0.6,0.6,1.3,0.6,2.1c0,0.9-0.2,1.7-0.6,2.4
		s-1,1.2-1.8,1.6c-0.8,0.4-1.6,0.6-2.6,0.6c-1,0-1.8-0.2-2.6-0.6c-0.8-0.4-1.3-1-1.8-1.8S6.8-18,6.8-18.9C6.8-19.9,7-20.7,7.5-21.5z
		 M14.8-20.6c-0.3-0.5-0.7-0.9-1.2-1.1c-0.5-0.3-1.1-0.4-1.7-0.4s-1.2,0.1-1.7,0.4c-0.5,0.3-0.9,0.6-1.2,1.1c-0.3,0.5-0.4,1-0.4,1.6
		s0.1,1.2,0.4,1.6c0.3,0.5,0.7,0.9,1.2,1.1c0.5,0.3,1.1,0.4,1.7,0.4s1.2-0.1,1.7-0.4c0.5-0.3,0.9-0.7,1.2-1.1c0.3-0.5,0.4-1,0.4-1.6
		S15.1-20.1,14.8-20.6z"/>
	<path class="st0" d="M12.2-36.6c0.1,0.2,0.2,0.4,0.2,0.6v6.8c0.8-0.1,1.5-0.5,2-1.1c0.5-0.6,0.8-1.4,0.8-2.3c0-0.4-0.1-0.7-0.2-1.1
		c-0.1-0.4-0.3-0.7-0.5-1c-0.1-0.2-0.2-0.4-0.2-0.6c0-0.2,0.1-0.4,0.2-0.5c0.2-0.2,0.4-0.3,0.6-0.3c0.2,0,0.4,0.1,0.5,0.3
		c0.3,0.4,0.6,0.9,0.8,1.5c0.2,0.6,0.3,1.2,0.3,1.7c0,1-0.2,1.9-0.6,2.6s-1,1.4-1.8,1.8c-0.8,0.4-1.6,0.7-2.6,0.7
		c-1,0-1.8-0.2-2.6-0.6c-0.8-0.4-1.4-1-1.8-1.7s-0.6-1.6-0.6-2.5c0-0.9,0.2-1.7,0.6-2.4c0.4-0.7,1-1.2,1.7-1.5
		c0.7-0.4,1.6-0.5,2.5-0.5C11.9-36.8,12.1-36.7,12.2-36.6z M9.1-30.2c0.5,0.5,1.1,0.9,1.9,1v-6c-0.8,0.1-1.4,0.4-1.9,0.9
		c-0.5,0.5-0.7,1.1-0.7,1.9C8.4-31.4,8.6-30.7,9.1-30.2z"/>
</g>
</svg>
