<svg id="图层_1" data-name="图层 1" xmlns="http://www.w3.org/2000/svg" viewBox="0 0 24 24"><defs><style>.cls-1{fill:#fff;}</style></defs><title>link</title><path class="cls-1" d="M-9-10.5a12,12,0,0,0-12,12,12,12,0,0,0,12,12,12,12,0,0,0,12-12A11.94,11.94,0,0,0-9-10.5Zm0,23.28A11.28,11.28,0,0,1-20.27,1.49,11.25,11.25,0,0,1-9-9.78,11.23,11.23,0,0,1,2.29,1.49,11.29,11.29,0,0,1-9,12.78Z" transform="translate(20.99 10.5)"/><path class="cls-1" d="M-12.09-4a1.36,1.36,0,0,1-.46,1,1.48,1.48,0,0,1-1.15.46,1.42,1.42,0,0,1-1.08-.46,1.35,1.35,0,0,1-.41-1,1.23,1.23,0,0,1,.41-1,1.58,1.58,0,0,1,1.13-.41,1.52,1.52,0,0,1,1.11.41A1.69,1.69,0,0,1-12.09-4Z" transform="translate(20.99 10.5)"/><rect class="cls-1" x="5.92" y="8.95" width="2.79" height="8.14"/><path class="cls-1" d="M-10.82-1.54h2.69V-.39h0A2.61,2.61,0,0,1-6.73-1.54a3.84,3.84,0,0,1,1.88-.14A3.34,3.34,0,0,1-3.2-.6a3.77,3.77,0,0,1,.7,2.53V6.69H-5.22V2.24q0-1.7-1.15-1.81a1.4,1.4,0,0,0-1.56,1,1.61,1.61,0,0,0-.1.65V6.69h-2.79Z" transform="translate(20.99 10.5)"/></svg>