<?xml version="1.0" encoding="utf-8"?>
<!DOCTYPE svg PUBLIC "-//W3C//DTD SVG 1.1//EN" 
  "http://www.w3.org/Graphics/SVG/1.1/DTD/svg11.dtd">
<svg id="图层_1" data-name="图层 1" xmlns="http://www.w3.org/2000/svg" viewBox="0 0 76 15">
    <style type="text/css"><![CDATA[
#num1{
       
        animation: num1-move 4s ease forwards;  
        }

        @keyframes num1-move{
        0%{opacity: 0.0;}
        25%{opacity: 0.0;}
        40%{opacity: 1.0;}
        100%{opacity: 1.0;}
       }
#num2{
       
        animation: num2-move 4s ease forwards;  
        }

        @keyframes num2-move{
        0%{opacity: 0.0;}
        25%{opacity: 0.0;}
        40%{opacity: 1.0;}
        100%{opacity: 1.0;}
       }
#num3{
       
        animation: num3-move 4s ease forwards;  
        }

        @keyframes num3-move{
        0%{opacity: 0.0;}
        25%{opacity: 0.0;}
        40%{opacity: 1.0;}
        100%{opacity: 1.0;}
       }
#num4{
        
        animation: num4-move 4s ease forwards;  
        }

        @keyframes num4-move{
        0%{opacity: 0.0;}
        25%{opacity: 0.0;}
        40%{opacity: 1.0;}
        100%{opacity: 1.0;}
       }
#num5{
        
        animation: num5-move 4s ease forwards;  
        }

        @keyframes num5-move{
        0%{opacity: 0.0;}
        25%{opacity: 0.0;}
        40%{opacity: 1.0;}
        100%{opacity: 1.0;}
       }
    ]]>	
    </style>
    
    <path class="cls-1"  id="num1"  fill="#CCCCCC" d="M8.37,13.12a.34.34,0,0,1-.15.29.74.74,0,0,1-.42.1.49.49,0,0,1-.28-.07.66.66,0,0,1-.19-.21L4.14,8.15H1V13a.52.52,0,0,1-.14.37.5.5,0,0,1-.38.15A.5.5,0,0,1,0,13V.52A.5.5,0,0,1,.15.14.52.52,0,0,1,.52,0H3.83A4.73,4.73,0,0,1,6.07.52,3.82,3.82,0,0,1,7.61,2,4.09,4.09,0,0,1,8.16,4.1a3.91,3.91,0,0,1-.79,2.45A4,4,0,0,1,5.25,8l3,4.76A.86.86,0,0,1,8.37,13.12Zm-4.54-6a3.68,3.68,0,0,0,1.7-.38A2.88,2.88,0,0,0,6.7,5.66,2.92,2.92,0,0,0,7.12,4.1,3,3,0,0,0,6.7,2.52,2.92,2.92,0,0,0,5.53,1.43,3.62,3.62,0,0,0,3.83,1H1V7.11Z"/>
    <path class="cls-1" id="num2" fill="#CCCCCC" d="M14.62,13.37a.5.5,0,0,1-.15-.37V.52A.5.5,0,0,1,15,0h8.34a.52.52,0,0,1,.36.15.49.49,0,0,1,.16.37.5.5,0,0,1-.16.36.5.5,0,0,1-.36.16H15.51V6.23h5.74a.5.5,0,0,1,.52.52.53.53,0,0,1-.15.38.49.49,0,0,1-.37.16H15.51v5.19h7.82a.53.53,0,0,1,.52.52.49.49,0,0,1-.16.37.51.51,0,0,1-.36.15H15A.51.51,0,0,1,14.62,13.37Z"/>
    <path class="cls-1" id="num3" fill="#CCCCCC" d="M30.44,13.37A.5.5,0,0,1,30.3,13V.52A.5.5,0,0,1,30.82,0a.51.51,0,0,1,.4.17L40,11.61V.52A.5.5,0,0,1,40.54,0a.52.52,0,0,1,.36.15.49.49,0,0,1,.16.37V13a.49.49,0,0,1-.16.37.51.51,0,0,1-.36.15.48.48,0,0,1-.38-.16L31.34,1.9V13a.53.53,0,0,1-.89.37Z"/>
    <path class="cls-1" id="num4" fill="#CCCCCC" d="M48.61,13.37a.5.5,0,0,1-.15-.37V.52a.5.5,0,0,1,.15-.38A.52.52,0,0,1,49,0H52.1a7,7,0,0,1,3.5.87A6.21,6.21,0,0,1,58,3.26a7,7,0,0,1,.87,3.49,7,7,0,0,1-.87,3.5,6.19,6.19,0,0,1-2.41,2.41,7,7,0,0,1-3.5.87H49A.51.51,0,0,1,48.61,13.37Zm3.49-.79a5.81,5.81,0,0,0,3-.75,5.36,5.36,0,0,0,2-2.09,6.09,6.09,0,0,0,.74-3,6,6,0,0,0-.74-3,5.38,5.38,0,0,0-2-2.08,5.81,5.81,0,0,0-3-.75H49.5V12.58Z"/>
    <path class="cls-1" id="num5" fill="#CCCCCC"   d="M68.09,13.2a4.42,4.42,0,0,1-2.5-4.09V.52a.5.5,0,0,1,.15-.38A.52.52,0,0,1,66.1,0a.52.52,0,0,1,.38.14.52.52,0,0,1,.14.38V9.1A3.44,3.44,0,0,0,67.15,11a3.58,3.58,0,0,0,1.47,1.3,5.22,5.22,0,0,0,4.32,0A3.65,3.65,0,0,0,74.42,11,3.4,3.4,0,0,0,75,9.1V.52a.5.5,0,0,1,.15-.38A.52.52,0,0,1,75.48,0a.52.52,0,0,1,.38.14A.52.52,0,0,1,76,.52V9.1a4.49,4.49,0,0,1-.67,2.43,4.55,4.55,0,0,1-1.85,1.66,6.38,6.38,0,0,1-5.39,0Z"/>
</svg>