<?xml version="1.0" encoding="utf-8"?>
<!-- Generator: Adobe Illustrator 21.1.0, SVG Export Plug-In . SVG Version: 6.00 Build 0)  -->
<svg version="1.1" id="图层_1" xmlns="http://www.w3.org/2000/svg" xmlns:xlink="http://www.w3.org/1999/xlink" x="0px" y="0px"
	 viewBox="0 0 18.4 170.8" style="enable-background:new 0 0 18.4 170.8;" xml:space="preserve">
<style type="text/css">
	.st0{enable-background:new    ;}
	.st1{fill:#FFFFFF;}
</style>
<title>pglogo</title>
<g class="st0">
	<path class="st1" d="M5.1,163.4c0.4-0.8,1-1.3,1.8-1.8c0.8-0.4,1.6-0.6,2.5-0.6c0.9,0,1.8,0.2,2.5,0.6c0.8,0.4,1.3,0.9,1.8,1.6
		c0.4,0.7,0.6,1.5,0.6,2.3c0,0.7-0.1,1.3-0.4,1.9c-0.3,0.6-0.7,1.1-1.2,1.5h4.8c0.3,0,0.5,0.1,0.7,0.2c0.2,0.2,0.2,0.4,0.2,0.7
		c0,0.3-0.1,0.5-0.2,0.7s-0.4,0.3-0.7,0.3H9.4c-0.9,0-1.8-0.2-2.5-0.7c-0.8-0.4-1.3-1-1.8-1.8c-0.4-0.7-0.7-1.6-0.7-2.5
		C4.4,165,4.6,164.2,5.1,163.4z M12.3,164.3c-0.3-0.5-0.7-0.9-1.2-1.1c-0.5-0.3-1.1-0.4-1.7-0.4c-0.6,0-1.2,0.1-1.7,0.4
		c-0.5,0.3-0.9,0.7-1.2,1.1c-0.3,0.5-0.4,1-0.4,1.6s0.1,1.1,0.4,1.6c0.3,0.5,0.7,0.9,1.2,1.1c0.5,0.3,1.1,0.4,1.7,0.4
		c0.6,0,1.2-0.1,1.7-0.4c0.5-0.3,0.9-0.7,1.2-1.1c0.3-0.5,0.4-1,0.4-1.6S12.6,164.8,12.3,164.3z"/>
</g>
<g class="st0">
	<path class="st1" d="M4.7,150.7c0.2-0.4,0.4-0.5,0.7-0.5c0.1,0,0.1,0,0.2,0c0.4,0.1,0.6,0.3,0.6,0.7c0,0.1,0,0.1,0,0.3
		C6,151.6,6,152,6,152.3c0,0.9,0.2,1.5,0.6,2.1c0.4,0.5,0.9,0.8,1.6,0.8h5.2c0.3,0,0.5,0.1,0.7,0.2c0.2,0.1,0.2,0.4,0.2,0.7
		c0,0.3-0.1,0.5-0.2,0.7c-0.1,0.2-0.4,0.2-0.7,0.2h-8c-0.3,0-0.5-0.1-0.7-0.2c-0.2-0.2-0.2-0.4-0.2-0.7c0-0.6,0.3-0.9,0.9-0.9h0.3
		c-0.4-0.4-0.7-0.8-1-1.3c-0.2-0.5-0.4-1.1-0.4-1.7C4.4,151.5,4.5,151,4.7,150.7z"/>
</g>
<g class="st0">
	<path class="st1" d="M13.7,145.8c-0.4,0.7-1,1.3-1.8,1.7c-0.7,0.4-1.6,0.6-2.5,0.6c-1,0-1.8-0.2-2.6-0.6c-0.7-0.4-1.3-1-1.8-1.7
		c-0.4-0.7-0.6-1.6-0.6-2.5c0-0.9,0.2-1.8,0.6-2.5c0.4-0.7,1-1.3,1.8-1.7s1.6-0.6,2.6-0.6c0.9,0,1.8,0.2,2.5,0.6
		c0.7,0.4,1.3,1,1.8,1.7c0.4,0.7,0.6,1.6,0.6,2.5S14.1,145,13.7,145.8z M12.3,141.6c-0.3-0.5-0.7-0.9-1.2-1.1
		c-0.5-0.3-1.1-0.4-1.7-0.4c-0.6,0-1.2,0.1-1.7,0.4c-0.5,0.3-0.9,0.6-1.2,1.1c-0.3,0.5-0.4,1-0.4,1.6s0.1,1.1,0.4,1.6
		c0.3,0.5,0.7,0.9,1.2,1.1c0.5,0.3,1.1,0.4,1.7,0.4c0.6,0,1.2-0.1,1.7-0.4c0.5-0.3,0.9-0.7,1.2-1.1c0.3-0.5,0.4-1,0.4-1.6
		S12.6,142.1,12.3,141.6z"/>
	<path class="st1" d="M5.1,127.3c0.4-0.7,1-1.3,1.8-1.7s1.6-0.6,2.6-0.6h3.8c0.9,0,1.8,0.2,2.6,0.6c0.8,0.4,1.4,1,1.8,1.8
		c0.4,0.8,0.7,1.6,0.7,2.6c0,0.9-0.2,1.7-0.5,2.4c-0.3,0.7-0.8,1.4-1.5,1.9c-0.2,0.1-0.3,0.2-0.5,0.2c-0.2,0-0.5-0.1-0.6-0.4
		c-0.1-0.2-0.2-0.3-0.2-0.5c0-0.3,0.1-0.5,0.4-0.7c0.4-0.3,0.7-0.7,1-1.2c0.2-0.5,0.3-1,0.3-1.7c0-0.6-0.1-1.1-0.4-1.6
		c-0.3-0.5-0.7-0.9-1.2-1.1c-0.5-0.3-1.2-0.4-1.9-0.4h-0.9c0.7,0.4,1.2,0.9,1.5,1.5c0.4,0.6,0.6,1.3,0.6,2c0,0.9-0.2,1.7-0.6,2.4
		c-0.4,0.7-1,1.2-1.8,1.6c-0.7,0.4-1.6,0.6-2.5,0.6c-1,0-1.8-0.2-2.6-0.6c-0.7-0.4-1.3-1-1.8-1.7s-0.6-1.6-0.6-2.5
		C4.4,128.9,4.6,128,5.1,127.3z M12.3,128.2c-0.3-0.5-0.7-0.9-1.2-1.1c-0.5-0.3-1.1-0.4-1.7-0.4c-0.6,0-1.2,0.1-1.7,0.4
		c-0.5,0.3-0.9,0.6-1.2,1.1c-0.3,0.5-0.4,1-0.4,1.6s0.1,1.1,0.4,1.6c0.3,0.5,0.7,0.9,1.2,1.1c0.5,0.3,1.1,0.4,1.7,0.4
		c0.6,0,1.2-0.1,1.7-0.4c0.5-0.3,0.9-0.7,1.2-1.1c0.3-0.5,0.4-1,0.4-1.6S12.6,128.7,12.3,128.2z"/>
</g>
<g class="st0">
	<path class="st1" d="M4.7,114.7c0.2-0.4,0.4-0.5,0.7-0.5c0.1,0,0.1,0,0.2,0c0.4,0.1,0.6,0.3,0.6,0.7c0,0.1,0,0.1,0,0.3
		C6,115.6,6,116,6,116.3c0,0.9,0.2,1.5,0.6,2.1c0.4,0.5,0.9,0.8,1.6,0.8h5.2c0.3,0,0.5,0.1,0.7,0.2c0.2,0.1,0.2,0.4,0.2,0.7
		c0,0.3-0.1,0.5-0.2,0.7c-0.1,0.2-0.4,0.2-0.7,0.2h-8c-0.3,0-0.5-0.1-0.7-0.2c-0.2-0.2-0.2-0.4-0.2-0.7c0-0.6,0.3-0.9,0.9-0.9h0.3
		c-0.4-0.4-0.7-0.8-1-1.3c-0.2-0.5-0.4-1.1-0.4-1.7C4.4,115.5,4.5,115.1,4.7,114.7z"/>
</g>
<g class="st0">
	<path class="st1" d="M5.1,104.8c0.4-0.7,1-1.3,1.8-1.8c0.8-0.4,1.6-0.7,2.5-0.7h4c0.3,0,0.5,0.1,0.7,0.3c0.2,0.2,0.3,0.4,0.3,0.7
		c0,0.3-0.1,0.5-0.3,0.7c-0.2,0.2-0.4,0.3-0.7,0.3h-0.7c0.5,0.4,0.9,0.9,1.2,1.5c0.3,0.6,0.4,1.2,0.4,1.9c0,0.9-0.2,1.6-0.6,2.3
		c-0.4,0.7-1,1.2-1.8,1.6c-0.8,0.4-1.6,0.6-2.5,0.6c-0.9,0-1.8-0.2-2.5-0.6c-0.8-0.4-1.3-1-1.8-1.8c-0.4-0.8-0.7-1.6-0.7-2.5
		C4.4,106.3,4.6,105.5,5.1,104.8z M12.3,105.6c-0.3-0.5-0.7-0.9-1.2-1.1s-1.1-0.4-1.7-0.4c-0.6,0-1.2,0.1-1.7,0.4s-0.9,0.7-1.2,1.1
		c-0.3,0.5-0.4,1-0.4,1.6s0.1,1.1,0.4,1.6c0.3,0.5,0.7,0.9,1.2,1.1s1.1,0.4,1.7,0.4c0.6,0,1.2-0.1,1.7-0.4s0.9-0.7,1.2-1.1
		c0.3-0.5,0.4-1,0.4-1.6S12.6,106.1,12.3,105.6z"/>
	<path class="st1" d="M5.4,85.7c0.7-0.6,1.6-1,2.8-1h5.1c0.3,0,0.5,0.1,0.7,0.2c0.2,0.2,0.3,0.4,0.3,0.7c0,0.3-0.1,0.5-0.3,0.7
		c-0.2,0.2-0.4,0.3-0.7,0.3H8.2c-0.7,0-1.3,0.2-1.6,0.5C6.2,87.4,6,87.9,6,88.5c0,0.6,0.2,1.1,0.6,1.5c0.4,0.4,1,0.6,1.6,0.6h5
		c0.3,0,0.5,0.1,0.7,0.2c0.2,0.2,0.3,0.4,0.3,0.7c0,0.3-0.1,0.5-0.3,0.7c-0.2,0.2-0.4,0.3-0.7,0.3H8.2c-0.7,0-1.3,0.2-1.6,0.5
		C6.2,93.4,6,93.8,6,94.4c0,0.6,0.2,1.1,0.6,1.5c0.4,0.4,1,0.6,1.6,0.6h5c0.3,0,0.5,0.1,0.7,0.2c0.2,0.2,0.3,0.4,0.3,0.7
		c0,0.3-0.1,0.5-0.3,0.7c-0.2,0.2-0.4,0.3-0.7,0.3H5.4c-0.3,0-0.5-0.1-0.7-0.3s-0.2-0.4-0.2-0.7s0.1-0.5,0.2-0.6
		c0.2-0.2,0.4-0.3,0.6-0.3c-0.3-0.3-0.5-0.7-0.7-1.1c-0.2-0.4-0.3-0.9-0.3-1.4c0-0.6,0.1-1.1,0.4-1.6c0.2-0.5,0.6-0.9,1-1.2
		c-0.4-0.4-0.8-0.8-1-1.3c-0.2-0.5-0.4-1.1-0.4-1.8C4.4,87.1,4.7,86.3,5.4,85.7z"/>
	<path class="st1" d="M13.5,63c0.2,0,0.3,0.1,0.5,0.2c0.2,0.2,0.3,0.4,0.3,0.6c0,0.2-0.1,0.4-0.3,0.6l-2,2l0.1,0.1
		c0.8,0.7,1.3,1.4,1.8,2.1c0.4,0.7,0.6,1.5,0.6,2.4c0,1.1-0.3,2.1-0.9,2.7c-0.6,0.7-1.5,1-2.5,1c-0.7,0-1.4-0.2-2.1-0.7
		c-0.6-0.5-1.4-1.2-2.2-2.2l-0.1-0.1l-0.9,0.9C4.9,73.5,4,73.9,3,73.9c-0.6,0-1.1-0.1-1.5-0.4c-0.5-0.3-0.8-0.7-1.1-1.2
		C0.1,71.8,0,71.2,0,70.6c0-0.6,0.1-1.2,0.4-1.7s0.7-0.9,1.1-1.2c0.5-0.3,1-0.4,1.6-0.4c0.7,0,1.3,0.2,1.8,0.5
		c0.5,0.3,1.1,0.9,1.8,1.7l3.2-3.2l-1.5-1.4C8.1,64.7,8,64.5,8,64.3c0-0.1,0.1-0.3,0.2-0.4c0.2-0.2,0.4-0.3,0.6-0.3
		c0.2,0,0.4,0.1,0.6,0.2l1.5,1.5l2-2C13.1,63.1,13.3,63,13.5,63z M5.7,70.5l-0.1-0.2c-0.5-0.6-0.9-1-1.3-1.2
		c-0.4-0.2-0.8-0.3-1.2-0.3c-0.5,0-0.9,0.2-1.2,0.5c-0.3,0.3-0.5,0.7-0.5,1.3c0,0.5,0.2,0.9,0.5,1.3c0.3,0.3,0.7,0.5,1.1,0.5
		c0.6,0,1.2-0.3,1.8-0.9L5.7,70.5z M11,67.4l-3.3,3.3L7.8,71c0.5,0.7,1.1,1.2,1.6,1.6c0.5,0.4,1,0.5,1.5,0.5c0.7,0,1.2-0.2,1.5-0.5
		c0.3-0.4,0.5-0.9,0.5-1.6c0-0.7-0.2-1.3-0.5-1.8c-0.3-0.5-0.8-1.1-1.4-1.7L11,67.4z"/>
	<path class="st1" d="M5.1,46.3c0.4-0.7,1-1.3,1.8-1.7s1.6-0.6,2.6-0.6h3.8c0.9,0,1.8,0.2,2.6,0.6c0.8,0.4,1.4,1,1.8,1.8
		c0.4,0.8,0.7,1.6,0.7,2.6c0,0.9-0.2,1.7-0.5,2.4c-0.3,0.7-0.8,1.4-1.5,1.9c-0.2,0.1-0.3,0.2-0.5,0.2c-0.2,0-0.5-0.1-0.6-0.4
		c-0.1-0.2-0.2-0.3-0.2-0.5c0-0.3,0.1-0.5,0.4-0.7c0.4-0.3,0.7-0.7,1-1.2c0.2-0.5,0.3-1,0.3-1.7c0-0.6-0.1-1.1-0.4-1.6
		c-0.3-0.5-0.7-0.9-1.2-1.1c-0.5-0.3-1.2-0.4-1.9-0.4h-0.9c0.7,0.4,1.2,0.9,1.5,1.5s0.6,1.3,0.6,2c0,0.9-0.2,1.7-0.6,2.4
		c-0.4,0.7-1,1.2-1.8,1.6c-0.7,0.4-1.6,0.6-2.5,0.6c-1,0-1.8-0.2-2.6-0.6c-0.7-0.4-1.3-1-1.8-1.7c-0.4-0.7-0.6-1.6-0.6-2.5
		C4.4,47.9,4.6,47,5.1,46.3z M12.3,47.2c-0.3-0.5-0.7-0.9-1.2-1.1c-0.5-0.3-1.1-0.4-1.7-0.4c-0.6,0-1.2,0.1-1.7,0.4
		c-0.5,0.3-0.9,0.6-1.2,1.1c-0.3,0.5-0.4,1-0.4,1.6s0.1,1.1,0.4,1.6c0.3,0.5,0.7,0.9,1.2,1.1C8.2,51.9,8.7,52,9.4,52
		c0.6,0,1.2-0.1,1.7-0.4c0.5-0.3,0.9-0.7,1.2-1.1c0.3-0.5,0.4-1,0.4-1.6S12.6,47.7,12.3,47.2z"/>
	<path class="st1" d="M5.1,33.1c0.4-0.7,1-1.3,1.8-1.8c0.8-0.4,1.6-0.7,2.5-0.7h4c0.3,0,0.5,0.1,0.7,0.3c0.2,0.2,0.3,0.4,0.3,0.7
		c0,0.3-0.1,0.5-0.3,0.7c-0.2,0.2-0.4,0.3-0.7,0.3h-0.7c0.5,0.4,0.9,0.9,1.2,1.5c0.3,0.6,0.4,1.2,0.4,1.9c0,0.9-0.2,1.6-0.6,2.3
		c-0.4,0.7-1,1.2-1.8,1.6c-0.8,0.4-1.6,0.6-2.5,0.6c-0.9,0-1.8-0.2-2.5-0.6c-0.8-0.4-1.3-1-1.8-1.8c-0.4-0.8-0.7-1.6-0.7-2.5
		C4.4,34.6,4.6,33.8,5.1,33.1z M12.3,33.9c-0.3-0.5-0.7-0.9-1.2-1.1c-0.5-0.3-1.1-0.4-1.7-0.4c-0.6,0-1.2,0.1-1.7,0.4
		c-0.5,0.3-0.9,0.7-1.2,1.1C6.2,34.4,6,35,6,35.6c0,0.6,0.1,1.1,0.4,1.6c0.3,0.5,0.7,0.9,1.2,1.1c0.5,0.3,1.1,0.4,1.7,0.4
		c0.6,0,1.2-0.1,1.7-0.4c0.5-0.3,0.9-0.7,1.2-1.1c0.3-0.5,0.4-1,0.4-1.6C12.7,35,12.6,34.4,12.3,33.9z"/>
	<path class="st1" d="M5.4,14c0.7-0.6,1.6-1,2.8-1h5.1c0.3,0,0.5,0.1,0.7,0.2c0.2,0.2,0.3,0.4,0.3,0.7c0,0.3-0.1,0.5-0.3,0.7
		c-0.2,0.2-0.4,0.3-0.7,0.3H8.2c-0.7,0-1.3,0.2-1.6,0.5C6.2,15.7,6,16.2,6,16.8c0,0.6,0.2,1.1,0.6,1.5c0.4,0.4,1,0.6,1.6,0.6h5
		c0.3,0,0.5,0.1,0.7,0.2c0.2,0.2,0.3,0.4,0.3,0.7c0,0.3-0.1,0.5-0.3,0.7c-0.2,0.2-0.4,0.3-0.7,0.3H8.2c-0.7,0-1.3,0.2-1.6,0.5
		C6.2,21.7,6,22.1,6,22.7c0,0.6,0.2,1.1,0.6,1.5s1,0.6,1.6,0.6h5c0.3,0,0.5,0.1,0.7,0.2c0.2,0.2,0.3,0.4,0.3,0.7
		c0,0.3-0.1,0.5-0.3,0.7c-0.2,0.2-0.4,0.3-0.7,0.3H5.4c-0.3,0-0.5-0.1-0.7-0.3c-0.2-0.2-0.2-0.4-0.2-0.7c0-0.3,0.1-0.5,0.2-0.6
		c0.2-0.2,0.4-0.3,0.6-0.3c-0.3-0.3-0.5-0.7-0.7-1.1c-0.2-0.4-0.3-0.9-0.3-1.4c0-0.6,0.1-1.1,0.4-1.6c0.2-0.5,0.6-0.9,1-1.2
		c-0.4-0.4-0.8-0.8-1-1.3c-0.2-0.5-0.4-1.1-0.4-1.8C4.4,15.4,4.7,14.6,5.4,14z"/>
	<path class="st1" d="M9.8,0.2C9.9,0.4,10,0.6,10,0.8v6.8c0.8-0.1,1.5-0.5,2-1.1c0.5-0.6,0.8-1.4,0.8-2.3c0-0.4-0.1-0.7-0.2-1.1
		c-0.1-0.4-0.3-0.7-0.5-1c-0.1-0.2-0.2-0.4-0.2-0.6S12,1.1,12.1,1c0.2-0.2,0.4-0.3,0.6-0.3c0.2,0,0.4,0.1,0.5,0.3
		c0.3,0.4,0.6,0.9,0.8,1.5c0.2,0.6,0.3,1.2,0.3,1.7c0,1-0.2,1.8-0.6,2.6c-0.4,0.8-1,1.4-1.8,1.8C11.2,9,10.3,9.2,9.4,9.2
		C8.4,9.2,7.6,9,6.8,8.6c-0.8-0.4-1.3-1-1.8-1.7S4.4,5.4,4.4,4.4c0-0.9,0.2-1.7,0.6-2.4c0.4-0.7,1-1.2,1.7-1.5C7.4,0.2,8.3,0,9.2,0
		C9.4,0,9.6,0.1,9.8,0.2z M6.7,6.5c0.5,0.5,1.1,0.9,1.9,1V1.6C7.8,1.7,7.1,2,6.7,2.5C6.2,3,5.9,3.7,5.9,4.4C5.9,5.3,6.2,6,6.7,6.5z"
		/>
</g>
</svg>
