<svg id="图层_1" data-name="图层 1" xmlns="http://www.w3.org/2000/svg" viewBox="0 0 573.45 573.45"><defs><style>.cls-1{fill:#1d0f40;opacity:0.48;isolation:isolate;}</style></defs><title>striptexture</title><rect class="cls-1" x="339.71" y="-140.71" width="7.49" height="405.49" transform="translate(140.71 345.01) rotate(-45)"/><rect class="cls-1" x="326.31" y="-127.31" width="7.49" height="405.49" transform="translate(127.31 339.46) rotate(-45)"/><rect class="cls-1" x="312.91" y="-113.91" width="7.49" height="405.49" transform="translate(113.91 333.91) rotate(-45)"/><rect class="cls-1" x="299.51" y="-100.51" width="7.49" height="405.49" transform="translate(100.51 328.36) rotate(-45)"/><rect class="cls-1" x="286.11" y="-87.11" width="7.49" height="405.49" transform="translate(87.11 322.81) rotate(-45)"/><rect class="cls-1" x="272.71" y="-73.71" width="7.49" height="405.49" transform="translate(73.71 317.26) rotate(-45)"/><rect class="cls-1" x="259.31" y="-60.31" width="7.49" height="405.49" transform="translate(60.31 311.71) rotate(-45)"/><rect class="cls-1" x="245.9" y="-46.9" width="7.49" height="405.49" transform="translate(46.9 306.15) rotate(-45)"/><rect class="cls-1" x="232.5" y="-33.5" width="7.49" height="405.49" transform="translate(33.5 300.6) rotate(-45)"/><rect class="cls-1" x="219.1" y="-20.1" width="7.49" height="405.49" transform="translate(20.1 295.05) rotate(-45)"/><rect class="cls-1" x="205.7" y="-6.7" width="7.49" height="405.49" transform="translate(6.7 289.5) rotate(-45)"/><rect class="cls-1" x="192.3" y="6.7" width="7.49" height="405.49" transform="translate(-6.7 283.95) rotate(-45)"/><rect class="cls-1" x="178.9" y="20.1" width="7.49" height="405.49" transform="translate(-20.1 278.4) rotate(-45)"/><rect class="cls-1" x="165.5" y="33.5" width="7.49" height="405.49" transform="translate(-33.5 272.85) rotate(-45)"/><rect class="cls-1" x="152.1" y="46.9" width="7.49" height="405.49" transform="translate(-46.9 267.3) rotate(-45)"/><rect class="cls-1" x="138.69" y="60.31" width="7.49" height="405.49" transform="translate(-60.31 261.74) rotate(-45)"/><rect class="cls-1" x="125.29" y="73.71" width="7.49" height="405.49" transform="translate(-73.71 256.19) rotate(-45)"/><rect class="cls-1" x="111.89" y="87.11" width="7.49" height="405.49" transform="translate(-87.11 250.64) rotate(-45)"/><rect class="cls-1" x="98.49" y="100.51" width="7.49" height="405.49" transform="translate(-100.51 245.09) rotate(-45)"/><rect class="cls-1" x="85.09" y="113.91" width="7.49" height="405.49" transform="translate(-113.91 239.54) rotate(-45)"/><rect class="cls-1" x="71.69" y="127.31" width="7.49" height="405.49" transform="translate(-127.31 233.99) rotate(-45)"/><rect class="cls-1" x="58.29" y="140.71" width="7.49" height="405.49" transform="translate(-140.71 228.44) rotate(-45)"/></svg>