<?xml version="1.0" encoding="utf-8"?>
<!DOCTYPE svg PUBLIC "-//W3C//DTD SVG 1.1//EN" 
  "http://www.w3.org/Graphics/SVG/1.1/DTD/svg11.dtd">
<svg id="图层_1" data-name="图层 1" xmlns="http://www.w3.org/2000/svg" viewBox="0 0 23.95 23.93"><defs><style>.cls-1{fill:#fff;}</style></defs><title>youtube</title><path class="cls-1" id="youtube-1" d="M-11-8.46a12,12,0,0,0-12,12,12,12,0,0,0,12,12,12,12,0,0,0,12-12A11.91,11.91,0,0,0-11-8.46Zm0,23.21A11.26,11.26,0,0,1-22.25,3.49,11.22,11.22,0,0,1-11-7.74,11.21,11.21,0,0,1,.27,3.49,11.26,11.26,0,0,1-11,14.75Z" transform="translate(22.97 8.46)"/><path class="cls-1" id="youtube-1" d="M-4,.63A2.65,2.65,0,0,0-4.51-.73,1.94,1.94,0,0,0-6-1.36c-1.94-.12-4.92-.12-4.92-.12h0s-3,0-4.95.12a2,2,0,0,0-1.44.62A2.64,2.64,0,0,0-17.86.63,19.07,19.07,0,0,0-18,3V4a18.3,18.3,0,0,0,.17,2.3,2.77,2.77,0,0,0,.53,1.39,2.68,2.68,0,0,0,1.58.62c1.15.12,4.85.14,4.85.14s3,0,4.92-.14a2.41,2.41,0,0,0,1.46-.62A2.78,2.78,0,0,0-4,6.32,18.3,18.3,0,0,0-3.82,4V3A19.07,19.07,0,0,0-4,.63Zm-9.29,5.62V.39l5.62,2.93Z" transform="translate(22.97 8.46)"/></svg>