<svg xmlns="http://www.w3.org/2000/svg" viewBox="0 0 18.15 98.28"><defs><style>.cls-1{fill:#f2f2f2;}</style></defs><title>资源 31</title><g id="图层_2" data-name="图层 2"><g id="图层_1-2" data-name="图层 1"><rect class="cls-1" width="18.15" height="98.28"/><path d="M15.51,9.31,12,9.55V9.31A4.39,4.39,0,0,0,14.27,8,3.26,3.26,0,0,0,15,5.88,3.4,3.4,0,0,0,14.44,4a3.43,3.43,0,0,0-1.65-1.3A7.36,7.36,0,0,0,10,2.27a6,6,0,0,0-2.41.45A3.34,3.34,0,0,0,6,4.06a3.86,3.86,0,0,0-.54,2,3.55,3.55,0,0,0,.43,1.76,5.81,5.81,0,0,0,1.7,1.68l-.15.23a5.39,5.39,0,0,1-2-1.8,4.56,4.56,0,0,1-.64-2.44A4.63,4.63,0,0,1,6.67,1.59,5.41,5.41,0,0,1,10,.54a5.88,5.88,0,0,1,2.82.69,5,5,0,0,1,2,1.9,5.12,5.12,0,0,1,.71,2.64A4.83,4.83,0,0,1,15,8a1.19,1.19,0,0,0-.17.45.5.5,0,0,0,.14.36,1.18,1.18,0,0,0,.57.28Z"/><path d="M6,17.83a11.41,11.41,0,0,1-1-1.34,2,2,0,0,1-.19-.87,1.56,1.56,0,0,1,.49-1.18A1.81,1.81,0,0,1,6.65,14a1.65,1.65,0,0,1,.88.23,3,3,0,0,1,1,1.08,16.78,16.78,0,0,1,1.1,2.55h.27a2.26,2.26,0,0,0,1.42-.33,1.19,1.19,0,0,0,.39-1,1.08,1.08,0,0,0-.26-.76.77.77,0,0,0-.59-.29l-.44,0a.75.75,0,0,1-.54-.18.61.61,0,0,1-.19-.47.59.59,0,0,1,.2-.46.77.77,0,0,1,.54-.18,1.55,1.55,0,0,1,1.2.67,2.87,2.87,0,0,1,.54,1.87,3.24,3.24,0,0,1-.31,1.51,1.43,1.43,0,0,1-.73.66,4.14,4.14,0,0,1-1.33.14H7.42a10.76,10.76,0,0,0-1.21,0,.51.51,0,0,0-.3.12.3.3,0,0,0-.08.2.41.41,0,0,0,.05.21,4.72,4.72,0,0,0,.55.61H6q-1.13-.85-1.13-1.62a.74.74,0,0,1,.26-.59A1.39,1.39,0,0,1,6,17.83Zm.49,0H9.14a15,15,0,0,0-.64-1.48,2.55,2.55,0,0,0-.7-.85A1.34,1.34,0,0,0,7,15.24a1.3,1.3,0,0,0-.9.33,1,1,0,0,0-.36.75A2.75,2.75,0,0,0,6.5,17.83Z"/><path d="M12.15,28.36H9.79v-.25a3.07,3.07,0,0,0,1.51-.74,1.66,1.66,0,0,0,.4-1.15,1.26,1.26,0,0,0-.28-.85A.81.81,0,0,0,10.8,25a1.13,1.13,0,0,0-.73.24,2.69,2.69,0,0,0-.66,1l-.54,1.1a2.25,2.25,0,0,1-2,1.54,1.87,1.87,0,0,1-1.52-.71,2.48,2.48,0,0,1-.58-1.6A5.5,5.5,0,0,1,5,25.11a1.48,1.48,0,0,0,.08-.41.3.3,0,0,0-.2-.27v-.25H7.38v.25a2.81,2.81,0,0,0-1.6.81,2,2,0,0,0-.54,1.34,1.2,1.2,0,0,0,.31.85,1,1,0,0,0,.74.33,1.17,1.17,0,0,0,.88-.37,6.41,6.41,0,0,0,.9-1.46,4.34,4.34,0,0,1,1-1.44,1.7,1.7,0,0,1,1.09-.34,1.92,1.92,0,0,1,1.43.59,2.07,2.07,0,0,1,.58,1.52,3.57,3.57,0,0,1-.17,1,2.34,2.34,0,0,0-.11.51.3.3,0,0,0,.05.19.73.73,0,0,0,.23.16Z"/><path d="M9.33,34.17a3.56,3.56,0,0,0-2.42.75A2.28,2.28,0,0,0,6,36.7a1.93,1.93,0,0,0,.37,1.18,2.76,2.76,0,0,0,1.28.84L7.54,39A3.61,3.61,0,0,1,5.65,38a2.47,2.47,0,0,1-.85-1.91,2.8,2.8,0,0,1,1-2.14,3.72,3.72,0,0,1,2.61-.89,4,4,0,0,1,2.77.91,3,3,0,0,1,1,2.29,2.56,2.56,0,0,1-.77,1.91A2.82,2.82,0,0,1,9.33,39Zm.44,0v3.21a3,3,0,0,0,.94-.16,1.5,1.5,0,0,0,.67-.56,1.42,1.42,0,0,0,.24-.78,1.56,1.56,0,0,0-.49-1.12A2.12,2.12,0,0,0,9.77,34.17Z"/><path d="M15.51,56.58H12V56.3a4.42,4.42,0,0,0,1.63-.49,2.54,2.54,0,0,0,1-1,2.77,2.77,0,0,0,.36-1.35,1.83,1.83,0,0,0-.48-1.3,1.46,1.46,0,0,0-1.09-.51,1.29,1.29,0,0,0-.85.33A8.36,8.36,0,0,0,11,54.2a15.44,15.44,0,0,1-1.18,2,2.89,2.89,0,0,1-1,.81,2.56,2.56,0,0,1-1.17.28,2.66,2.66,0,0,1-2-.9A3.27,3.27,0,0,1,4.78,54a4.92,4.92,0,0,1,.07-.84,8.59,8.59,0,0,1,.28-1,4.36,4.36,0,0,0,.24-.93.4.4,0,0,0-.11-.3.9.9,0,0,0-.47-.16v-.28H8.3v.28a5,5,0,0,0-1.65.53,2.54,2.54,0,0,0-.91,1,3.16,3.16,0,0,0-.36,1.5,2.14,2.14,0,0,0,.5,1.49A1.55,1.55,0,0,0,7,55.91a1.6,1.6,0,0,0,.76-.21,2.28,2.28,0,0,0,.72-.65,18.55,18.55,0,0,0,1-1.61,15.63,15.63,0,0,1,1.18-1.87,3.17,3.17,0,0,1,1-.84,2.4,2.4,0,0,1,1.17-.29,2.53,2.53,0,0,1,1.9.85,3,3,0,0,1,.8,2.16,4.33,4.33,0,0,1-.4,1.73,1.78,1.78,0,0,0-.19.6.45.45,0,0,0,.12.32.94.94,0,0,0,.47.2Z"/><path d="M14.22,63.68H11.94V65.3h-.53V63.68H6.92a1.51,1.51,0,0,0-.91.19.61.61,0,0,0-.23.5.87.87,0,0,0,.16.48,1,1,0,0,0,.46.36v.3a2.37,2.37,0,0,1-1.12-.75,1.62,1.62,0,0,1-.37-1,1.34,1.34,0,0,1,.19-.68,1.17,1.17,0,0,1,.55-.49,2.9,2.9,0,0,1,1.11-.16h4.66v-1.1h.25a2.87,2.87,0,0,0,.56.85,4.48,4.48,0,0,0,.94.78,8.48,8.48,0,0,0,1.05.48Z"/><path d="M11.94,75.15H7.74a10.54,10.54,0,0,0-1.47.06.66.66,0,0,0-.37.18.44.44,0,0,0-.11.29,1.35,1.35,0,0,0,.13.53l-.26.11L4.8,74.24V73.9H6.27a6.31,6.31,0,0,1-1.22-1.36,2.08,2.08,0,0,1-.25-1,1.58,1.58,0,0,1,.34-1A1.74,1.74,0,0,1,6,69.95a5.23,5.23,0,0,1,1.5-.17H10.6a1.53,1.53,0,0,0,.68-.11.71.71,0,0,0,.29-.31,1.85,1.85,0,0,0,.09-.75h.28V71H7.31A1.73,1.73,0,0,0,6,71.37a1.17,1.17,0,0,0-.3.81,1.7,1.7,0,0,0,.2.74,4,4,0,0,0,.78,1h3.93a1.11,1.11,0,0,0,.8-.22,1.4,1.4,0,0,0,.22-.9h.28Z"/><path d="M5.79,84.82a3.5,3.5,0,0,1-.76-1,2.4,2.4,0,0,1-.23-1,2.58,2.58,0,0,1,.95-2A3.53,3.53,0,0,1,8.19,80a4.41,4.41,0,0,1,2.73.94,2.9,2.9,0,0,1,1.24,2.41,2.08,2.08,0,0,1-.58,1.51h1.28a10.46,10.46,0,0,0,1.46-.06.64.64,0,0,0,.37-.18.46.46,0,0,0,.1-.3,1.6,1.6,0,0,0-.12-.52l.26-.1.85,2.07v.34h-8a10.72,10.72,0,0,0-1.49.06.66.66,0,0,0-.37.18.44.44,0,0,0-.11.29,1.64,1.64,0,0,0,.13.54l-.26.08L4.8,85.17v-.35Zm.53,0H9.89a2.41,2.41,0,0,0,.94-.27,1.57,1.57,0,0,0,.64-.6,1.46,1.46,0,0,0,.22-.73,1.55,1.55,0,0,0-.6-1.19,3.4,3.4,0,0,0-2.3-.69A3.61,3.61,0,0,0,6.45,82a1.91,1.91,0,0,0-.81,1.48A1.84,1.84,0,0,0,6.32,84.82Z"/><path d="M11.94,90.38v3.23h-.28v-.16a.76.76,0,0,0-.15-.51.47.47,0,0,0-.37-.17,2.08,2.08,0,0,0-.82.25L6.84,94.7l3.83,1.55a1.59,1.59,0,0,0,.61.13.33.33,0,0,0,.2-.05.41.41,0,0,0,.13-.19,1.43,1.43,0,0,0,0-.45h.28v2.25h-.28a1.07,1.07,0,0,0-.12-.43,1.25,1.25,0,0,0-.34-.33,4.72,4.72,0,0,0-.58-.26L3.7,94.1A3.57,3.57,0,0,1,2.18,93a2.1,2.1,0,0,1-.51-1.27A1.06,1.06,0,0,1,1.93,91a.77.77,0,0,1,.59-.29.66.66,0,0,1,.51.21.81.81,0,0,1,.19.57,2,2,0,0,1-.17.68,1.62,1.62,0,0,0-.11.38.79.79,0,0,0,.23.5,2.47,2.47,0,0,0,.91.54l1.2.49,5.23-2.49a4.19,4.19,0,0,0,.58-.36,1.72,1.72,0,0,0,.36-.31,1.71,1.71,0,0,0,.21-.56Z"/></g></g></svg>