<svg xmlns="http://www.w3.org/2000/svg" viewBox="0 0 21.58 10.39"><title>资源 23</title><g id="图层_2" data-name="图层 2"><g id="图层_1-2" data-name="图层 1"><path d="M8.49,0l.23,3.38H8.49a4.25,4.25,0,0,0-1.3-2.18,3.16,3.16,0,0,0-2-.67A3.29,3.29,0,0,0,3.38,1a3.32,3.32,0,0,0-1.26,1.6,7.12,7.12,0,0,0-.46,2.73A5.8,5.8,0,0,0,2.1,7.7,3.24,3.24,0,0,0,3.4,9.21a3.74,3.74,0,0,0,2,.53,3.44,3.44,0,0,0,1.71-.41A5.63,5.63,0,0,0,8.72,7.68l.23.15A5.21,5.21,0,0,1,7.2,9.77a4.41,4.41,0,0,1-2.37.62A4.48,4.48,0,0,1,1,8.55,5.24,5.24,0,0,1,0,5.35,5.7,5.7,0,0,1,.67,2.61,4.82,4.82,0,0,1,2.5.69,5,5,0,0,1,5.05,0,4.68,4.68,0,0,1,7.18.53a1.15,1.15,0,0,0,.44.16A.48.48,0,0,0,8,.55,1.14,1.14,0,0,0,8.23,0Z"/><path d="M10.77.23h2.7l6.07,7.45V1.95A2,2,0,0,0,19.33.81,1.09,1.09,0,0,0,18.47.5h-.34V.23h3.46V.5h-.35a1,1,0,0,0-.89.38,2.22,2.22,0,0,0-.16,1.07v8.37h-.26l-6.55-8V8.44a2,2,0,0,0,.2,1.14,1.1,1.1,0,0,0,.86.31h.35v.27H11.31V9.89h.34a1,1,0,0,0,.9-.38,2.22,2.22,0,0,0,.16-1.07V1.53a4.55,4.55,0,0,0-.66-.67,2.42,2.42,0,0,0-.66-.3A2.33,2.33,0,0,0,10.77.5Z"/></g></g></svg>