<svg xmlns="http://www.w3.org/2000/svg" viewBox="0 0 99 99"><defs><style>.cls-1{fill:#f2f2f2;stroke:#000;stroke-miterlimit:10;}</style></defs><title>资源 27</title><g id="图层_2" data-name="图层 2"><g id="图层_1-2" data-name="图层 1"><circle class="cls-1" cx="49.5" cy="49.5" r="49"/><path d="M20,31v-.14h.2a.53.53,0,0,0,.48-.21,1.23,1.23,0,0,0,.09-.58V26.64a1.1,1.1,0,0,0-.11-.62.57.57,0,0,0-.45-.17H20V25.7h2.16a4.71,4.71,0,0,1,1.81.27,2.15,2.15,0,0,1,1,.9,2.77,2.77,0,0,1,.38,1.45,2.65,2.65,0,0,1-.67,1.85,3,3,0,0,1-2.3.83Zm1.51-.38a4,4,0,0,0,.83.11,2,2,0,0,0,1.5-.64,2.8,2.8,0,0,0,0-3.46A2,2,0,0,0,22.3,26a3.31,3.31,0,0,0-.8.11Z"/><path d="M30.15,25.58a2.4,2.4,0,0,1,1.79.78,2.7,2.7,0,0,1,.76,2,2.78,2.78,0,0,1-.76,2,2.55,2.55,0,0,1-3.68,0,2.79,2.79,0,0,1-.74-2,2.68,2.68,0,0,1,.86-2.06A2.54,2.54,0,0,1,30.15,25.58Zm-.07.29a1.4,1.4,0,0,0-1.14.53,3,3,0,0,0-.54,1.92,3.15,3.15,0,0,0,.55,2,1.37,1.37,0,0,0,1.13.53,1.54,1.54,0,0,0,1.23-.58,2.84,2.84,0,0,0,.49-1.84,3.21,3.21,0,0,0-.54-2A1.44,1.44,0,0,0,30.08,25.87Z"/><path d="M42.09,25.7v.14a.67.67,0,0,0-.34.07.73.73,0,0,0-.25.28,4.49,4.49,0,0,0-.25.65l-1.48,4.27h-.16l-1.21-3.39-1.2,3.39h-.14l-1.57-4.4q-.18-.49-.22-.58a.51.51,0,0,0-.21-.22.77.77,0,0,0-.37-.07V25.7h2v.14h-.09a.47.47,0,0,0-.32.09.29.29,0,0,0-.11.23,2.69,2.69,0,0,0,.17.63l1,3,.88-2.53-.16-.45L38,26.44a1.92,1.92,0,0,0-.18-.34.48.48,0,0,0-.12-.12.71.71,0,0,0-.2-.1.85.85,0,0,0-.23,0V25.7h2.06v.14h-.14a.46.46,0,0,0-.32.09.33.33,0,0,0-.1.25,2.51,2.51,0,0,0,.18.7l1,2.88,1-2.92a2.45,2.45,0,0,0,.17-.67A.28.28,0,0,0,41,26a.3.3,0,0,0-.14-.11,1.14,1.14,0,0,0-.39-.05V25.7Z"/><path d="M43.65,25.7h1.44l3.24,4V26.62a1.05,1.05,0,0,0-.11-.61.58.58,0,0,0-.46-.16h-.18V25.7h1.84v.14h-.19a.54.54,0,0,0-.48.2,1.19,1.19,0,0,0-.09.57v4.46h-.14L45,26.82v3.26a1.08,1.08,0,0,0,.11.61.59.59,0,0,0,.46.16h.19V31H43.94v-.14h.18a.54.54,0,0,0,.48-.2,1.19,1.19,0,0,0,.09-.57V26.4a2.41,2.41,0,0,0-.35-.36,1.28,1.28,0,0,0-.35-.16,1.25,1.25,0,0,0-.34,0Z"/><path d="M55.72,29.54l.13,0L55.39,31h-4.1v-.14h.2a.53.53,0,0,0,.48-.22,1.26,1.26,0,0,0,.08-.58V26.64a1.1,1.1,0,0,0-.11-.62.57.57,0,0,0-.45-.17h-.2V25.7h2.4v.14a1.47,1.47,0,0,0-.59.08.48.48,0,0,0-.23.21,1.71,1.71,0,0,0-.06.6v3.33a1.08,1.08,0,0,0,.06.45.28.28,0,0,0,.14.12,2.54,2.54,0,0,0,.61,0H54a2.8,2.8,0,0,0,.86-.09,1.11,1.11,0,0,0,.45-.32A2.61,2.61,0,0,0,55.72,29.54Z"/><path d="M60.54,25.58a2.4,2.4,0,0,1,1.79.78,2.7,2.7,0,0,1,.76,2,2.78,2.78,0,0,1-.76,2,2.55,2.55,0,0,1-3.68,0,2.79,2.79,0,0,1-.74-2,2.68,2.68,0,0,1,.86-2.06A2.54,2.54,0,0,1,60.54,25.58Zm-.07.29a1.4,1.4,0,0,0-1.14.53,3,3,0,0,0-.54,1.92,3.15,3.15,0,0,0,.55,2,1.37,1.37,0,0,0,1.13.53,1.54,1.54,0,0,0,1.23-.58,2.84,2.84,0,0,0,.49-1.84,3.21,3.21,0,0,0-.54-2A1.44,1.44,0,0,0,60.47,25.87Z"/><path d="M68.66,29.23H66.61l-.36.84a1.33,1.33,0,0,0-.13.46.27.27,0,0,0,.12.21,1,1,0,0,0,.5.12V31H65.06v-.14a.9.9,0,0,0,.43-.15,2.4,2.4,0,0,0,.44-.76l1.86-4.36h.14L69.77,30a2,2,0,0,0,.4.69.82.82,0,0,0,.51.18V31H68.59v-.14a.78.78,0,0,0,.43-.11.27.27,0,0,0,.11-.22A1.62,1.62,0,0,0,69,30Zm-.11-.29-.9-2.14-.92,2.14Z"/><path d="M72.51,31v-.14h.2a.53.53,0,0,0,.48-.21,1.23,1.23,0,0,0,.09-.58V26.64a1.1,1.1,0,0,0-.11-.62.57.57,0,0,0-.45-.17h-.2V25.7h2.16a4.71,4.71,0,0,1,1.81.27,2.15,2.15,0,0,1,1,.9,2.77,2.77,0,0,1,.38,1.45,2.65,2.65,0,0,1-.67,1.85,3,3,0,0,1-2.3.83ZM74,30.62a4,4,0,0,0,.83.11,2,2,0,0,0,1.5-.64,2.8,2.8,0,0,0,0-3.46A2,2,0,0,0,74.82,26a3.31,3.31,0,0,0-.8.11Z"/><path d="M45.18,43l-2-4.46v3.54a1.08,1.08,0,0,0,.11.61.58.58,0,0,0,.46.16h.19V43H42v-.14h.19a.54.54,0,0,0,.48-.2,1.19,1.19,0,0,0,.09-.57V38.62a1.21,1.21,0,0,0-.08-.51.43.43,0,0,0-.2-.19,1.08,1.08,0,0,0-.47-.08V37.7h1.5l1.92,4.14,1.89-4.14h1.5v.14h-.18a.54.54,0,0,0-.48.2,1.19,1.19,0,0,0-.09.57v3.46a1.05,1.05,0,0,0,.11.61.58.58,0,0,0,.46.16h.18V43H46.6v-.14h.19a.53.53,0,0,0,.48-.2,1.19,1.19,0,0,0,.09-.57V38.54l-2,4.46Z"/><path d="M54.43,37.7h1.85v.14h-.1a.79.79,0,0,0-.3.09,1.16,1.16,0,0,0-.36.26,3.5,3.5,0,0,0-.39.55l-1.28,2v1.33a1.05,1.05,0,0,0,.11.61.6.6,0,0,0,.47.16h.17V43H52.35v-.14h.19a.54.54,0,0,0,.48-.2,1.19,1.19,0,0,0,.09-.57V40.83l-1.45-2.22a4.71,4.71,0,0,0-.35-.49,1.37,1.37,0,0,0-.38-.23.52.52,0,0,0-.23,0V37.7H53v.14h-.12a.68.68,0,0,0-.34.09.28.28,0,0,0-.15.26,1.24,1.24,0,0,0,.24.51l1.11,1.71,1-1.63a1.21,1.21,0,0,0,.23-.55.35.35,0,0,0-.06-.2.38.38,0,0,0-.16-.13.78.78,0,0,0-.32,0Z"/><path d="M22.48,52.52v1.54a1.08,1.08,0,0,0,.11.62.56.56,0,0,0,.45.17h.2V55H21v-.14h.2a.53.53,0,0,0,.48-.22,1.28,1.28,0,0,0,.08-.57V50.64a1.11,1.11,0,0,0-.11-.62.57.57,0,0,0-.45-.17H21V49.7h1.94a3.44,3.44,0,0,1,1.12.15,1.54,1.54,0,0,1,.69.49,1.27,1.27,0,0,1,.28.82,1.39,1.39,0,0,1-.43,1.05,1.69,1.69,0,0,1-1.21.41l-.41,0Zm0-.22.37.06.27,0a.93.93,0,0,0,.7-.31,1.14,1.14,0,0,0,.29-.81,1.47,1.47,0,0,0-.14-.64,1,1,0,0,0-.4-.44A1.17,1.17,0,0,0,23,50a2.32,2.32,0,0,0-.51.07Z"/><path d="M29.81,49.58a2.4,2.4,0,0,1,1.79.78,2.7,2.7,0,0,1,.76,2,2.78,2.78,0,0,1-.76,2,2.55,2.55,0,0,1-3.68,0,2.79,2.79,0,0,1-.74-2A2.68,2.68,0,0,1,28,50.27,2.54,2.54,0,0,1,29.81,49.58Zm-.07.29a1.4,1.4,0,0,0-1.14.53,3,3,0,0,0-.54,1.92,3.15,3.15,0,0,0,.55,2,1.37,1.37,0,0,0,1.13.53A1.54,1.54,0,0,0,31,54.26a2.84,2.84,0,0,0,.49-1.84,3.21,3.21,0,0,0-.54-2A1.44,1.44,0,0,0,29.74,49.87Z"/><path d="M39.67,55H38.26l-1.79-2.48h-.55v1.54a1.08,1.08,0,0,0,.11.62.56.56,0,0,0,.45.17h.21V55H34.4v-.14h.2a.53.53,0,0,0,.48-.22,1.23,1.23,0,0,0,.08-.57V50.64a1.08,1.08,0,0,0-.11-.62.57.57,0,0,0-.45-.17h-.2V49.7h1.93a4.59,4.59,0,0,1,1.24.12,1.42,1.42,0,0,1,.68.45,1.18,1.18,0,0,1,.28.79,1.24,1.24,0,0,1-.32.85,1.8,1.8,0,0,1-1,.51l1.09,1.52a2.72,2.72,0,0,0,.64.7,1.62,1.62,0,0,0,.7.22Zm-3.76-2.72h.22A1.72,1.72,0,0,0,37.27,52a1.05,1.05,0,0,0,.38-.84,1.09,1.09,0,0,0-.31-.81,1.11,1.11,0,0,0-.82-.31,3.46,3.46,0,0,0-.61.07Z"/><path d="M45.35,49.7l.06,1.24h-.15a1.51,1.51,0,0,0-.12-.47.78.78,0,0,0-.32-.33,1.12,1.12,0,0,0-.53-.11h-.75v4a1.08,1.08,0,0,0,.11.61.59.59,0,0,0,.46.16h.18V55H42v-.14h.19a.54.54,0,0,0,.48-.2,1.19,1.19,0,0,0,.09-.57V50h-.64a1.77,1.77,0,0,0-.53.05.72.72,0,0,0-.35.29,1.15,1.15,0,0,0-.17.57H41L41,49.7Z"/><path d="M48.84,50v2.08h1a.69.69,0,0,0,.49-.15,1,1,0,0,0,.21-.58h.14v1.79H50.5a1,1,0,0,0-.08-.45.51.51,0,0,0-.21-.22.87.87,0,0,0-.4-.07h-1v1.66a1.76,1.76,0,0,0,.05.53.35.35,0,0,0,.16.17.74.74,0,0,0,.36.09h.19V55H47.34v-.14h.19a.57.57,0,0,0,.48-.19,1.19,1.19,0,0,0,.09-.6V50.64a1.76,1.76,0,0,0-.05-.53.35.35,0,0,0-.16-.17.73.73,0,0,0-.36-.09h-.19V49.7h3.94l.05,1.16h-.14a1.6,1.6,0,0,0-.24-.54.78.78,0,0,0-.33-.25A1.77,1.77,0,0,0,50,50Z"/><path d="M56.18,49.58a2.4,2.4,0,0,1,1.79.78,2.7,2.7,0,0,1,.76,2,2.78,2.78,0,0,1-.76,2,2.55,2.55,0,0,1-3.68,0,2.79,2.79,0,0,1-.74-2,2.68,2.68,0,0,1,.86-2.06A2.54,2.54,0,0,1,56.18,49.58Zm-.07.29a1.4,1.4,0,0,0-1.14.53,3,3,0,0,0-.54,1.92,3.15,3.15,0,0,0,.55,2,1.37,1.37,0,0,0,1.13.53,1.54,1.54,0,0,0,1.23-.58,2.84,2.84,0,0,0,.49-1.84,3.21,3.21,0,0,0-.54-2A1.44,1.44,0,0,0,56.11,49.87Z"/><path d="M65.22,53.54l.13,0L64.9,55h-4.1v-.14H61a.53.53,0,0,0,.48-.22,1.26,1.26,0,0,0,.08-.58V50.64a1.1,1.1,0,0,0-.11-.62.57.57,0,0,0-.45-.17h-.2V49.7h2.4v.14a1.47,1.47,0,0,0-.59.08.48.48,0,0,0-.23.21,1.71,1.71,0,0,0-.06.6v3.33a1.08,1.08,0,0,0,.06.45.28.28,0,0,0,.14.12,2.54,2.54,0,0,0,.61,0h.39a2.8,2.8,0,0,0,.86-.09,1.11,1.11,0,0,0,.45-.32A2.61,2.61,0,0,0,65.22,53.54Z"/><path d="M69.59,54.86V55H67.32v-.14h.19a.57.57,0,0,0,.48-.19,1.19,1.19,0,0,0,.09-.6V50.64a1.76,1.76,0,0,0-.05-.53.35.35,0,0,0-.16-.17.74.74,0,0,0-.36-.09h-.19V49.7h2.27v.14H69.4a.56.56,0,0,0-.47.19,1.15,1.15,0,0,0-.1.6v3.42a1.76,1.76,0,0,0,.05.53.35.35,0,0,0,.16.17.72.72,0,0,0,.36.09Z"/><path d="M74.31,49.58a2.4,2.4,0,0,1,1.79.78,2.7,2.7,0,0,1,.76,2,2.78,2.78,0,0,1-.76,2,2.55,2.55,0,0,1-3.68,0,2.79,2.79,0,0,1-.74-2,2.68,2.68,0,0,1,.86-2.06A2.54,2.54,0,0,1,74.31,49.58Zm-.07.29a1.4,1.4,0,0,0-1.14.53,3,3,0,0,0-.54,1.92,3.15,3.15,0,0,0,.55,2,1.37,1.37,0,0,0,1.13.53,1.54,1.54,0,0,0,1.23-.58A2.84,2.84,0,0,0,76,52.43a3.21,3.21,0,0,0-.54-2A1.44,1.44,0,0,0,74.24,49.87Z"/></g></g></svg>