<svg xmlns="http://www.w3.org/2000/svg" viewBox="0 0 18.94 22.11"><title>资源 6</title><g id="图层_2" data-name="图层 2"><g id="图层_1-2" data-name="图层 1"><path d="M16.8.25,17,4.59h-.17a7.27,7.27,0,0,0-.75-2.28,2.87,2.87,0,0,0-1.35-1.09A7.51,7.51,0,0,0,12.36,1H6v9.24h5.11a4.12,4.12,0,0,0,2.69-.63,3.73,3.73,0,0,0,1-2.58H15v7.19h-.14a7.65,7.65,0,0,0-.45-1.93,2.29,2.29,0,0,0-1.07-1,5.09,5.09,0,0,0-2.16-.35H6v7.54a5.83,5.83,0,0,0,.15,1.88,1.27,1.27,0,0,0,.56.63,2.94,2.94,0,0,0,1.36.22h3.75a10.27,10.27,0,0,0,2.8-.27,4.33,4.33,0,0,0,1.73-1.09,12.56,12.56,0,0,0,2-3h.15l-1.74,5H.25v-.1H.78a3.35,3.35,0,0,0,1.6-.4,1.62,1.62,0,0,0,.83-.92,7.76,7.76,0,0,0,.2-2.22V3.85c0-1.5-.15-2.37-.49-2.76A2.77,2.77,0,0,0,.78.35H.25V.25H16.8M17,0H0V.6H.78a2.52,2.52,0,0,1,2,.65,4.75,4.75,0,0,1,.42,2.59V18.21A7.69,7.69,0,0,1,3,20.35a1.37,1.37,0,0,1-.71.78,3.1,3.1,0,0,1-1.48.38H0v.6H17l1.91-5.54h-.65a12.54,12.54,0,0,1-2.07,3,4.06,4.06,0,0,1-1.63,1,10.16,10.16,0,0,1-2.72.26H8.12a2.77,2.77,0,0,1-1.24-.19,1,1,0,0,1-.46-.51,6.77,6.77,0,0,1-.13-1.79V11.13h4.86a4.91,4.91,0,0,1,2.05.33,2,2,0,0,1,1,.9,8.42,8.42,0,0,1,.46,2.07h.6V6.73h-.6a3.67,3.67,0,0,1-.95,2.64,4,4,0,0,1-2.53.57H6.29V1.21h6.06a7.38,7.38,0,0,1,2.3.24,2.6,2.6,0,0,1,1.23,1,7.65,7.65,0,0,1,.76,2.4h.64L17,0Z"/></g></g></svg>