<svg xmlns="http://www.w3.org/2000/svg" viewBox="0 0 20.98 10.09"><title>资源 21</title><g id="图层_2" data-name="图层 2"><g id="图层_1-2" data-name="图层 1"><path d="M2.83.54V4.47H5a1.78,1.78,0,0,0,1.14-.26A1.65,1.65,0,0,0,6.57,3h.27V6.48H6.57a3.78,3.78,0,0,0-.21-.93.92.92,0,0,0-.43-.4A2.21,2.21,0,0,0,5,5H2.83V8.28a3,3,0,0,0,.06.8.46.46,0,0,0,.21.23,1.25,1.25,0,0,0,.56.08H5.33a4.56,4.56,0,0,0,1.22-.12,1.82,1.82,0,0,0,.73-.46,5.64,5.64,0,0,0,.93-1.37h.29L7.65,9.93H0V9.66H.35A1.39,1.39,0,0,0,1,9.49a.62.62,0,0,0,.32-.35,3.47,3.47,0,0,0,.08-1V1.73A2.14,2.14,0,0,0,1.23.56,1.13,1.13,0,0,0,.35.27H0V0H7.65l.11,2.18H7.48A3.45,3.45,0,0,0,7.14,1.1,1.17,1.17,0,0,0,6.58.65a3.32,3.32,0,0,0-1-.11Z"/><path d="M10.16,0h2.7l6.07,7.45V1.72A2,2,0,0,0,18.72.58a1.09,1.09,0,0,0-.86-.31h-.34V0H21V.27h-.35a1,1,0,0,0-.89.38,2.22,2.22,0,0,0-.16,1.07v8.37h-.26l-6.55-8V8.21A2,2,0,0,0,13,9.35a1.1,1.1,0,0,0,.86.31h.35v.27H10.71V9.66h.34a1,1,0,0,0,.9-.38,2.22,2.22,0,0,0,.16-1.07V1.3a4.55,4.55,0,0,0-.66-.67,2.42,2.42,0,0,0-.66-.3,2.33,2.33,0,0,0-.64-.07Z"/></g></g></svg>