<svg xmlns="http://www.w3.org/2000/svg" viewBox="0 0 13 13"><title>资源 18</title><g id="图层_2" data-name="图层 2"><g id="图层_1-2" data-name="图层 1"><path d="M13,6.14v.71c0,.23,0,.45-.08.68a6.37,6.37,0,0,1-1.56,3.28,6.39,6.39,0,0,1-3.91,2.11L6.86,13H6.14L6,13a5.46,5.46,0,0,1-1.43-.27A6.42,6.42,0,0,1,.1,7.61c0-.24-.07-.48-.1-.73V6.12A.82.82,0,0,0,0,6,6.21,6.21,0,0,1,.94,3.15,6.41,6.41,0,0,1,5.56.07L6.12,0h.76l.65.08a6.4,6.4,0,0,1,3.53,1.8,6.38,6.38,0,0,1,1.86,3.69C13,5.76,13,6,13,6.14ZM5.1,10.64l-.24,0-.24,0a1.4,1.4,0,0,1-1.49-.9A1.49,1.49,0,0,0,2.51,9c-.08-.05-.19-.18-.18-.23s.19-.1.3-.08a1.08,1.08,0,0,1,.8.57A1.2,1.2,0,0,0,5,9.8a.14.14,0,0,0,.08-.08A1.4,1.4,0,0,1,5.46,9c-.27-.06-.54-.1-.8-.17a2.21,2.21,0,0,1-1.5-1.17,3.23,3.23,0,0,1-.29-1.29A2.28,2.28,0,0,1,3.4,4.73a.16.16,0,0,0,0-.12,2.06,2.06,0,0,1,0-1.16c.08-.29.11-.31.41-.25A3.54,3.54,0,0,1,5,3.69a.27.27,0,0,0,.18,0,5.22,5.22,0,0,1,2.7,0A.29.29,0,0,0,8,3.7c.26-.13.52-.29.79-.4a2.43,2.43,0,0,1,.57-.12.15.15,0,0,1,.12.07,2.07,2.07,0,0,1,.08,1.31.21.21,0,0,0,0,.22,2,2,0,0,1,.45.94,3.34,3.34,0,0,1-.17,1.8A1.91,1.91,0,0,1,9,8.58a5.34,5.34,0,0,1-.82.3,5.75,5.75,0,0,1-.6.12,1.45,1.45,0,0,1,.37,1.08q0,.73,0,1.46c0,.32.17.44.48.34A5.69,5.69,0,1,0,.85,7.05a5.53,5.53,0,0,0,2.66,4.28,8,8,0,0,0,1.15.55.3.3,0,0,0,.44-.24C5.11,11.31,5.1,11,5.1,10.64Z"/></g></g></svg>