<svg xmlns="http://www.w3.org/2000/svg" viewBox="0 0 13.59 13.59"><title>资源 33</title><g id="图层_2" data-name="图层 2"><g id="图层_1-2" data-name="图层 1"><path d="M0,6.79C0,5.15,0,3.5,0,1.85A1.8,1.8,0,0,1,1.57,0a1.88,1.88,0,0,1,.3,0h9.84a1.8,1.8,0,0,1,1.88,1.88q0,4.91,0,9.82a1.81,1.81,0,0,1-1.91,1.89H1.91A1.81,1.81,0,0,1,0,11.69c0-1.63,0-3.27,0-4.9Zm10,1H8.64c-.13,0-.22,0-.22.18s.06.22.21.23l1,.08c.38,0,.44.07.45.45,0,.62,0,1.23,0,1.85,0,.07-.11.18-.19.21a6.39,6.39,0,0,1-2.69.4,4,4,0,0,1-3-1.65,5,5,0,0,1-.72-4.4A3.48,3.48,0,0,1,6,2.55,6.15,6.15,0,0,1,8.1,2.41a5.57,5.57,0,0,1,2.22.67.52.52,0,0,1,.32.47c0,.24,0,.47,0,.71s0,.21.17.21.23,0,.25-.19c.06-.53.14-1.06.22-1.59,0-.16,0-.22-.17-.25l-.64-.18A9.64,9.64,0,0,0,5.89,2,4.87,4.87,0,0,0,2.53,4.2a4.94,4.94,0,0,0-.67,3.42A4.45,4.45,0,0,0,4.16,11a5.66,5.66,0,0,0,2.8.72,12.13,12.13,0,0,0,4.17-.69c.16-.06.21-.13.2-.31,0-.56-.06-1.13-.06-1.69,0-.37,0-.74.46-.9,0,0,.06,0,.06-.06a.78.78,0,0,0,0-.25s-.09,0-.14,0Z"/></g></g></svg>