<svg xmlns="http://www.w3.org/2000/svg" viewBox="0 0 18.15 69.28"><defs><style>.cls-1{fill:#f2f2f2;}</style></defs><title>资源 32</title><g id="图层_2" data-name="图层 2"><g id="图层_1-2" data-name="图层 1"><rect class="cls-1" width="18.15" height="69.28"/><path d="M15.51,9.49l-3.24.26V9.49a4.43,4.43,0,0,0,1.82-1A3.24,3.24,0,0,0,15,6.1a3.35,3.35,0,0,0-1.55-3,5.57,5.57,0,0,0-3.12-.85,6.23,6.23,0,0,0-2.68.57A4,4,0,0,0,5.86,4.32a3.57,3.57,0,0,0-.56,1.89,4.17,4.17,0,0,0,.14,1.1,4.37,4.37,0,0,0,.42,1h3a2.74,2.74,0,0,0,1-.12.79.79,0,0,0,.36-.36A2.1,2.1,0,0,0,10.32,7h.29v4h-.29v-.19A.84.84,0,0,0,9.93,10a2.66,2.66,0,0,0-1.1-.15H5.69A7.68,7.68,0,0,1,5,8.09,7.52,7.52,0,0,1,4.78,6.2,5.47,5.47,0,0,1,6.68,1.68,5.09,5.09,0,0,1,10,.53a5.51,5.51,0,0,1,2.6.65A5.56,5.56,0,0,1,14.85,3.3,5.19,5.19,0,0,1,15.51,6a5.25,5.25,0,0,1-.09,1,9.31,9.31,0,0,1-.4,1.3,2.09,2.09,0,0,0-.16.57.3.3,0,0,0,.13.25,1,1,0,0,0,.52.12Z"/><path d="M12.15,16.78H10.59q1.56.87,1.56,1.79a1,1,0,0,1-.25.69.78.78,0,0,1-.59.27.69.69,0,0,1-.5-.2.63.63,0,0,1-.2-.47,1,1,0,0,1,.26-.59,1,1,0,0,0,.26-.49.45.45,0,0,0-.15-.3,3.64,3.64,0,0,0-1-.7H6.63a2.06,2.06,0,0,0-.87.14.78.78,0,0,0-.34.35,1.53,1.53,0,0,0-.14.72H5V14.45h.27a1.47,1.47,0,0,0,.17.79.65.65,0,0,0,.39.26,3.89,3.89,0,0,0,.73,0H9.26a11.17,11.17,0,0,0,1.44,0A.57.57,0,0,0,11,15.3a.51.51,0,0,0,.11-.33,1.5,1.5,0,0,0-.11-.53l.27-.08.85,2.1Z"/><path d="M6,26.94a11.41,11.41,0,0,1-1-1.34,2,2,0,0,1-.19-.87,1.56,1.56,0,0,1,.49-1.18,1.81,1.81,0,0,1,1.29-.47,1.65,1.65,0,0,1,.88.23,3,3,0,0,1,1,1.08,16.78,16.78,0,0,1,1.1,2.55h.27a2.26,2.26,0,0,0,1.42-.33,1.19,1.19,0,0,0,.39-1,1.08,1.08,0,0,0-.26-.76.77.77,0,0,0-.59-.29l-.44,0a.75.75,0,0,1-.54-.18A.61.61,0,0,1,9.67,24a.59.59,0,0,1,.2-.46.77.77,0,0,1,.54-.18,1.55,1.55,0,0,1,1.2.67,2.87,2.87,0,0,1,.54,1.87,3.24,3.24,0,0,1-.31,1.51,1.43,1.43,0,0,1-.73.66,4.14,4.14,0,0,1-1.33.14H7.42a10.76,10.76,0,0,0-1.21,0,.51.51,0,0,0-.3.12.3.3,0,0,0-.08.2.41.41,0,0,0,.05.21,4.72,4.72,0,0,0,.55.61H6q-1.13-.85-1.13-1.62a.74.74,0,0,1,.26-.59A1.39,1.39,0,0,1,6,26.94Zm.49,0H9.14a15,15,0,0,0-.64-1.48,2.55,2.55,0,0,0-.7-.85A1.34,1.34,0,0,0,7,24.35a1.3,1.3,0,0,0-.9.33,1,1,0,0,0-.36.75A2.75,2.75,0,0,0,6.5,26.94Z"/><path d="M11.25,32.49l.86,2.13v.29H10.5A3.93,3.93,0,0,1,11.78,36a2,2,0,0,1,.37,1.14,2.19,2.19,0,0,1-.82,1.74,3.86,3.86,0,0,1-2.6.85,4.33,4.33,0,0,1-3-1,2.72,2.72,0,0,1-1-2.13,2.67,2.67,0,0,1,.16-1,2.27,2.27,0,0,1,.45-.68H3.3a2.81,2.81,0,0,0-.9.09.65.65,0,0,0-.31.3,1.86,1.86,0,0,0-.11.78H1.7V32.45H2v.19a1.38,1.38,0,0,0,.16.71.55.55,0,0,0,.27.22,3.22,3.22,0,0,0,.94.08H9.9a3.57,3.57,0,0,0,.85-.06A.51.51,0,0,0,11,33.4a.63.63,0,0,0,.09-.36,1.37,1.37,0,0,0-.11-.46Zm-1.2,2.42H7.46a5.55,5.55,0,0,0-1.1.07,1.41,1.41,0,0,0-.77.52,1.6,1.6,0,0,0-.33,1,1.49,1.49,0,0,0,.59,1.23A3.41,3.41,0,0,0,8,38.38a3.78,3.78,0,0,0,2.44-.7,1.45,1.45,0,0,0,.59-1.15,1.57,1.57,0,0,0-.18-.72A4.22,4.22,0,0,0,10.05,34.91Z"/><path d="M15.77,45.87H10.7a5.83,5.83,0,0,1,1.18,1.33,2.08,2.08,0,0,1,.26,1,1.62,1.62,0,0,1-.33,1,1.92,1.92,0,0,1-1,.63A7.24,7.24,0,0,1,9,50H6.58a2.56,2.56,0,0,0-.9.11.59.59,0,0,0-.29.26,1.45,1.45,0,0,0-.11.67H5V47.6h.27v.16a1.13,1.13,0,0,0,.15.67.78.78,0,0,0,.44.26,6,6,0,0,0,.71,0H9a5.89,5.89,0,0,0,1.49-.12,1,1,0,0,0,.53-.37,1.06,1.06,0,0,0,.18-.62,1.75,1.75,0,0,0-.2-.77,3.68,3.68,0,0,0-.79-1H6.58a2.85,2.85,0,0,0-.89.08.65.65,0,0,0-.29.3,1.68,1.68,0,0,0-.12.75H5V43.56h.27a1.53,1.53,0,0,0,.14.73.54.54,0,0,0,.29.24,2.61,2.61,0,0,0,.86.09h6.27a10.46,10.46,0,0,0,1.46-.06.65.65,0,0,0,.37-.17.47.47,0,0,0,.1-.31,1.85,1.85,0,0,0-.12-.51l.26-.11.85,2.07Z"/><path d="M12.15,57.08H6.58a2.55,2.55,0,0,0-.87.09.66.66,0,0,0-.32.28,1.5,1.5,0,0,0-.11.68H5V54.76h.27a1.57,1.57,0,0,0,.1.68.67.67,0,0,0,.33.28,2.45,2.45,0,0,0,.87.1H9.25a9.45,9.45,0,0,0,1.46-.07.59.59,0,0,0,.34-.17.47.47,0,0,0,.09-.31,1.51,1.51,0,0,0-.11-.51l.27-.11.85,2.09Zm3.62-.63a.76.76,0,0,1-.76.76.75.75,0,0,1-.54-.22.73.73,0,0,1-.23-.54.77.77,0,1,1,1.54,0Z"/><path d="M7.65,68a3.75,3.75,0,0,1-2.11-1.1,2.64,2.64,0,0,1-.74-1.81,2.67,2.67,0,0,1,1-2.06,3.89,3.89,0,0,1,2.68-.88,3.69,3.69,0,0,1,2.66,1,3.11,3.11,0,0,1,1,2.33,2.56,2.56,0,0,1-.54,1.68,1.5,1.5,0,0,1-1.12.66.62.62,0,0,1-.47-.19.72.72,0,0,1-.18-.52.81.81,0,0,1,.29-.67,1.19,1.19,0,0,1,.61-.17,1,1,0,0,0,.68-.31,1.09,1.09,0,0,0,.23-.73A1.5,1.5,0,0,0,11.08,64a3,3,0,0,0-2-.61A4,4,0,0,0,6.93,64,1.87,1.87,0,0,0,6,65.61a2,2,0,0,0,.51,1.33,3.42,3.42,0,0,0,1.26.81Z"/></g></g></svg>