<svg xmlns="http://www.w3.org/2000/svg" viewBox="0 0 18.15 96.77"><defs><style>.cls-1{fill:#f2f2f2;}</style></defs><title>资源 28</title><g id="图层_2" data-name="图层 2"><g id="图层_1-2" data-name="图层 1"><rect class="cls-1" width="18.15" height="96.28"/><path d="M5.29,4.76H5V.37h.28V.73a1.1,1.1,0,0,0,.37.92,2.3,2.3,0,0,0,1.17.18h6.63a3.4,3.4,0,0,0,1-.1.68.68,0,0,0,.33-.31A1.43,1.43,0,0,0,15,.73V.37h.28v4.4H15V4.39a1.09,1.09,0,0,0-.37-.92,2.22,2.22,0,0,0-1.17-.19H6.83a3.4,3.4,0,0,0-1,.1.68.68,0,0,0-.33.32,1.39,1.39,0,0,0-.18.69Z"/><path d="M10.68,10.75a3.27,3.27,0,0,1,1.47,2.32,1.67,1.67,0,0,1-.28,1,1.9,1.9,0,0,1-.93.65,4.32,4.32,0,0,1-1.39.17h-3a2.49,2.49,0,0,0-.89.11.62.62,0,0,0-.3.27,1.52,1.52,0,0,0-.11.68H5V12.49h.27v.14a1.15,1.15,0,0,0,.15.68.77.77,0,0,0,.44.27,4.43,4.43,0,0,0,.71,0H9.42a2.88,2.88,0,0,0,1.37-.25.88.88,0,0,0,.43-.83,2.49,2.49,0,0,0-1-1.79H6.58a2.61,2.61,0,0,0-.87.08.7.7,0,0,0-.32.29,1.8,1.8,0,0,0-.1.75H5V8.45h.27V8.6a.81.81,0,0,0,.27.71,2,2,0,0,0,1,.19H9.15a11.18,11.18,0,0,0,1.52-.06A.65.65,0,0,0,11,9.27a.47.47,0,0,0,.1-.31A1.45,1.45,0,0,0,11,8.45l.27-.11.85,2.09v.33Z"/><path d="M14.22,21.58H11.94V23.2h-.53V21.58H6.92a1.51,1.51,0,0,0-.91.19.61.61,0,0,0-.23.5.87.87,0,0,0,.16.48,1,1,0,0,0,.46.36v.3a2.37,2.37,0,0,1-1.12-.75,1.62,1.62,0,0,1-.37-1A1.34,1.34,0,0,1,5.09,21a1.17,1.17,0,0,1,.55-.49,2.9,2.9,0,0,1,1.11-.16h4.66v-1.1h.25a2.87,2.87,0,0,0,.56.85,4.48,4.48,0,0,0,.94.78,8.48,8.48,0,0,0,1.05.48Z"/><path d="M9.33,28.14a3.56,3.56,0,0,0-2.42.75A2.28,2.28,0,0,0,6,30.67a1.93,1.93,0,0,0,.37,1.18,2.76,2.76,0,0,0,1.28.84l-.15.23A3.61,3.61,0,0,1,5.65,32a2.47,2.47,0,0,1-.85-1.91,2.8,2.8,0,0,1,1-2.14,3.72,3.72,0,0,1,2.61-.89,4,4,0,0,1,2.77.91,3,3,0,0,1,1,2.29,2.56,2.56,0,0,1-.77,1.91,2.82,2.82,0,0,1-2.05.75Zm.44,0v3.21a3,3,0,0,0,.94-.16,1.5,1.5,0,0,0,.67-.56,1.42,1.42,0,0,0,.24-.78,1.56,1.56,0,0,0-.49-1.12A2.12,2.12,0,0,0,9.77,28.14Z"/><path d="M12.15,39H10.59q1.56.87,1.56,1.79a1,1,0,0,1-.25.69.78.78,0,0,1-.59.27.69.69,0,0,1-.5-.2.63.63,0,0,1-.2-.47,1,1,0,0,1,.26-.59,1,1,0,0,0,.26-.49.45.45,0,0,0-.15-.3,3.64,3.64,0,0,0-1-.7H6.63a2.06,2.06,0,0,0-.87.14.78.78,0,0,0-.34.35,1.53,1.53,0,0,0-.14.72H5V36.64h.27a1.47,1.47,0,0,0,.17.79.65.65,0,0,0,.39.26,3.89,3.89,0,0,0,.73,0H9.26a11.17,11.17,0,0,0,1.44,0A.57.57,0,0,0,11,37.5a.51.51,0,0,0,.11-.33,1.5,1.5,0,0,0-.11-.53l.27-.08.85,2.1Z"/><path d="M6,49.14a11.41,11.41,0,0,1-1-1.34,2,2,0,0,1-.19-.87,1.56,1.56,0,0,1,.49-1.18,1.81,1.81,0,0,1,1.29-.47,1.65,1.65,0,0,1,.88.23,3,3,0,0,1,1,1.08,16.78,16.78,0,0,1,1.1,2.55h.27a2.26,2.26,0,0,0,1.42-.33,1.19,1.19,0,0,0,.39-1,1.08,1.08,0,0,0-.26-.76.77.77,0,0,0-.59-.29l-.44,0a.75.75,0,0,1-.54-.18.61.61,0,0,1-.19-.47.59.59,0,0,1,.2-.46.77.77,0,0,1,.54-.18,1.55,1.55,0,0,1,1.2.67,2.87,2.87,0,0,1,.54,1.87,3.24,3.24,0,0,1-.31,1.51,1.43,1.43,0,0,1-.73.66,4.14,4.14,0,0,1-1.33.14H7.42a10.76,10.76,0,0,0-1.21,0,.51.51,0,0,0-.3.12.3.3,0,0,0-.08.2.41.41,0,0,0,.05.21,4.72,4.72,0,0,0,.55.61H6Q4.88,50.73,4.88,50a.74.74,0,0,1,.26-.59A1.39,1.39,0,0,1,6,49.14Zm.49,0H9.14a15,15,0,0,0-.64-1.48,2.55,2.55,0,0,0-.7-.85A1.34,1.34,0,0,0,7,46.55a1.3,1.3,0,0,0-.9.33,1,1,0,0,0-.36.75A2.75,2.75,0,0,0,6.5,49.14Z"/><path d="M7.65,61.07A3.75,3.75,0,0,1,5.54,60a2.64,2.64,0,0,1-.74-1.81,2.67,2.67,0,0,1,1-2.06,3.89,3.89,0,0,1,2.68-.88,3.69,3.69,0,0,1,2.66,1,3.11,3.11,0,0,1,1,2.33,2.56,2.56,0,0,1-.54,1.68,1.5,1.5,0,0,1-1.12.66.62.62,0,0,1-.47-.19.72.72,0,0,1-.18-.52.81.81,0,0,1,.29-.67,1.19,1.19,0,0,1,.61-.17,1,1,0,0,0,.68-.31,1.09,1.09,0,0,0,.23-.73,1.5,1.5,0,0,0-.56-1.22,3,3,0,0,0-2-.61,4,4,0,0,0-2.19.61A1.87,1.87,0,0,0,6,58.71,2,2,0,0,0,6.49,60a3.42,3.42,0,0,0,1.26.81Z"/><path d="M14.22,67.18H11.94V68.8h-.53V67.18H6.92a1.51,1.51,0,0,0-.91.19.61.61,0,0,0-.23.5.87.87,0,0,0,.16.48,1,1,0,0,0,.46.36V69a2.37,2.37,0,0,1-1.12-.75,1.62,1.62,0,0,1-.37-1,1.34,1.34,0,0,1,.19-.68,1.17,1.17,0,0,1,.55-.49,2.9,2.9,0,0,1,1.11-.16h4.66v-1.1h.25a2.87,2.87,0,0,0,.56.85,4.48,4.48,0,0,0,.94.78,8.48,8.48,0,0,0,1.05.48Z"/><path d="M12.15,75H6.58a2.55,2.55,0,0,0-.87.09.66.66,0,0,0-.32.28,1.5,1.5,0,0,0-.11.68H5V72.64h.27a1.57,1.57,0,0,0,.1.68.67.67,0,0,0,.33.28,2.45,2.45,0,0,0,.87.1H9.25a9.45,9.45,0,0,0,1.46-.07.59.59,0,0,0,.34-.17.47.47,0,0,0,.09-.31,1.51,1.51,0,0,0-.11-.51l.27-.11.85,2.09Zm3.62-.63a.76.76,0,0,1-.76.76.75.75,0,0,1-.54-.22.73.73,0,0,1-.23-.54.77.77,0,1,1,1.54,0Z"/><path d="M11.94,79.62v3.26h-.28v-.21a.64.64,0,0,0-.14-.45.5.5,0,0,0-.39-.16,1.61,1.61,0,0,0-.63.16L6.68,83.83l4,1.62a1.89,1.89,0,0,0,.64.17.25.25,0,0,0,.17-.06.42.42,0,0,0,.16-.21,2.07,2.07,0,0,0,0-.52h.28v2.26h-.28a1,1,0,0,0-.16-.54,1.93,1.93,0,0,0-.76-.48L4.8,83.61V83.3l5.85-2.47a2.26,2.26,0,0,0,.59-.32,1.26,1.26,0,0,0,.3-.39,1.9,1.9,0,0,0,.13-.51Z"/><path d="M9.33,92a3.56,3.56,0,0,0-2.42.75A2.28,2.28,0,0,0,6,94.51a1.93,1.93,0,0,0,.37,1.18,2.76,2.76,0,0,0,1.28.84l-.15.23a3.61,3.61,0,0,1-1.89-.92,2.47,2.47,0,0,1-.85-1.91,2.8,2.8,0,0,1,1-2.14,3.72,3.72,0,0,1,2.61-.89,4,4,0,0,1,2.77.91,3,3,0,0,1,1,2.29A2.56,2.56,0,0,1,11.39,96a2.82,2.82,0,0,1-2.05.75Zm.44,0v3.21a3,3,0,0,0,.94-.16,1.5,1.5,0,0,0,.67-.56,1.42,1.42,0,0,0,.24-.78,1.56,1.56,0,0,0-.49-1.12A2.12,2.12,0,0,0,9.77,92Z"/></g></g></svg>