<svg xmlns="http://www.w3.org/2000/svg" viewBox="0 0 19.01 22.11"><title>资源 3</title><g id="图层_2" data-name="图层 2"><g id="图层_1-2" data-name="图层 1"><path d="M9.76.25v.1A5.78,5.78,0,0,0,7.43.7a2.25,2.25,0,0,0-1.09,1,7,7,0,0,0-.29,2.61V18.18a4.65,4.65,0,0,0,.29,2,1.41,1.41,0,0,0,.73.61A8.88,8.88,0,0,0,9.72,21h1.61A11.77,11.77,0,0,0,15,20.56a4.92,4.92,0,0,0,2-1.4,10.78,10.78,0,0,0,1.66-2.89h.07l-1.75,5.56H.25v-.1H.83a2.46,2.46,0,0,0,2.21-1,5.26,5.26,0,0,0,.38-2.55V3.91a4.58,4.58,0,0,0-.52-2.76A2.64,2.64,0,0,0,.83.35H.25V.25H9.76M10,0H0V.6H.83a2.39,2.39,0,0,1,1.89.72,4.56,4.56,0,0,1,.46,2.59V18.18a5.26,5.26,0,0,1-.34,2.41,2.22,2.22,0,0,1-2,.91H0v.6H17.12l1.89-6L18.47,16a10.9,10.9,0,0,1-1.7,3,4.65,4.65,0,0,1-1.87,1.33,11.69,11.69,0,0,1-3.57.38H9.72a10.57,10.57,0,0,1-2.54-.16,1.16,1.16,0,0,1-.6-.51,4.52,4.52,0,0,1-.26-1.86V4.29a7.11,7.11,0,0,1,.26-2.49,2,2,0,0,1,1-.86A5.82,5.82,0,0,1,9.86.6H10V0Z"/></g></g></svg>