<svg xmlns="http://www.w3.org/2000/svg" viewBox="0 0 203.44 23.12"><title>资源 8</title><g id="图层_2" data-name="图层 2"><g id="图层_1-2" data-name="图层 1"><path d="M6.29,12.26V18.7a4.51,4.51,0,0,0,.46,2.59A2.34,2.34,0,0,0,8.62,22h.85v.6H0V22H.83a2.22,2.22,0,0,0,2-.91,5.38,5.38,0,0,0,.33-2.4V4.42a4.65,4.65,0,0,0-.44-2.59A2.39,2.39,0,0,0,.83,1.11H0V.51H8.1a14.35,14.35,0,0,1,4.68.61,6.44,6.44,0,0,1,2.89,2.06,5.3,5.3,0,0,1,1.17,3.44A5.8,5.8,0,0,1,15.06,11a7,7,0,0,1-5,1.7,14.22,14.22,0,0,1-1.73-.11Q7.35,12.49,6.29,12.26Zm0-.93q.86.16,1.53.24A9.58,9.58,0,0,0,9,11.66a3.88,3.88,0,0,0,2.93-1.31,4.77,4.77,0,0,0,1.23-3.4,6.11,6.11,0,0,0-.59-2.67,4,4,0,0,0-1.66-1.84,4.86,4.86,0,0,0-2.45-.61,9.64,9.64,0,0,0-2.14.31Z"/><path d="M36.9,0a10,10,0,0,1,7.46,3.27,11.28,11.28,0,0,1,3.15,8.16,11.62,11.62,0,0,1-3.18,8.36A10.63,10.63,0,0,1,29,19.87a11.64,11.64,0,0,1-3.11-8.4,11.18,11.18,0,0,1,3.59-8.59A10.58,10.58,0,0,1,36.9,0Zm-.31,1.19a5.83,5.83,0,0,0-4.76,2.2q-2.23,2.74-2.23,8t2.31,8.33A5.72,5.72,0,0,0,36.61,22a6.41,6.41,0,0,0,5.14-2.43q2-2.43,2-7.66,0-5.67-2.23-8.46A6,6,0,0,0,36.59,1.19Z"/><path d="M74.62,16.5l.54.11-1.89,6H56.15V22H57a2.22,2.22,0,0,0,2-.91,5.26,5.26,0,0,0,.34-2.41V4.42a4.56,4.56,0,0,0-.46-2.59A2.39,2.39,0,0,0,57,1.11h-.83V.51h10v.6a6.12,6.12,0,0,0-2.47.33,2,2,0,0,0-1,.86,7.11,7.11,0,0,0-.26,2.49V18.68a4.52,4.52,0,0,0,.26,1.86,1.16,1.16,0,0,0,.6.51,10.57,10.57,0,0,0,2.54.16h1.61a11.69,11.69,0,0,0,3.57-.37,4.65,4.65,0,0,0,1.88-1.33A10.9,10.9,0,0,0,74.62,16.5Z"/><path d="M95.12.51h7.71v.6h-.42a3.34,3.34,0,0,0-1.24.38,4.85,4.85,0,0,0-1.48,1.08A14.66,14.66,0,0,0,98,4.84l-5.33,8.4v5.54a4.38,4.38,0,0,0,.46,2.54,2.52,2.52,0,0,0,2,.69h.72v.6H86.45V22h.78a2.25,2.25,0,0,0,2-.85,5,5,0,0,0,.36-2.38V13.55L83.52,4.29a19.55,19.55,0,0,0-1.46-2,5.74,5.74,0,0,0-1.59-1,2.18,2.18,0,0,0-.95-.16V.51H89v.6h-.49a2.85,2.85,0,0,0-1.41.36,1.16,1.16,0,0,0-.64,1.08,5.16,5.16,0,0,0,1,2.12L92,11.79,96.38,5a5,5,0,0,0,1-2.28,1.45,1.45,0,0,0-.24-.81,1.58,1.58,0,0,0-.68-.56,3.28,3.28,0,0,0-1.32-.2Z"/><path d="M146.35,22.61h-5.9L133,12.28l-1.35,0h-.46l-.51,0V18.7a4.52,4.52,0,0,0,.46,2.59A2.32,2.32,0,0,0,133,22h.86v.6h-9.47V22h.83a2.22,2.22,0,0,0,2-.91,5.15,5.15,0,0,0,.34-2.4V4.42a4.51,4.51,0,0,0-.46-2.59,2.39,2.39,0,0,0-1.89-.72h-.83V.51h8.05A19.15,19.15,0,0,1,137.6,1a5.94,5.94,0,0,1,2.84,1.89,4.92,4.92,0,0,1,1.17,3.28,5.16,5.16,0,0,1-1.33,3.54,7.51,7.51,0,0,1-4.12,2.12l4.56,6.34a11.34,11.34,0,0,0,2.69,2.9,6.77,6.77,0,0,0,2.93.91Zm-15.7-11.36h.91a7.19,7.19,0,0,0,4.77-1.37,4.38,4.38,0,0,0,1.61-3.49A4.55,4.55,0,0,0,136.64,3a4.64,4.64,0,0,0-3.43-1.3,14.38,14.38,0,0,0-2.56.31Z"/><path d="M159.71,1.71v8.74h4.86a4,4,0,0,0,2.53-.57A3.67,3.67,0,0,0,168,7.24h.6v7.69H168a8.42,8.42,0,0,0-.46-2.07,2,2,0,0,0-1-.9,4.91,4.91,0,0,0-2.05-.33h-4.86v7.29a6.77,6.77,0,0,0,.13,1.79,1,1,0,0,0,.46.51,2.77,2.77,0,0,0,1.24.19h3.75a10.16,10.16,0,0,0,2.72-.26,4.06,4.06,0,0,0,1.63-1,12.54,12.54,0,0,0,2.07-3h.65l-1.91,5.54h-17V22h.78a3.1,3.1,0,0,0,1.48-.37,1.37,1.37,0,0,0,.71-.78,7.69,7.69,0,0,0,.19-2.14V4.35a4.75,4.75,0,0,0-.42-2.59,2.52,2.52,0,0,0-2-.65h-.78V.51h17l.24,4.84h-.64A7.65,7.65,0,0,0,169.3,3a2.6,2.6,0,0,0-1.23-1,7.38,7.38,0,0,0-2.3-.24Z"/><path d="M179.37.51h6l13.52,16.58V4.34a4.39,4.39,0,0,0-.46-2.54,2.42,2.42,0,0,0-1.91-.69h-.77V.51h7.69v.6h-.78a2.25,2.25,0,0,0-2,.85,5,5,0,0,0-.36,2.38V23h-.59L185.15,5.17V18.78a4.52,4.52,0,0,0,.44,2.54,2.45,2.45,0,0,0,1.91.69h.78v.6h-7.69V22h.77a2.27,2.27,0,0,0,2-.85,5,5,0,0,0,.36-2.38V3.41a10.09,10.09,0,0,0-1.46-1.48,5.37,5.37,0,0,0-1.46-.67,5.2,5.2,0,0,0-1.43-.15Z"/></g></g></svg>