<?xml version="1.0" encoding="utf-8"?>
<!-- Generator: Adobe Illustrator 21.0.0, SVG Export Plug-In . SVG Version: 6.00 Build 0)  -->
<svg version="1.1" id="logo" xmlns="http://www.w3.org/2000/svg" xmlns:xlink="http://www.w3.org/1999/xlink" x="0px" y="0px"
	 viewBox="0 0 204 24" style="enable-background:new 0 0 204 24;" xml:space="preserve">
<g id="p">
	<path d="M6.7,12.2v6.4c0,1.4,0.2,2.3,0.5,2.6C7.6,21.7,8.2,22,9,22h0.8v0.6H0.4V22h0.8c0.9,0,1.6-0.3,2-0.9
		c0.2-0.3,0.3-1.1,0.3-2.4V4.4c0-1.4-0.1-2.3-0.4-2.6C2.7,1.3,2.1,1.1,1.2,1.1H0.4V0.5h8.1c2,0,3.5,0.2,4.7,0.6s2.1,1.1,2.9,2.1
		c0.8,1,1.2,2.1,1.2,3.4c0,1.8-0.6,3.3-1.8,4.4c-1.2,1.1-2.9,1.7-5,1.7c-0.5,0-1.1,0-1.7-0.1S7.4,12.4,6.7,12.2z M6.7,11.3
		c0.6,0.1,1.1,0.2,1.5,0.2c0.4,0.1,0.8,0.1,1.1,0.1c1.1,0,2.1-0.4,2.9-1.3c0.8-0.9,1.2-2,1.2-3.4c0-1-0.2-1.8-0.6-2.7
		c-0.4-0.8-0.9-1.4-1.7-1.8C10.6,2,9.7,1.8,8.8,1.8c-0.6,0-1.3,0.1-2.1,0.3V11.3z"/>
</g>
<g id="o">
	<path d="M37.3,0c2.9,0,5.4,1.1,7.5,3.3c2.1,2.2,3.2,4.9,3.2,8.2c0,3.4-1.1,6.1-3.2,8.4c-2.1,2.2-4.7,3.3-7.7,3.3
		c-3,0-5.6-1.1-7.7-3.2c-2.1-2.2-3.1-5-3.1-8.4c0-3.5,1.2-6.4,3.6-8.6C31.9,0.9,34.4,0,37.3,0z M37,1.1c-2,0-3.6,0.7-4.8,2.2
		c-1.5,1.8-2.2,4.5-2.2,8c0,3.6,0.8,6.4,2.3,8.3c1.2,1.5,2.7,2.2,4.7,2.2c2.1,0,3.8-0.8,5.1-2.4c1.4-1.6,2-4.2,2-7.7
		c0-3.8-0.7-6.6-2.2-8.5C40.8,1.9,39.1,1.1,37,1.1z"/>
</g>
<g id="l">
	<path d="M75,16.5l0.5,0.1l-1.9,6H56.6V22h0.8c0.9,0,1.6-0.3,2-0.9c0.2-0.3,0.3-1.2,0.3-2.4V4.4c0-1.4-0.2-2.2-0.5-2.6
		c-0.4-0.5-1.1-0.7-1.9-0.7h-0.8V0.5h10v0.6c-1.2,0-2,0.1-2.5,0.3c-0.5,0.2-0.8,0.5-1,0.9s-0.3,1.2-0.3,2.5v13.9
		c0,0.9,0.1,1.5,0.3,1.9c0.1,0.2,0.3,0.4,0.6,0.5c0.3,0.1,1.1,0.2,2.5,0.2h1.6c1.7,0,2.9-0.1,3.6-0.4c0.7-0.3,1.3-0.7,1.9-1.3
		C73.9,18.8,74.5,17.8,75,16.5z"/>
</g>
<g id="y">
	<path d="M95.5,0.5h7.7v0.6h-0.4c-0.3,0-0.7,0.1-1.2,0.4c-0.5,0.3-1,0.6-1.5,1.1s-1,1.2-1.6,2.3l-5.3,8.4v5.5c0,1.4,0.2,2.2,0.5,2.5
		c0.4,0.5,1.1,0.7,2,0.7h0.7v0.6h-9.4V22h0.8c0.9,0,1.6-0.3,2-0.8c0.2-0.3,0.4-1.1,0.4-2.4v-5.2l-6.1-9.3c-0.7-1.1-1.2-1.8-1.5-2
		s-0.8-0.6-1.6-1c-0.2-0.1-0.5-0.2-0.9-0.2V0.5h9.5v0.6h-0.5c-0.5,0-1,0.1-1.4,0.4c-0.4,0.2-0.6,0.6-0.6,1.1c0,0.4,0.3,1.1,1,2.1
		l4.6,7.1l4.3-6.8c0.7-1,1-1.8,1-2.3c0-0.3-0.1-0.6-0.2-0.8c-0.2-0.2-0.4-0.4-0.7-0.6s-0.7-0.2-1.3-0.2V0.5z"/>
</g>
<g id="r">
	<path d="M146.8,22.6h-5.9l-7.5-10.3c-0.6,0-1,0-1.4,0c-0.1,0-0.3,0-0.5,0c-0.2,0-0.3,0-0.5,0v6.4c0,1.4,0.2,2.3,0.5,2.6
		c0.4,0.5,1,0.7,1.9,0.7h0.9v0.6h-9.5V22h0.8c0.9,0,1.6-0.3,2-0.9c0.2-0.3,0.3-1.1,0.3-2.4V4.4c0-1.4-0.2-2.3-0.5-2.6
		c-0.4-0.5-1.1-0.7-1.9-0.7h-0.8V0.5h8.1c2.3,0,4.1,0.2,5.2,0.5c1.1,0.3,2.1,1,2.8,1.9c0.8,0.9,1.2,2,1.2,3.3c0,1.4-0.4,2.5-1.3,3.5
		c-0.9,1-2.3,1.7-4.1,2.1l4.6,6.3c1,1.5,1.9,2.4,2.7,2.9c0.8,0.5,1.7,0.8,2.9,0.9V22.6z M131.1,11.2c0.2,0,0.4,0,0.5,0
		c0.2,0,0.3,0,0.4,0c2.1,0,3.7-0.5,4.8-1.4c1.1-0.9,1.6-2.1,1.6-3.5c0-1.4-0.4-2.5-1.3-3.4c-0.9-0.9-2-1.3-3.4-1.3
		c-0.6,0-1.5,0.1-2.6,0.3V11.2z"/>
</g>
<g id="e">
	<path d="M160.1,1.7v8.7h4.9c1.3,0,2.1-0.2,2.5-0.6c0.6-0.5,0.9-1.4,0.9-2.6h0.6v7.7h-0.6c-0.2-1.1-0.3-1.8-0.5-2.1
		c-0.2-0.4-0.5-0.7-1-0.9s-1.1-0.3-2.1-0.3h-4.9v7.3c0,1,0,1.6,0.1,1.8s0.2,0.4,0.5,0.5c0.2,0.1,0.6,0.2,1.2,0.2h3.8
		c1.2,0,2.2-0.1,2.7-0.3s1.1-0.5,1.6-1c0.7-0.7,1.4-1.7,2.1-3h0.7l-1.9,5.5h-17V22h0.8c0.5,0,1-0.1,1.5-0.4c0.3-0.2,0.6-0.4,0.7-0.8
		c0.1-0.3,0.2-1.1,0.2-2.1V4.3c0-1.4-0.1-2.3-0.4-2.6c-0.4-0.4-1-0.7-2-0.7h-0.8V0.5h17l0.2,4.8h-0.6c-0.2-1.2-0.5-2-0.8-2.4
		c-0.3-0.4-0.7-0.8-1.2-1c-0.4-0.2-1.2-0.2-2.3-0.2H160.1z"/>
</g>
<g id="n">
	<path d="M179.8,0.5h6L199.3,17V4.3c0-1.4-0.2-2.2-0.5-2.5c-0.4-0.5-1-0.7-1.9-0.7h-0.8V0.5h7.7v0.6h-0.8c-0.9,0-1.6,0.3-2,0.8
		c-0.2,0.3-0.4,1.1-0.4,2.4v18.6h-0.6L185.6,5.1v13.6c0,1.4,0.1,2.2,0.4,2.5c0.4,0.5,1,0.7,1.9,0.7h0.8v0.6H181V22h0.8
		c0.9,0,1.6-0.3,2-0.8c0.2-0.3,0.4-1.1,0.4-2.4V3.4c-0.6-0.8-1.1-1.2-1.5-1.5c-0.3-0.2-0.8-0.5-1.5-0.7c-0.3-0.1-0.8-0.1-1.4-0.1
		V0.5z"/>
</g>
</svg>
