<svg xmlns="http://www.w3.org/2000/svg" viewBox="0 0 18.15 114.28"><defs><style>.cls-1{fill:#f2f2f2;}</style></defs><title>资源 30</title><g id="图层_2" data-name="图层 2"><g id="图层_1-2" data-name="图层 1"><rect class="cls-1" width="18.15" height="114.28"/><path d="M5,6.32l8.63-4H6.79a2.1,2.1,0,0,0-1.18.2,1.12,1.12,0,0,0-.32.89v.36H5V.24h.28V.6a1,1,0,0,0,.39.92,2.3,2.3,0,0,0,1.1.17h6.7a2.35,2.35,0,0,0,1-.15.84.84,0,0,0,.37-.39A2.09,2.09,0,0,0,15,.24h.28V3.15l-8,3.72,8,3.66v2.91H15v-.36a1.05,1.05,0,0,0-.39-.93,2.3,2.3,0,0,0-1.1-.17H6.79a2,2,0,0,0-1.18.21,1.12,1.12,0,0,0-.32.89v.36H5V9.08h.28v.36a1,1,0,0,0,.39.92,2.3,2.3,0,0,0,1.1.17h6.85L5,6.57Z"/><path d="M11.94,23.42H7.74a10.54,10.54,0,0,0-1.47.06.66.66,0,0,0-.37.18.44.44,0,0,0-.11.29,1.35,1.35,0,0,0,.13.53l-.26.11L4.8,22.51v-.34H6.27a6.31,6.31,0,0,1-1.22-1.36,2.08,2.08,0,0,1-.25-1,1.58,1.58,0,0,1,.34-1A1.74,1.74,0,0,1,6,18.21,5.23,5.23,0,0,1,7.5,18H10.6a1.53,1.53,0,0,0,.68-.11.71.71,0,0,0,.29-.31,1.85,1.85,0,0,0,.09-.75h.28V19.3H7.31A1.73,1.73,0,0,0,6,19.64a1.17,1.17,0,0,0-.3.81,1.7,1.7,0,0,0,.2.74,4,4,0,0,0,.78,1h3.93a1.11,1.11,0,0,0,.8-.22,1.4,1.4,0,0,0,.22-.9h.28Z"/><path d="M12.15,32.67H9.79v-.25a3.07,3.07,0,0,0,1.51-.74,1.66,1.66,0,0,0,.4-1.15,1.26,1.26,0,0,0-.28-.85.81.81,0,0,0-.62-.33,1.13,1.13,0,0,0-.73.24,2.69,2.69,0,0,0-.66,1l-.54,1.1a2.25,2.25,0,0,1-2,1.54,1.87,1.87,0,0,1-1.52-.71,2.48,2.48,0,0,1-.58-1.6A5.5,5.5,0,0,1,5,29.42,1.48,1.48,0,0,0,5.1,29a.3.3,0,0,0-.2-.27v-.25H7.38v.25a2.81,2.81,0,0,0-1.6.81,2,2,0,0,0-.54,1.34,1.2,1.2,0,0,0,.31.85,1,1,0,0,0,.74.33,1.17,1.17,0,0,0,.88-.37,6.41,6.41,0,0,0,.9-1.46,4.34,4.34,0,0,1,1-1.44,1.7,1.7,0,0,1,1.09-.34,1.92,1.92,0,0,1,1.43.59,2.07,2.07,0,0,1,.58,1.52,3.57,3.57,0,0,1-.17,1,2.34,2.34,0,0,0-.11.51.3.3,0,0,0,.05.19.73.73,0,0,0,.23.16Z"/><path d="M12.15,39.71H6.58a2.55,2.55,0,0,0-.87.09.66.66,0,0,0-.32.28,1.5,1.5,0,0,0-.11.68H5V37.39h.27a1.57,1.57,0,0,0,.1.68.67.67,0,0,0,.33.28,2.45,2.45,0,0,0,.87.1H9.25a9.45,9.45,0,0,0,1.46-.07.59.59,0,0,0,.34-.17.47.47,0,0,0,.09-.31,1.51,1.51,0,0,0-.11-.51l.27-.11.85,2.09Zm3.62-.63a.76.76,0,0,1-.76.76.75.75,0,0,1-.54-.22.73.73,0,0,1-.23-.54.77.77,0,1,1,1.54,0Z"/><path d="M7.65,50.61a3.75,3.75,0,0,1-2.11-1.1A2.64,2.64,0,0,1,4.8,47.7a2.67,2.67,0,0,1,1-2.06,3.89,3.89,0,0,1,2.68-.88,3.69,3.69,0,0,1,2.66,1,3.11,3.11,0,0,1,1,2.33,2.56,2.56,0,0,1-.54,1.68,1.5,1.5,0,0,1-1.12.66.62.62,0,0,1-.47-.19.72.72,0,0,1-.18-.52.81.81,0,0,1,.29-.67,1.19,1.19,0,0,1,.61-.17,1,1,0,0,0,.68-.31,1.09,1.09,0,0,0,.23-.73,1.5,1.5,0,0,0-.56-1.22,3,3,0,0,0-2-.61,4,4,0,0,0-2.19.61A1.87,1.87,0,0,0,6,48.25a2,2,0,0,0,.51,1.33,3.42,3.42,0,0,0,1.26.81Z"/><path d="M15.27,75.41H15a1.3,1.3,0,0,0-.14-.65,1.42,1.42,0,0,0-.54-.48A8.75,8.75,0,0,0,13,73.81L4.78,70.95v-.3l6.56-2.34L4.78,66v-.27l8.52-3q1-.34,1.13-.43a1,1,0,0,0,.43-.41,1.51,1.51,0,0,0,.14-.71h.28v3.8H15v-.18a.92.92,0,0,0-.18-.61.56.56,0,0,0-.44-.21,5.22,5.22,0,0,0-1.22.33l-5.76,2,4.9,1.7.86-.3.69-.24a3.75,3.75,0,0,0,.67-.36.92.92,0,0,0,.24-.24,1.36,1.36,0,0,0,.2-.38A1.64,1.64,0,0,0,15,66h.28v4H15v-.27a.89.89,0,0,0-.18-.62.64.64,0,0,0-.49-.2,4.86,4.86,0,0,0-1.35.34l-5.58,2,5.65,2a4.75,4.75,0,0,0,1.3.33.54.54,0,0,0,.33-.11.58.58,0,0,0,.21-.28,2.21,2.21,0,0,0,.11-.75h.28Z"/><path d="M12.15,81.26A3.07,3.07,0,0,1,11,83.79a3.67,3.67,0,0,1-2.35.81,4.42,4.42,0,0,1-1.88-.45,3.17,3.17,0,0,1-1.92-3A2.94,2.94,0,0,1,6,78.69a3.87,3.87,0,0,1,2.36-.78,4.19,4.19,0,0,1,1.9.47,3.23,3.23,0,0,1,1.39,1.24A3.19,3.19,0,0,1,12.15,81.26ZM11.66,81a1.58,1.58,0,0,0-.24-.81,1.67,1.67,0,0,0-.84-.65A4,4,0,0,0,9,79.32a5.35,5.35,0,0,0-2.61.6,1.79,1.79,0,0,0-1.1,1.59,1.48,1.48,0,0,0,.61,1.21A3.44,3.44,0,0,0,8,83.19a4.74,4.74,0,0,0,2.91-.79A1.64,1.64,0,0,0,11.66,81Z"/><path d="M12.15,90.75H10.59q1.56.87,1.56,1.79a1,1,0,0,1-.25.69.78.78,0,0,1-.59.27.69.69,0,0,1-.5-.2.63.63,0,0,1-.2-.47,1,1,0,0,1,.26-.59,1,1,0,0,0,.26-.49.45.45,0,0,0-.15-.3,3.64,3.64,0,0,0-1-.7H6.63a2.06,2.06,0,0,0-.87.14.78.78,0,0,0-.34.35,1.53,1.53,0,0,0-.14.72H5V88.41h.27a1.47,1.47,0,0,0,.17.79.65.65,0,0,0,.39.26,3.89,3.89,0,0,0,.73,0H9.26a11.17,11.17,0,0,0,1.44,0,.57.57,0,0,0,.34-.18.51.51,0,0,0,.11-.33,1.5,1.5,0,0,0-.11-.53l.27-.08.85,2.1Z"/><path d="M15.77,99H8.88l1.6,1.76a5.91,5.91,0,0,0,.65.65.33.33,0,0,0,.18.06.34.34,0,0,0,.26-.12.68.68,0,0,0,.12-.41h.24v3H11.7a2.85,2.85,0,0,0-.19-1,3.34,3.34,0,0,0-.62-.9l-1.64-1.78L7,102q-.93.74-1.18,1a2.05,2.05,0,0,0-.46.64,2,2,0,0,0-.08.66H5V101h.27a.7.7,0,0,0,.09.39.27.27,0,0,0,.22.1,1.17,1.17,0,0,0,.56-.3L8.87,99H6.57a2.61,2.61,0,0,0-.89.09.6.6,0,0,0-.3.27,2,2,0,0,0-.1.76H5V96.63h.27a1.89,1.89,0,0,0,.13.79.55.55,0,0,0,.26.24,2.3,2.3,0,0,0,.86.11h6.31a11.3,11.3,0,0,0,1.47-.05.64.64,0,0,0,.37-.17.48.48,0,0,0,.1-.32,1.43,1.43,0,0,0-.13-.48l.26-.13.85,2.06Z"/><path d="M12.15,112.31H9.79v-.25a3.07,3.07,0,0,0,1.51-.74,1.66,1.66,0,0,0,.4-1.15,1.26,1.26,0,0,0-.28-.85.81.81,0,0,0-.62-.33,1.13,1.13,0,0,0-.73.24,2.69,2.69,0,0,0-.66,1l-.54,1.1a2.25,2.25,0,0,1-2,1.54,1.87,1.87,0,0,1-1.52-.71,2.48,2.48,0,0,1-.58-1.6A5.5,5.5,0,0,1,5,109.06a1.48,1.48,0,0,0,.08-.41.3.3,0,0,0-.2-.27v-.25H7.38v.25a2.81,2.81,0,0,0-1.6.81,2,2,0,0,0-.54,1.34,1.2,1.2,0,0,0,.31.85,1,1,0,0,0,.74.33,1.17,1.17,0,0,0,.88-.37,6.41,6.41,0,0,0,.9-1.46,4.34,4.34,0,0,1,1-1.44,1.7,1.7,0,0,1,1.09-.34,1.92,1.92,0,0,1,1.43.59,2.07,2.07,0,0,1,.58,1.52,3.57,3.57,0,0,1-.17,1,2.34,2.34,0,0,0-.11.51.3.3,0,0,0,.05.19.73.73,0,0,0,.23.16Z"/></g></g></svg>