<svg xmlns="http://www.w3.org/2000/svg" viewBox="0 0 24.08 22.47"><title>资源 7</title><g id="图层_2" data-name="图层 2"><g id="图层_1-2" data-name="图层 1"><path d="M23.83.25v.1H23.3a2.49,2.49,0,0,0-2.2,1,5,5,0,0,0-.4,2.52V22.22h-.22L6,4.5,5.54,4V18.28A4.53,4.53,0,0,0,6,21a2.69,2.69,0,0,0,2.09.77h.53v.1H1.47v-.1H2a2.51,2.51,0,0,0,2.21-1,5,5,0,0,0,.4-2.52V2.81l-.06-.07A10.19,10.19,0,0,0,3,1.22,5.64,5.64,0,0,0,1.51.51,4.77,4.77,0,0,0,.25.36V.25H5.88L19.32,16.74l.44.54V3.83a4.42,4.42,0,0,0-.52-2.71A2.66,2.66,0,0,0,17.15.35h-.52V.25h7.19M24.08,0H16.38V.6h.77a2.42,2.42,0,0,1,1.91.69,4.39,4.39,0,0,1,.46,2.54V16.58L6,0H0V.6A5.2,5.2,0,0,1,1.43.75a5.37,5.37,0,0,1,1.46.67A10.09,10.09,0,0,1,4.35,2.9V18.28A5,5,0,0,1,4,20.66a2.27,2.27,0,0,1-2,.85H1.22v.6H8.92v-.6H8.13a2.45,2.45,0,0,1-1.91-.69,4.52,4.52,0,0,1-.44-2.54V4.66l14.57,17.8h.59V3.83a5,5,0,0,1,.36-2.38,2.25,2.25,0,0,1,2-.85h.78V0Z"/></g></g></svg>