<svg xmlns="http://www.w3.org/2000/svg" viewBox="0 0 21.65 23.12"><title>资源 2</title><g id="图层_2" data-name="图层 2"><g id="图层_1-2" data-name="图层 1"><path d="M11,.25a9.83,9.83,0,0,1,7.28,3.19,11.09,11.09,0,0,1,3.08,8,11.43,11.43,0,0,1-3.11,8.19,10.05,10.05,0,0,1-7.51,3.25A10,10,0,0,1,3.29,19.7a11.45,11.45,0,0,1-3-8.22A11,11,0,0,1,3.76,3.07,10.38,10.38,0,0,1,11,.25m-.29,22a6.68,6.68,0,0,0,5.34-2.52c1.39-1.66,2.09-4.29,2.09-7.82,0-3.82-.77-6.72-2.29-8.62A6.29,6.29,0,0,0,10.73.94a6.1,6.1,0,0,0-5,2.29C4.25,5.1,3.48,7.85,3.48,11.41s.8,6.5,2.37,8.49a6,6,0,0,0,4.89,2.31M11,0A10.58,10.58,0,0,0,3.59,2.89,11.18,11.18,0,0,0,0,11.48a11.64,11.64,0,0,0,3.11,8.4,10.2,10.2,0,0,0,7.67,3.24,10.25,10.25,0,0,0,7.69-3.33,11.62,11.62,0,0,0,3.18-8.36A11.28,11.28,0,0,0,18.5,3.27,10,10,0,0,0,11,0Zm-.29,22A5.72,5.72,0,0,1,6,19.74q-2.32-2.92-2.31-8.33T6,3.39a5.83,5.83,0,0,1,4.76-2.2,6,6,0,0,1,5,2.22q2.23,2.79,2.23,8.46,0,5.23-2,7.66A6.41,6.41,0,0,1,10.74,22Z"/></g></g></svg>