<svg xmlns="http://www.w3.org/2000/svg" viewBox="0 0 16.84 22.11"><title>资源 1</title><g id="图层_2" data-name="图层 2"><g id="图层_1-2" data-name="图层 1"><path d="M8.1.25a14.19,14.19,0,0,1,4.59.6,6.23,6.23,0,0,1,2.78,2,5.08,5.08,0,0,1,1.12,3.28,5.58,5.58,0,0,1-1.71,4.22A6.83,6.83,0,0,1,10,12a14,14,0,0,1-1.7-.11c-.61-.08-1.27-.19-2-.34L6,11.44v6.75c0,1.49.17,2.37.52,2.76a2.59,2.59,0,0,0,2.06.8h.6v.1h-9v-.1H.83a2.47,2.47,0,0,0,2.22-1,5.37,5.37,0,0,0,.37-2.53V3.91a4.66,4.66,0,0,0-.5-2.76A2.64,2.64,0,0,0,.83.35H.25V.25H8.1M9,11.4A4.14,4.14,0,0,0,12.08,10a5,5,0,0,0,1.3-3.57,6.39,6.39,0,0,0-.61-2.77,4.31,4.31,0,0,0-1.76-2,5.13,5.13,0,0,0-2.57-.64,9.92,9.92,0,0,0-2.19.32L6,1.43V11l.2,0c.58.11,1.1.19,1.55.25A9.86,9.86,0,0,0,9,11.4M8.1,0H0V.6H.83a2.39,2.39,0,0,1,1.89.72,4.65,4.65,0,0,1,.44,2.59V18.19a5.38,5.38,0,0,1-.33,2.4,2.22,2.22,0,0,1-2,.91H0v.6H9.47v-.6H8.62a2.34,2.34,0,0,1-1.87-.72,4.51,4.51,0,0,1-.46-2.59V11.75q1.06.23,2,.34a14.22,14.22,0,0,0,1.73.11,7,7,0,0,0,5-1.7,5.8,5.8,0,0,0,1.79-4.4,5.3,5.3,0,0,0-1.17-3.44A6.44,6.44,0,0,0,12.78.61,14.35,14.35,0,0,0,8.1,0ZM9,11.15a9.58,9.58,0,0,1-1.14-.08q-.67-.08-1.53-.24V1.63a9.64,9.64,0,0,1,2.14-.31,4.86,4.86,0,0,1,2.45.61,4,4,0,0,1,1.66,1.84,6.11,6.11,0,0,1,.59,2.67,4.77,4.77,0,0,1-1.23,3.4A3.88,3.88,0,0,1,9,11.15Z"/></g></g></svg>