<svg xmlns="http://www.w3.org/2000/svg" viewBox="0 0 21.99 22.11"><title>资源 5</title><g id="图层_2" data-name="图层 2"><g id="图层_1-2" data-name="图层 1"><path d="M8.05.25a19,19,0,0,1,5.12.5,5.72,5.72,0,0,1,2.72,1.81A4.7,4.7,0,0,1,17,5.69a4.94,4.94,0,0,1-1.27,3.37,7.3,7.3,0,0,1-4,2l-.37.08.22.31,4.56,6.34a11.45,11.45,0,0,0,2.76,3,6.85,6.85,0,0,0,2.82.92v.13H16.22L8.81,11.62l-.08-.11H8.6l-1.34,0H6.81l-.5,0L6,11.5v6.69c0,1.49.17,2.37.52,2.76a2.57,2.57,0,0,0,2,.8h.61v.1h-9v-.1H.83a2.47,2.47,0,0,0,2.21-1,5.15,5.15,0,0,0,.39-2.54V3.91c0-1.49-.17-2.37-.52-2.76A2.64,2.64,0,0,0,.83.35H.25V.25h7.8M6,11H7.21a7.45,7.45,0,0,0,4.93-1.43A4.64,4.64,0,0,0,13.83,5.9a4.81,4.81,0,0,0-1.37-3.54A4.9,4.9,0,0,0,8.85,1a14.68,14.68,0,0,0-2.61.31l-.2,0V11m2-11H0V.6H.83a2.39,2.39,0,0,1,1.89.72,4.51,4.51,0,0,1,.46,2.59V18.19a5.15,5.15,0,0,1-.34,2.4,2.22,2.22,0,0,1-2,.91H0v.6H9.47v-.6H8.61a2.32,2.32,0,0,1-1.86-.72,4.52,4.52,0,0,1-.46-2.59V11.77l.51,0h.46l1.35,0,7.48,10.34H22v-.6a6.77,6.77,0,0,1-2.93-.91,11.34,11.34,0,0,1-2.69-2.9L11.8,11.35a7.51,7.51,0,0,0,4.12-2.12,5.16,5.16,0,0,0,1.33-3.54A4.92,4.92,0,0,0,16.08,2.4,5.94,5.94,0,0,0,13.25.51,19.15,19.15,0,0,0,8.05,0ZM7.21,10.76H6.29V1.55a14.38,14.38,0,0,1,2.56-.31,4.64,4.64,0,0,1,3.43,1.3,4.55,4.55,0,0,1,1.3,3.37A4.38,4.38,0,0,1,12,9.39a7.19,7.19,0,0,1-4.77,1.37Z"/></g></g></svg>