<svg xmlns="http://www.w3.org/2000/svg" viewBox="0 0 147.75 12.74"><defs><style>.cls-1{fill:#4d4d4d;}</style></defs><title>资源 9</title><g id="图层_2" data-name="图层 2"><g id="图层_1-2" data-name="图层 1"><path class="cls-1" d="M2.47.7,2.55.45h3A6.82,6.82,0,0,1,8.3.88,3.29,3.29,0,0,1,9.74,2.24a3.87,3.87,0,0,1,.54,2A5.15,5.15,0,0,1,10,6a5.23,5.23,0,0,1-.7,1.37A6.44,6.44,0,0,1,8.06,8.5a5.67,5.67,0,0,1-1.76.92,8.05,8.05,0,0,1-2.37.3H0l.09-.25a2.23,2.23,0,0,0,.72-.1.87.87,0,0,0,.4-.31A4.44,4.44,0,0,0,1.66,7.9L3.3,2.3a4,4,0,0,0,.19-1A.49.49,0,0,0,3.32.85,1.18,1.18,0,0,0,2.62.7ZM4.89,1l-2,6.94a5.25,5.25,0,0,0-.23,1,.37.37,0,0,0,.07.21.34.34,0,0,0,.19.14,1.93,1.93,0,0,0,.57.06,8.49,8.49,0,0,0,2-.22A4.12,4.12,0,0,0,7,8.39,4.4,4.4,0,0,0,8.33,6.64a6.14,6.14,0,0,0,.5-2.54,3.3,3.3,0,0,0-.77-2.39A3,3,0,0,0,5.83.94Z"/><path class="cls-1" d="M13.6,7.14a4.18,4.18,0,0,0,0,.57,1.4,1.4,0,0,0,.43,1,1.43,1.43,0,0,0,1,.43A2.31,2.31,0,0,0,16,9a7.64,7.64,0,0,0,1.35-.89l.14.2a4.58,4.58,0,0,1-3.09,1.61,1.81,1.81,0,0,1-1.5-.63,2.16,2.16,0,0,1-.51-1.39A4.09,4.09,0,0,1,13,5.78a4.74,4.74,0,0,1,1.58-1.66,3.65,3.65,0,0,1,2-.59,1.64,1.64,0,0,1,1.07.29.89.89,0,0,1,.35.7,1.64,1.64,0,0,1-.45,1.09,4.16,4.16,0,0,1-1.75,1.09A9.74,9.74,0,0,1,13.6,7.14Zm0-.33a5.78,5.78,0,0,0,1.65-.4,3.32,3.32,0,0,0,1.26-.9,1.62,1.62,0,0,0,.42-1,.62.62,0,0,0-.18-.46.7.7,0,0,0-.52-.18,2.24,2.24,0,0,0-1.48.74A4.46,4.46,0,0,0,13.64,6.81Z"/><path class="cls-1" d="M24.62,3.53l-.42,2.1H24a2.16,2.16,0,0,0-.39-1.33,1.11,1.11,0,0,0-.88-.42,1,1,0,0,0-.67.23.74.74,0,0,0-.25.56,1,1,0,0,0,.1.43,2.81,2.81,0,0,0,.43.57,8.3,8.3,0,0,1,1.15,1.46,2,2,0,0,1,.26.93,1.68,1.68,0,0,1-.59,1.26,2.11,2.11,0,0,1-1.49.55,3.4,3.4,0,0,1-1.13-.23,1.11,1.11,0,0,0-.35-.08.5.5,0,0,0-.46.31h-.25l.42-2.21h.25a2.33,2.33,0,0,0,.43,1.47,1.37,1.37,0,0,0,1.07.43,1.14,1.14,0,0,0,.82-.29,1,1,0,0,0,.3-.71,1.17,1.17,0,0,0-.11-.51,5.8,5.8,0,0,0-.8-1.13A6.05,6.05,0,0,1,21,5.84a1.66,1.66,0,0,1-.17-.72A1.49,1.49,0,0,1,21.32,4a1.73,1.73,0,0,1,1.24-.46,2.09,2.09,0,0,1,.4,0l.45.15a1.73,1.73,0,0,0,.47.13.57.57,0,0,0,.49-.32Z"/><path class="cls-1" d="M29.61,3.53,28.26,8.33a3.63,3.63,0,0,0-.14.58.25.25,0,0,0,.07.18.21.21,0,0,0,.15.07A.44.44,0,0,0,28.58,9a4.08,4.08,0,0,0,.79-.87l.24.16a4.82,4.82,0,0,1-1.09,1.2,1.46,1.46,0,0,1-.89.36.64.64,0,0,1-.46-.17A.56.56,0,0,1,27,9.3a3.54,3.54,0,0,1,.17-.84l.89-3.06a4.87,4.87,0,0,0,.22-.94.32.32,0,0,0-.11-.25.42.42,0,0,0-.29-.1,5.05,5.05,0,0,0-.62.08V3.92ZM29.52.82a.68.68,0,0,1,.68.68A.66.66,0,0,1,30,2a.68.68,0,0,1-1,0,.66.66,0,0,1-.2-.48.68.68,0,0,1,.68-.68Z"/><path class="cls-1" d="M39,4l-.2.71H37.63a2.1,2.1,0,0,1,.13.69A2.14,2.14,0,0,1,37,7a3.32,3.32,0,0,1-2.12.78,3.13,3.13,0,0,0-1.09.52.3.3,0,0,0-.14.23.33.33,0,0,0,.12.25A1.63,1.63,0,0,0,34.4,9l1.33.31a3.22,3.22,0,0,1,1.46.62,1.17,1.17,0,0,1,.35.83,1.51,1.51,0,0,1-.41,1,2.72,2.72,0,0,1-1.21.73,6,6,0,0,1-3.3.06,2.07,2.07,0,0,1-1-.54,1.06,1.06,0,0,1-.3-.7,1.17,1.17,0,0,1,.19-.61,1.73,1.73,0,0,1,.49-.52q.18-.13,1-.62A.69.69,0,0,1,32.72,9,.9.9,0,0,1,33,8.42a3.45,3.45,0,0,1,1.17-.68A2.08,2.08,0,0,1,33,7.12,1.57,1.57,0,0,1,32.53,6a2.29,2.29,0,0,1,.85-1.74,3.26,3.26,0,0,1,2.27-.77,2.88,2.88,0,0,1,.84.1,2.25,2.25,0,0,1,.64.32ZM33.33,9.72a2,2,0,0,0-.84.65,1.34,1.34,0,0,0-.28.78.88.88,0,0,0,.41.75,2.93,2.93,0,0,0,1.72.42A3.84,3.84,0,0,0,36,12q.69-.33.69-.86a.69.69,0,0,0-.26-.51,2.15,2.15,0,0,0-1-.39Q35,10.15,33.33,9.72ZM36.6,5a1.18,1.18,0,0,0-.3-.86,1.06,1.06,0,0,0-.8-.31,1.48,1.48,0,0,0-1.28.78,2.93,2.93,0,0,0-.5,1.62,1.19,1.19,0,0,0,.32.86,1,1,0,0,0,.78.33,1.37,1.37,0,0,0,.7-.2,1.75,1.75,0,0,0,.57-.55,2.9,2.9,0,0,0,.37-.89A3.66,3.66,0,0,0,36.6,5Z"/><path class="cls-1" d="M43.17,3.53l-.91,3.11a14.54,14.54,0,0,1,2-2.51,2,2,0,0,1,1.31-.6.76.76,0,0,1,.56.23.8.8,0,0,1,.22.59,4.13,4.13,0,0,1-.2,1.09l-.83,2.88a3.47,3.47,0,0,0-.14.61.24.24,0,0,0,.05.16.15.15,0,0,0,.12.06.35.35,0,0,0,.2-.09,4.54,4.54,0,0,0,.79-.87l.21.13a5.13,5.13,0,0,1-1.2,1.3,1.31,1.31,0,0,1-.71.27.54.54,0,0,1-.4-.15A.57.57,0,0,1,44,9.32a4.82,4.82,0,0,1,.23-1.13l.79-2.75a3,3,0,0,0,.15-.8.29.29,0,0,0-.09-.22.3.3,0,0,0-.22-.09.92.92,0,0,0-.46.16,4.13,4.13,0,0,0-1.05,1,14.42,14.42,0,0,0-1.16,1.81,6.69,6.69,0,0,0-.53,1.27l-.34,1.13h-1l1.24-4.28a5.54,5.54,0,0,0,.22-.93.35.35,0,0,0-.12-.26.42.42,0,0,0-.3-.11l-.29,0-.26,0,0-.25Z"/><path class="cls-1" d="M50.15,7.14a4.18,4.18,0,0,0,0,.57,1.4,1.4,0,0,0,.43,1,1.43,1.43,0,0,0,1,.43,2.31,2.31,0,0,0,.95-.2,7.64,7.64,0,0,0,1.35-.89l.14.2a4.58,4.58,0,0,1-3.09,1.61,1.81,1.81,0,0,1-1.5-.63,2.16,2.16,0,0,1-.51-1.39,4.09,4.09,0,0,1,.63-2.08,4.74,4.74,0,0,1,1.58-1.66,3.65,3.65,0,0,1,2-.59,1.64,1.64,0,0,1,1.07.29.89.89,0,0,1,.35.7,1.64,1.64,0,0,1-.45,1.09A4.16,4.16,0,0,1,52.3,6.71,9.74,9.74,0,0,1,50.15,7.14Zm0-.33a5.78,5.78,0,0,0,1.65-.4,3.32,3.32,0,0,0,1.26-.9,1.62,1.62,0,0,0,.42-1,.62.62,0,0,0-.18-.46.7.7,0,0,0-.52-.18,2.24,2.24,0,0,0-1.48.74A4.46,4.46,0,0,0,50.2,6.81Z"/><path class="cls-1" d="M56.82,3.92l2.36-.38-1,3.32A11.11,11.11,0,0,1,60.37,4a1.59,1.59,0,0,1,.9-.46.47.47,0,0,1,.36.13.53.53,0,0,1,.13.39,1.72,1.72,0,0,1-.23.86.51.51,0,0,1-.47.31.39.39,0,0,1-.27-.1.5.5,0,0,1-.14-.31.26.26,0,0,0-.06-.17.18.18,0,0,0-.13-.05.46.46,0,0,0-.22.05,2.43,2.43,0,0,0-.54.53A15,15,0,0,0,58.46,6.9a5.15,5.15,0,0,0-.49,1q-.29.78-.33.94l-.22.86h-1l1.26-4.25a4.3,4.3,0,0,0,.22-1.05.25.25,0,0,0-.1-.21.56.56,0,0,0-.36-.11,4,4,0,0,0-.53.06Z"/><path class="cls-1" d="M73.18,0,68,9.93h-.6L72.61,0Z"/><path class="cls-1" d="M80.08.7l.08-.25h3a6.81,6.81,0,0,1,2.79.43,3.29,3.29,0,0,1,1.45,1.36,3.88,3.88,0,0,1,.54,2A5.13,5.13,0,0,1,87.58,6a5.17,5.17,0,0,1-.7,1.37A6.43,6.43,0,0,1,85.67,8.5a5.69,5.69,0,0,1-1.76.92,8.06,8.06,0,0,1-2.37.3H77.61l.09-.25a2.23,2.23,0,0,0,.72-.1.88.88,0,0,0,.4-.31,4.47,4.47,0,0,0,.44-1.16L80.92,2.3a4.05,4.05,0,0,0,.19-1,.5.5,0,0,0-.18-.41,1.18,1.18,0,0,0-.7-.14ZM82.51,1l-2,6.94a5.25,5.25,0,0,0-.23,1,.36.36,0,0,0,.07.21.34.34,0,0,0,.2.14,1.92,1.92,0,0,0,.57.06,8.48,8.48,0,0,0,2-.22,4.13,4.13,0,0,0,1.51-.66,4.42,4.42,0,0,0,1.33-1.75,6.15,6.15,0,0,0,.5-2.54,3.3,3.3,0,0,0-.77-2.39A3,3,0,0,0,83.45.94Z"/><path class="cls-1" d="M91.21,7.14a4.35,4.35,0,0,0,0,.57,1.4,1.4,0,0,0,.43,1,1.43,1.43,0,0,0,1,.43,2.32,2.32,0,0,0,.95-.2,7.64,7.64,0,0,0,1.35-.89l.14.2A4.58,4.58,0,0,1,92,9.88a1.82,1.82,0,0,1-1.5-.63A2.17,2.17,0,0,1,90,7.87a4.1,4.1,0,0,1,.63-2.08,4.75,4.75,0,0,1,1.58-1.66,3.66,3.66,0,0,1,2-.59,1.64,1.64,0,0,1,1.07.29.89.89,0,0,1,.35.7,1.64,1.64,0,0,1-.45,1.09,4.15,4.15,0,0,1-1.75,1.09A9.72,9.72,0,0,1,91.21,7.14Zm0-.33a5.78,5.78,0,0,0,1.65-.4,3.32,3.32,0,0,0,1.26-.9,1.62,1.62,0,0,0,.42-1,.62.62,0,0,0-.18-.46.71.71,0,0,0-.52-.18,2.24,2.24,0,0,0-1.48.74A4.46,4.46,0,0,0,91.26,6.81Z"/><path class="cls-1" d="M97.46,4l2-.42a6.91,6.91,0,0,1,.34,1,15,15,0,0,1,.3,1.83q.06.53.15,2.26.86-.94,1-1.17.9-1.22,1-1.44a3,3,0,0,0,.31-.64,1.12,1.12,0,0,0,.08-.39q0-.18-.32-.41a.65.65,0,0,1-.32-.52.53.53,0,0,1,.17-.39.57.57,0,0,1,.41-.17.67.67,0,0,1,.51.24.82.82,0,0,1,.22.58,2.06,2.06,0,0,1-.11.67,6,6,0,0,1-.66,1.27,20.19,20.19,0,0,1-1.57,2q-.14.16-1.52,1.59h-.25q-.16-4.33-.68-5.4A.59.59,0,0,0,98,4.14a2.73,2.73,0,0,0-.49.06Z"/><path class="cls-1" d="M106.44,7.14a4.18,4.18,0,0,0,0,.57,1.4,1.4,0,0,0,.43,1,1.43,1.43,0,0,0,1,.43,2.31,2.31,0,0,0,.95-.2,7.64,7.64,0,0,0,1.35-.89l.14.2a4.58,4.58,0,0,1-3.09,1.61,1.81,1.81,0,0,1-1.5-.63,2.16,2.16,0,0,1-.51-1.39,4.09,4.09,0,0,1,.63-2.08,4.74,4.74,0,0,1,1.58-1.66,3.65,3.65,0,0,1,2-.59,1.64,1.64,0,0,1,1.07.29.89.89,0,0,1,.35.7,1.64,1.64,0,0,1-.45,1.09,4.16,4.16,0,0,1-1.75,1.09A9.74,9.74,0,0,1,106.44,7.14Zm0-.33a5.78,5.78,0,0,0,1.65-.4,3.32,3.32,0,0,0,1.26-.9,1.62,1.62,0,0,0,.42-1,.62.62,0,0,0-.18-.46.7.7,0,0,0-.52-.18,2.24,2.24,0,0,0-1.48.74A4.46,4.46,0,0,0,106.49,6.81Z"/><path class="cls-1" d="M116.55,0l-2.34,8.13a4.35,4.35,0,0,0-.17.75.24.24,0,0,0,.07.17.21.21,0,0,0,.16.07.47.47,0,0,0,.28-.12,3.72,3.72,0,0,0,.75-.87l.21.21a5,5,0,0,1-1.2,1.28,1.42,1.42,0,0,1-.77.26.58.58,0,0,1-.43-.18.57.57,0,0,1-.17-.41,4.82,4.82,0,0,1,.22-1L115,1.87a6.57,6.57,0,0,0,.23-.9.33.33,0,0,0-.13-.27.63.63,0,0,0-.4-.11,3.63,3.63,0,0,0-.48,0V.39Z"/><path class="cls-1" d="M124.15,5.67a4.23,4.23,0,0,1-.54,2,4.12,4.12,0,0,1-1.51,1.59,3.64,3.64,0,0,1-1.89.59,2.05,2.05,0,0,1-1.53-.6,2.11,2.11,0,0,1-.59-1.55,4,4,0,0,1,.58-2,4.38,4.38,0,0,1,1.54-1.6,3.6,3.6,0,0,1,1.87-.59,2,2,0,0,1,1.49.59A2.11,2.11,0,0,1,124.15,5.67ZM123,5.2a1.39,1.39,0,0,0-.31-1,1,1,0,0,0-.8-.34q-1,0-1.85,1.44a5.62,5.62,0,0,0-.84,2.86,1.41,1.41,0,0,0,.33,1,1.08,1.08,0,0,0,.83.35q1,0,1.81-1.43A5.66,5.66,0,0,0,123,5.2Z"/><path class="cls-1" d="M129.17,3.53l-.47,1.57A5.8,5.8,0,0,1,130,3.88a2.3,2.3,0,0,1,1.19-.35,1.34,1.34,0,0,1,1,.48,1.81,1.81,0,0,1,.43,1.25,5,5,0,0,1-1.22,3.06,3.57,3.57,0,0,1-2.85,1.56,2.2,2.2,0,0,1-.6-.08,2.66,2.66,0,0,1-.59-.27l-.5,1.76a3.3,3.3,0,0,0-.15.68.42.42,0,0,0,.08.26.5.5,0,0,0,.26.16,2.74,2.74,0,0,0,.7.06l-.06.25h-3.22l.07-.25a1.48,1.48,0,0,0,.86-.22,2.52,2.52,0,0,0,.47-1.06l1.73-6a3.88,3.88,0,0,0,.16-.7.38.38,0,0,0-.11-.29.45.45,0,0,0-.33-.1,4.48,4.48,0,0,0-.55,0V3.88ZM127.58,9a1.41,1.41,0,0,0,1.14.51,1.52,1.52,0,0,0,.72-.2,2.75,2.75,0,0,0,.72-.59,4.75,4.75,0,0,0,.63-.9,6.8,6.8,0,0,0,.5-1.2,4.46,4.46,0,0,0,.22-1.37,1.25,1.25,0,0,0-.25-.84.75.75,0,0,0-.58-.29,2,2,0,0,0-1.46.85,5.36,5.36,0,0,0-1.06,2Z"/><path class="cls-1" d="M136.14,7.14a4.35,4.35,0,0,0,0,.57,1.4,1.4,0,0,0,.43,1,1.43,1.43,0,0,0,1,.43,2.32,2.32,0,0,0,.95-.2,7.64,7.64,0,0,0,1.35-.89l.14.2a4.58,4.58,0,0,1-3.09,1.61,1.82,1.82,0,0,1-1.5-.63,2.17,2.17,0,0,1-.51-1.39,4.1,4.1,0,0,1,.63-2.08,4.75,4.75,0,0,1,1.58-1.66,3.66,3.66,0,0,1,2-.59,1.64,1.64,0,0,1,1.07.29.89.89,0,0,1,.35.7A1.64,1.64,0,0,1,140,5.61a4.15,4.15,0,0,1-1.75,1.09A9.72,9.72,0,0,1,136.14,7.14Zm0-.33a5.78,5.78,0,0,0,1.65-.4,3.32,3.32,0,0,0,1.26-.9,1.62,1.62,0,0,0,.42-1,.62.62,0,0,0-.18-.46.71.71,0,0,0-.52-.18,2.24,2.24,0,0,0-1.48.74A4.46,4.46,0,0,0,136.19,6.81Z"/><path class="cls-1" d="M142.82,3.92l2.36-.38-1,3.32A11.06,11.06,0,0,1,146.37,4a1.59,1.59,0,0,1,.9-.46.47.47,0,0,1,.36.13.53.53,0,0,1,.13.39,1.73,1.73,0,0,1-.23.86.51.51,0,0,1-.47.31.39.39,0,0,1-.27-.1.49.49,0,0,1-.14-.31.27.27,0,0,0-.06-.17.18.18,0,0,0-.13-.05.45.45,0,0,0-.22.05,2.39,2.39,0,0,0-.54.53,14.74,14.74,0,0,0-1.23,1.74,5.15,5.15,0,0,0-.49,1q-.29.78-.33.94l-.22.86h-1l1.26-4.25a4.35,4.35,0,0,0,.22-1.05.25.25,0,0,0-.1-.21.57.57,0,0,0-.36-.11,4,4,0,0,0-.53.06Z"/></g></g></svg>