<svg xmlns="http://www.w3.org/2000/svg" viewBox="0 0 18.15 120.28"><defs><style>.cls-1{fill:#f2f2f2;}</style></defs><title>资源 29</title><g id="图层_2" data-name="图层 2"><g id="图层_1-2" data-name="图层 1"><rect class="cls-1" width="18.15" height="120.28"/><path d="M15.27,11H15a1.67,1.67,0,0,0-.35-.82,3.14,3.14,0,0,0-1.13-.71L4.78,5.87V5.59l8.84-3.84a4.88,4.88,0,0,0,.83-.42,1.33,1.33,0,0,0,.37-.47A2.16,2.16,0,0,0,15,.12h.28V4.31H15a1.91,1.91,0,0,0-.24-.92.55.55,0,0,0-.45-.21,3.42,3.42,0,0,0-1.18.35l-6,2.61L13,8.55a4,4,0,0,0,1.22.36.57.57,0,0,0,.42-.22A1.44,1.44,0,0,0,15,7.95l0-.13h.28Z"/><path d="M12.15,16.22H6.58a2.55,2.55,0,0,0-.87.09.66.66,0,0,0-.32.28,1.5,1.5,0,0,0-.11.68H5V13.9h.27a1.57,1.57,0,0,0,.1.68.67.67,0,0,0,.33.28,2.45,2.45,0,0,0,.87.1H9.25a9.45,9.45,0,0,0,1.46-.07.59.59,0,0,0,.34-.17.47.47,0,0,0,.09-.31A1.51,1.51,0,0,0,11,13.9l.27-.11.85,2.09Zm3.62-.63a.76.76,0,0,1-.76.76.75.75,0,0,1-.54-.22.73.73,0,0,1-.23-.54.77.77,0,1,1,1.54,0Z"/><path d="M5.79,26.12a3.5,3.5,0,0,1-.76-1,2.4,2.4,0,0,1-.23-1,2.58,2.58,0,0,1,.95-2,3.53,3.53,0,0,1,2.44-.85,4.41,4.41,0,0,1,2.73.94,2.9,2.9,0,0,1,1.24,2.41,2.08,2.08,0,0,1-.58,1.51h1.28a10.46,10.46,0,0,0,1.46-.06.64.64,0,0,0,.37-.18.46.46,0,0,0,.1-.3,1.6,1.6,0,0,0-.12-.52l.26-.1L15.77,27v.34h-8a10.72,10.72,0,0,0-1.49.06.66.66,0,0,0-.37.18.44.44,0,0,0-.11.29,1.64,1.64,0,0,0,.13.54l-.26.08L4.8,26.47v-.35Zm.53,0H9.89a2.41,2.41,0,0,0,.94-.27,1.57,1.57,0,0,0,.64-.6,1.46,1.46,0,0,0,.22-.73,1.55,1.55,0,0,0-.6-1.19,3.4,3.4,0,0,0-2.3-.69,3.61,3.61,0,0,0-2.34.67,1.91,1.91,0,0,0-.81,1.48A1.84,1.84,0,0,0,6.32,26.12Z"/><path d="M9.33,33.24A3.56,3.56,0,0,0,6.91,34,2.28,2.28,0,0,0,6,35.77,1.93,1.93,0,0,0,6.41,37a2.76,2.76,0,0,0,1.28.84L7.54,38a3.61,3.61,0,0,1-1.89-.92,2.47,2.47,0,0,1-.85-1.91,2.8,2.8,0,0,1,1-2.14,3.72,3.72,0,0,1,2.61-.89,4,4,0,0,1,2.77.91,3,3,0,0,1,1,2.29,2.56,2.56,0,0,1-.77,1.91A2.82,2.82,0,0,1,9.33,38Zm.44,0v3.21a3,3,0,0,0,.94-.16,1.5,1.5,0,0,0,.67-.56,1.42,1.42,0,0,0,.24-.78,1.56,1.56,0,0,0-.49-1.12A2.12,2.12,0,0,0,9.77,33.24Z"/><path d="M12.15,45.44A3.07,3.07,0,0,1,11,48a3.67,3.67,0,0,1-2.35.81,4.42,4.42,0,0,1-1.88-.45,3.17,3.17,0,0,1-1.92-3A2.94,2.94,0,0,1,6,42.87a3.87,3.87,0,0,1,2.36-.78,4.19,4.19,0,0,1,1.9.47,3.23,3.23,0,0,1,1.39,1.24A3.19,3.19,0,0,1,12.15,45.44Zm-.49-.23a1.58,1.58,0,0,0-.24-.81,1.67,1.67,0,0,0-.84-.65A4,4,0,0,0,9,43.5a5.35,5.35,0,0,0-2.61.6,1.79,1.79,0,0,0-1.1,1.59,1.48,1.48,0,0,0,.61,1.21A3.44,3.44,0,0,0,8,47.37a4.74,4.74,0,0,0,2.91-.79A1.64,1.64,0,0,0,11.66,45.21Z"/><path d="M11.62,67.29v3.18h-.28a1.86,1.86,0,0,0-.29-1,5.58,5.58,0,0,0-1.44-1A16.13,16.13,0,0,1,7.36,67a5.22,5.22,0,0,0-1.1,1.2,2.07,2.07,0,0,0-.31,1.07,1.39,1.39,0,0,0,.28.89,1.54,1.54,0,0,0,.84.51l-.2.28a2.92,2.92,0,0,1-1.57-.9,2.22,2.22,0,0,1-.51-1.45,2.69,2.69,0,0,1,.34-1.26A5.63,5.63,0,0,1,6.25,66,6.56,6.56,0,0,1,5.1,64.28a4.05,4.05,0,0,1-.32-1.61,2.84,2.84,0,0,1,.67-2A2.07,2.07,0,0,1,7,60a3.11,3.11,0,0,1,1.83.66,7.35,7.35,0,0,1,1.89,2.47A8.28,8.28,0,0,1,12,62.6a3.89,3.89,0,0,1,1-.13,2.28,2.28,0,0,1,2,1,2.83,2.83,0,0,1,.53,1.69A2.06,2.06,0,0,1,15,66.58a1.73,1.73,0,0,1-1.31.57,2,2,0,0,1-1.41-.55,7.09,7.09,0,0,1-1.32-1.94,30.71,30.71,0,0,0-3.13,2A4.6,4.6,0,0,0,10.48,68a.94.94,0,0,0,.62-.23.69.69,0,0,0,.24-.48ZM6.69,65.58q1.36-1,2-1.38t1.56-.85A4.32,4.32,0,0,0,9.09,62a2.26,2.26,0,0,0-1.36-.46A2.13,2.13,0,0,0,6.31,62a1.75,1.75,0,0,0-.61,1.41,2.32,2.32,0,0,0,.19.92A5.74,5.74,0,0,0,6.69,65.58Zm4.73-1.17a4,4,0,0,0,1,1.4,1.94,1.94,0,0,0,1.26.47,1.26,1.26,0,0,0,.9-.34A1.1,1.1,0,0,0,15,65.1a1.16,1.16,0,0,0-.46-1,1.52,1.52,0,0,0-.9-.34,3.09,3.09,0,0,0-.83.13A12.46,12.46,0,0,0,11.42,64.4Z"/><path d="M14.71,84.68h-4v1.87a1.33,1.33,0,0,0,.28.94,1.88,1.88,0,0,0,1.12.4v.28H8.61v-.28a2,2,0,0,0,.88-.16,1,1,0,0,0,.42-.41,1.69,1.69,0,0,0,.14-.78V84.68H6.83a3.4,3.4,0,0,0-1,.1.68.68,0,0,0-.33.32,1.43,1.43,0,0,0-.18.7v.37H5v-4.4h.28v.36a1.1,1.1,0,0,0,.37.92,2.3,2.3,0,0,0,1.17.18h6.63a3.4,3.4,0,0,0,1-.1.68.68,0,0,0,.33-.31,1.41,1.41,0,0,0,.18-.7v-.36h.28V89.4l-2.25.1v-.26a3.1,3.1,0,0,0,1.06-.46,1.5,1.5,0,0,0,.49-.64,3.44,3.44,0,0,0,.15-1.18Z"/><path d="M12.15,96.1H6.58a2.55,2.55,0,0,0-.87.09.66.66,0,0,0-.32.28,1.5,1.5,0,0,0-.11.68H5V93.79h.27a1.57,1.57,0,0,0,.1.68.67.67,0,0,0,.33.28,2.45,2.45,0,0,0,.87.1H9.25a9.45,9.45,0,0,0,1.46-.07.59.59,0,0,0,.34-.17.47.47,0,0,0,.09-.31,1.51,1.51,0,0,0-.11-.51l.27-.11.85,2.09Zm3.62-.63a.76.76,0,0,1-.76.76.75.75,0,0,1-.54-.22.73.73,0,0,1-.23-.54.77.77,0,1,1,1.54,0Z"/><path d="M15.77,103.5H6.58a2.51,2.51,0,0,0-.86.09.67.67,0,0,0-.32.29,1.67,1.67,0,0,0-.11.73H5v-3.4h.27a1.47,1.47,0,0,0,.1.65.66.66,0,0,0,.33.27,2.54,2.54,0,0,0,.87.1h6.29a10.92,10.92,0,0,0,1.44-.05.63.63,0,0,0,.37-.17.45.45,0,0,0,.1-.3,1.41,1.41,0,0,0-.12-.5l.26-.13.85,2.07Z"/><path d="M10.67,110.58q.76.76.87.89a2.7,2.7,0,0,1,.45.73,2.07,2.07,0,0,1,.16.78,1.73,1.73,0,0,1-.38,1.12,1.87,1.87,0,0,1-1.1.63A5.14,5.14,0,0,1,11.86,116a2.34,2.34,0,0,1,.28,1.1,1.73,1.73,0,0,1-.28,1,1.89,1.89,0,0,1-.93.68,4.18,4.18,0,0,1-1.38.17h-3a2.71,2.71,0,0,0-.89.1.64.64,0,0,0-.28.28,1.41,1.41,0,0,0-.12.67H5V116.6h.27v.14a1.2,1.2,0,0,0,.17.7.67.67,0,0,0,.39.25,4.86,4.86,0,0,0,.73,0h3a2.52,2.52,0,0,0,1.2-.2,1,1,0,0,0,.48-.95,1.8,1.8,0,0,0-.2-.81,4.37,4.37,0,0,0-.75-1l-.08,0-.33,0H6.58a2.85,2.85,0,0,0-.89.08.64.64,0,0,0-.29.3,1.71,1.71,0,0,0-.12.75H5v-3.5h.27a1.61,1.61,0,0,0,.14.79.71.71,0,0,0,.41.3,4,4,0,0,0,.75,0h3a2.25,2.25,0,0,0,1.22-.25,1.07,1.07,0,0,0,.48-.93,1.67,1.67,0,0,0-.22-.81,3.12,3.12,0,0,0-.75-1H6.58a2.57,2.57,0,0,0-.89.09.65.65,0,0,0-.31.28,1.8,1.8,0,0,0-.1.75H5v-3.43h.27a1.53,1.53,0,0,0,.1.67.65.65,0,0,0,.33.29,2.5,2.5,0,0,0,.87.1H9.23a9.6,9.6,0,0,0,1.48-.07.6.6,0,0,0,.34-.17.47.47,0,0,0,.09-.31,1.45,1.45,0,0,0-.11-.51l.27-.11.85,2.09v.33Z"/></g></g></svg>