<svg xmlns="http://www.w3.org/2000/svg" viewBox="0 0 32.42 13.55"><title>资源 20</title><g id="图层_2" data-name="图层 2"><g id="图层_1-2" data-name="图层 1"><path d="M23.1,13.55c-2.24-.08-4.53-.14-6.82-.24A5.65,5.65,0,0,1,14.72,13a1.92,1.92,0,0,1-1.1-1.13,7.87,7.87,0,0,1-.49-2.75A33.19,33.19,0,0,1,13.27,3a5.4,5.4,0,0,1,.41-1.48A2.24,2.24,0,0,1,15.73.19C17.28.1,18.83,0,20.38,0,23.2,0,26,.07,28.84.12a7.24,7.24,0,0,1,1.28.13A2.3,2.3,0,0,1,31.89,1.7a6.76,6.76,0,0,1,.42,2.18,34.79,34.79,0,0,1-.11,6.71,4.85,4.85,0,0,1-.35,1.27,2.42,2.42,0,0,1-2.33,1.45C27.4,13.4,25.28,13.47,23.1,13.55Zm1-3.21c.16.14.27.25.38.34a1.21,1.21,0,0,0,1.23.26,1,1,0,0,0,.64-1c0-1.39,0-2.78,0-4.17a1.78,1.78,0,0,0-.06-.38c-.09-.42-.22-.83-.68-1a1.23,1.23,0,0,0-1.25.33l-.34.3V2.27H23v8.62h1.15ZM18.57,4.47c0,.07,0,.13,0,.18q0,2.58,0,5.17a1.87,1.87,0,0,0,0,.29.93.93,0,0,0,1.58.67c.2-.14.37-.31.6-.51v.62H22V4.47H20.76v.37c0,1.39,0,2.78,0,4.17a.8.8,0,0,1-.31.7,2,2,0,0,1-.51.2,1.57,1.57,0,0,1-.15-.46c0-1.54,0-3.08,0-4.62V4.47Zm12.2,3.4c0-.61,0-1.18,0-1.75a1.7,1.7,0,0,0-1.65-1.76,1.62,1.62,0,0,0-1.83,1.59,22.91,22.91,0,0,0,0,3.64A1.62,1.62,0,0,0,29.16,11a1.77,1.77,0,0,0,1.58-2.32h-1.2c0,.26,0,.5,0,.73a.5.5,0,0,1-.48.51.46.46,0,0,1-.53-.41c-.05-.54-.07-1.08-.1-1.64Zm-13.43,3V3.46h1.39V2.27h-4V3.49H16V10.9Z"/><path d="M8.68,4.4H9.9v.36c0,1.56,0,3.12,0,4.68a1.58,1.58,0,0,0,.15.46,2,2,0,0,0,.51-.2.8.8,0,0,0,.31-.7c0-1.41,0-2.82,0-4.23V4.41h1.21v6.48H10.87v-.62c-.23.2-.4.37-.6.51a.93.93,0,0,1-1.58-.67,1.86,1.86,0,0,1,0-.29q0-2.62,0-5.23C8.67,4.53,8.67,4.48,8.68,4.4Z"/><path d="M2.91,10.9H1.62c0-.46,0-.92,0-1.36A10.2,10.2,0,0,0,.94,5.18c-.35-1-.62-2-.94-3,.44,0,.85,0,1.26,0,.06,0,.14.14.16.23.26.93.51,1.87.76,2.8a.28.28,0,0,0,.12.17l.47-1.75c.11-.4.23-.81.32-1.22,0-.2.14-.25.33-.25.35,0,.71,0,1.1,0,0,.12,0,.22-.08.31C4,4,3.48,5.56,3,7.09a2.24,2.24,0,0,0-.1.63C2.91,8.77,2.91,9.82,2.91,10.9Z"/><path d="M7.79,7.72c0,.63,0,1.27-.1,1.9A1.62,1.62,0,0,1,6,11,1.63,1.63,0,0,1,4.34,9.63,12.2,12.2,0,0,1,4.27,8,16.69,16.69,0,0,1,4.34,5.8,1.66,1.66,0,0,1,6.78,4.48a1.79,1.79,0,0,1,1,1.75c0,.49,0,1,0,1.48Zm-1.26,0c0-.52,0-1,0-1.55a.68.68,0,0,0-.08-.4A.74.74,0,0,0,6,5.48c-.14,0-.3.15-.42.27a.48.48,0,0,0-.07.31q0,1.63,0,3.26a.53.53,0,0,0,.08.34A.74.74,0,0,0,6,9.91a.66.66,0,0,0,.43-.27.77.77,0,0,0,.09-.43C6.54,8.71,6.53,8.2,6.53,7.7Z"/><path d="M24.12,7.68c0-.58,0-1.16,0-1.75a.56.56,0,0,1,.56-.5.41.41,0,0,1,.48.37,1.78,1.78,0,0,1,0,.32q0,1.52,0,3a2.09,2.09,0,0,1,0,.32c0,.28-.19.47-.49.45a.56.56,0,0,1-.56-.57Q24.12,8.52,24.12,7.68Z"/><path d="M29.57,6.89H28.44c0-.37,0-.72.06-1.06s.23-.39.5-.4.47.11.5.39S29.55,6.52,29.57,6.89Z"/></g></g></svg>